%TF.GenerationSoftware,KiCad,Pcbnew,9.0.6*%
%TF.CreationDate,2025-12-27T10:25:56+05:30*%
%TF.ProjectId,30A_Home_Automation_with_ESP32,3330415f-486f-46d6-955f-4175746f6d61,rev?*%
%TF.SameCoordinates,Original*%
%TF.FileFunction,Copper,L1,Top*%
%TF.FilePolarity,Positive*%
%FSLAX46Y46*%
G04 Gerber Fmt 4.6, Leading zero omitted, Abs format (unit mm)*
G04 Created by KiCad (PCBNEW 9.0.6) date 2025-12-27 10:25:56*
%MOMM*%
%LPD*%
G01*
G04 APERTURE LIST*
G04 Aperture macros list*
%AMRoundRect*
0 Rectangle with rounded corners*
0 $1 Rounding radius*
0 $2 $3 $4 $5 $6 $7 $8 $9 X,Y pos of 4 corners*
0 Add a 4 corners polygon primitive as box body*
4,1,4,$2,$3,$4,$5,$6,$7,$8,$9,$2,$3,0*
0 Add four circle primitives for the rounded corners*
1,1,$1+$1,$2,$3*
1,1,$1+$1,$4,$5*
1,1,$1+$1,$6,$7*
1,1,$1+$1,$8,$9*
0 Add four rect primitives between the rounded corners*
20,1,$1+$1,$2,$3,$4,$5,0*
20,1,$1+$1,$4,$5,$6,$7,0*
20,1,$1+$1,$6,$7,$8,$9,0*
20,1,$1+$1,$8,$9,$2,$3,0*%
G04 Aperture macros list end*
%TA.AperFunction,SMDPad,CuDef*%
%ADD10RoundRect,0.250000X0.250000X0.475000X-0.250000X0.475000X-0.250000X-0.475000X0.250000X-0.475000X0*%
%TD*%
%TA.AperFunction,ComponentPad*%
%ADD11RoundRect,0.250000X-0.600000X-0.750000X0.600000X-0.750000X0.600000X0.750000X-0.600000X0.750000X0*%
%TD*%
%TA.AperFunction,ComponentPad*%
%ADD12O,1.700000X2.000000*%
%TD*%
%TA.AperFunction,SMDPad,CuDef*%
%ADD13RoundRect,0.250000X-0.262500X-0.450000X0.262500X-0.450000X0.262500X0.450000X-0.262500X0.450000X0*%
%TD*%
%TA.AperFunction,SMDPad,CuDef*%
%ADD14RoundRect,0.250000X0.262500X0.450000X-0.262500X0.450000X-0.262500X-0.450000X0.262500X-0.450000X0*%
%TD*%
%TA.AperFunction,ComponentPad*%
%ADD15RoundRect,0.250000X0.550000X-0.550000X0.550000X0.550000X-0.550000X0.550000X-0.550000X-0.550000X0*%
%TD*%
%TA.AperFunction,ComponentPad*%
%ADD16C,1.600000*%
%TD*%
%TA.AperFunction,ComponentPad*%
%ADD17RoundRect,0.249999X1.550001X-0.790001X1.550001X0.790001X-1.550001X0.790001X-1.550001X-0.790001X0*%
%TD*%
%TA.AperFunction,ComponentPad*%
%ADD18O,3.600000X2.080000*%
%TD*%
%TA.AperFunction,ComponentPad*%
%ADD19C,2.000000*%
%TD*%
%TA.AperFunction,ComponentPad*%
%ADD20C,3.000000*%
%TD*%
%TA.AperFunction,ComponentPad*%
%ADD21RoundRect,0.500000X-0.500000X-0.500000X0.500000X-0.500000X0.500000X0.500000X-0.500000X0.500000X0*%
%TD*%
%TA.AperFunction,SMDPad,CuDef*%
%ADD22R,1.500000X0.900000*%
%TD*%
%TA.AperFunction,SMDPad,CuDef*%
%ADD23R,0.900000X1.500000*%
%TD*%
%TA.AperFunction,SMDPad,CuDef*%
%ADD24R,1.050000X1.050000*%
%TD*%
%TA.AperFunction,HeatsinkPad*%
%ADD25C,0.600000*%
%TD*%
%TA.AperFunction,HeatsinkPad*%
%ADD26R,4.200000X4.200000*%
%TD*%
%TA.AperFunction,ComponentPad*%
%ADD27C,0.800000*%
%TD*%
%TA.AperFunction,ComponentPad*%
%ADD28C,5.400000*%
%TD*%
%TA.AperFunction,ComponentPad*%
%ADD29C,1.950000*%
%TD*%
%TA.AperFunction,SMDPad,CuDef*%
%ADD30RoundRect,0.250000X0.450000X-0.262500X0.450000X0.262500X-0.450000X0.262500X-0.450000X-0.262500X0*%
%TD*%
%TA.AperFunction,ComponentPad*%
%ADD31R,1.700000X1.700000*%
%TD*%
%TA.AperFunction,ComponentPad*%
%ADD32C,1.700000*%
%TD*%
%TA.AperFunction,ComponentPad*%
%ADD33R,1.500000X1.050000*%
%TD*%
%TA.AperFunction,ComponentPad*%
%ADD34O,1.500000X1.050000*%
%TD*%
%TA.AperFunction,SMDPad,CuDef*%
%ADD35RoundRect,0.243750X-0.243750X-0.456250X0.243750X-0.456250X0.243750X0.456250X-0.243750X0.456250X0*%
%TD*%
%TA.AperFunction,SMDPad,CuDef*%
%ADD36RoundRect,0.250000X-0.850000X-0.350000X0.850000X-0.350000X0.850000X0.350000X-0.850000X0.350000X0*%
%TD*%
%TA.AperFunction,SMDPad,CuDef*%
%ADD37RoundRect,0.249997X-2.950003X-2.650003X2.950003X-2.650003X2.950003X2.650003X-2.950003X2.650003X0*%
%TD*%
%TA.AperFunction,ComponentPad*%
%ADD38R,1.050000X1.500000*%
%TD*%
%TA.AperFunction,ComponentPad*%
%ADD39O,1.050000X1.500000*%
%TD*%
%TA.AperFunction,ViaPad*%
%ADD40C,0.600000*%
%TD*%
%TA.AperFunction,Conductor*%
%ADD41C,0.500000*%
%TD*%
%TA.AperFunction,Conductor*%
%ADD42C,2.500000*%
%TD*%
G04 APERTURE END LIST*
D10*
%TO.P,C1,1*%
%TO.N,/5V*%
X161800000Y-55425000D03*
%TO.P,C1,2*%
%TO.N,GND*%
X159900000Y-55425000D03*
%TD*%
D11*
%TO.P,PS1,1,AC/L*%
%TO.N,/P*%
X124787500Y-59725000D03*
D12*
%TO.P,PS1,2,AC/N*%
%TO.N,/N*%
X124787500Y-64725000D03*
%TO.P,PS1,3,-Vout*%
%TO.N,GND*%
X153867500Y-54725000D03*
%TO.P,PS1,4,+Vout*%
%TO.N,/5V*%
X153867500Y-69725000D03*
%TD*%
D13*
%TO.P,R1,1*%
%TO.N,Net-(R1-Pad1)*%
X148862500Y-108150000D03*
%TO.P,R1,2*%
%TO.N,/R1*%
X150687500Y-108150000D03*
%TD*%
D14*
%TO.P,R8,1*%
%TO.N,/EW*%
X173112500Y-64625000D03*
%TO.P,R8,2*%
%TO.N,/3V3*%
X171287500Y-64625000D03*
%TD*%
D15*
%TO.P,U3,1*%
%TO.N,Net-(R2-Pad1)*%
X150375000Y-93930000D03*
D16*
%TO.P,U3,2*%
%TO.N,GND*%
X152915000Y-93930000D03*
%TO.P,U3,3*%
%TO.N,Net-(R4-Pad1)*%
X152915000Y-86310000D03*
%TO.P,U3,4*%
%TO.N,GND*%
X150375000Y-86310000D03*
%TD*%
D15*
%TO.P,D3,1,K*%
%TO.N,/5V*%
X143925000Y-89810000D03*
D16*
%TO.P,D3,2,A*%
%TO.N,Net-(D3-A)*%
X143925000Y-82190000D03*
%TD*%
D14*
%TO.P,R7,1*%
%TO.N,/BOOT*%
X173037500Y-61425000D03*
%TO.P,R7,2*%
%TO.N,/3V3*%
X171212500Y-61425000D03*
%TD*%
D17*
%TO.P,J3,1,Pin_1*%
%TO.N,/IN1*%
X116075000Y-89400000D03*
D18*
%TO.P,J3,2,Pin_2*%
%TO.N,/IN2*%
X116075000Y-84320000D03*
%TO.P,J3,3,Pin_3*%
%TO.N,GND*%
X116075000Y-79240000D03*
%TD*%
D17*
%TO.P,J2,1,Pin_1*%
%TO.N,/L2*%
X116050000Y-69775000D03*
D18*
%TO.P,J2,2,Pin_2*%
%TO.N,/L1*%
X116050000Y-64695000D03*
%TO.P,J2,3,Pin_3*%
%TO.N,/N*%
X116050000Y-59615000D03*
%TO.P,J2,4,Pin_4*%
%TO.N,/P*%
X116050000Y-54535000D03*
%TD*%
D19*
%TO.P,SW1,1,1*%
%TO.N,/BOOT*%
X176925000Y-60265000D03*
X183425000Y-60265000D03*
%TO.P,SW1,2,2*%
%TO.N,GND*%
X176925000Y-64765000D03*
X183425000Y-64765000D03*
%TD*%
D20*
%TO.P,K1,13*%
%TO.N,/L1*%
X123215000Y-117450000D03*
%TO.P,K1,14*%
%TO.N,/P*%
X120675000Y-99650000D03*
D21*
%TO.P,K1,A1*%
%TO.N,/5V*%
X135875000Y-113650000D03*
D19*
%TO.P,K1,A2*%
%TO.N,Net-(D2-A)*%
X135875000Y-103450000D03*
%TD*%
D22*
%TO.P,U1,1,GND*%
%TO.N,GND*%
X176275000Y-114535000D03*
%TO.P,U1,2,VDD*%
%TO.N,/3V3*%
X176275000Y-113265000D03*
%TO.P,U1,3,EN*%
%TO.N,/EN*%
X176275000Y-111995000D03*
%TO.P,U1,4,SENSOR_VP*%
%TO.N,unconnected-(U1-SENSOR_VP-Pad4)*%
X176275000Y-110725000D03*
%TO.P,U1,5,SENSOR_VN*%
%TO.N,unconnected-(U1-SENSOR_VN-Pad5)*%
X176275000Y-109455000D03*
%TO.P,U1,6,IO34*%
%TO.N,/IN1*%
X176275000Y-108185000D03*
%TO.P,U1,7,IO35*%
%TO.N,/IN2*%
X176275000Y-106915000D03*
%TO.P,U1,8,IO32*%
%TO.N,unconnected-(U1-IO32-Pad8)*%
X176275000Y-105645000D03*
%TO.P,U1,9,IO33*%
%TO.N,unconnected-(U1-IO33-Pad9)*%
X176275000Y-104375000D03*
%TO.P,U1,10,IO25*%
%TO.N,unconnected-(U1-IO25-Pad10)*%
X176275000Y-103105000D03*
%TO.P,U1,11,IO26*%
%TO.N,unconnected-(U1-IO26-Pad11)*%
X176275000Y-101835000D03*
%TO.P,U1,12,IO27*%
%TO.N,unconnected-(U1-IO27-Pad12)*%
X176275000Y-100565000D03*
%TO.P,U1,13,IO14*%
%TO.N,unconnected-(U1-IO14-Pad13)*%
X176275000Y-99295000D03*
%TO.P,U1,14,IO12*%
%TO.N,/LED1*%
X176275000Y-98025000D03*
D23*
%TO.P,U1,15,GND*%
%TO.N,GND*%
X173235000Y-96775000D03*
%TO.P,U1,16,IO13*%
%TO.N,/LED2*%
X171965000Y-96775000D03*
%TO.P,U1,17,SHD/SD2*%
%TO.N,unconnected-(U1-SHD{slash}SD2-Pad17)*%
X170695000Y-96775000D03*
%TO.P,U1,18,SWP/SD3*%
%TO.N,unconnected-(U1-SWP{slash}SD3-Pad18)*%
X169425000Y-96775000D03*
%TO.P,U1,19,SCS/CMD*%
%TO.N,unconnected-(U1-SCS{slash}CMD-Pad19)*%
X168155000Y-96775000D03*
%TO.P,U1,20,SCK/CLK*%
%TO.N,unconnected-(U1-SCK{slash}CLK-Pad20)*%
X166885000Y-96775000D03*
%TO.P,U1,21,SDO/SD0*%
%TO.N,unconnected-(U1-SDO{slash}SD0-Pad21)*%
X165615000Y-96775000D03*
%TO.P,U1,22,SDI/SD1*%
%TO.N,unconnected-(U1-SDI{slash}SD1-Pad22)*%
X164345000Y-96775000D03*
%TO.P,U1,23,IO15*%
%TO.N,unconnected-(U1-IO15-Pad23)*%
X163075000Y-96775000D03*
%TO.P,U1,24,IO2*%
%TO.N,unconnected-(U1-IO2-Pad24)*%
X161805000Y-96775000D03*
D22*
%TO.P,U1,25,IO0*%
%TO.N,/BOOT*%
X158775000Y-98025000D03*
%TO.P,U1,26,IO4*%
%TO.N,unconnected-(U1-IO4-Pad26)*%
X158775000Y-99295000D03*
%TO.P,U1,27,IO16*%
%TO.N,unconnected-(U1-IO16-Pad27)*%
X158775000Y-100565000D03*
%TO.P,U1,28,IO17*%
%TO.N,unconnected-(U1-IO17-Pad28)*%
X158775000Y-101835000D03*
%TO.P,U1,29,IO5*%
%TO.N,unconnected-(U1-IO5-Pad29)*%
X158775000Y-103105000D03*
%TO.P,U1,30,IO18*%
%TO.N,unconnected-(U1-IO18-Pad30)*%
X158775000Y-104375000D03*
%TO.P,U1,31,IO19*%
%TO.N,unconnected-(U1-IO19-Pad31)*%
X158775000Y-105645000D03*
%TO.P,U1,32,NC*%
%TO.N,unconnected-(U1-NC-Pad32)*%
X158775000Y-106915000D03*
%TO.P,U1,33,IO21*%
%TO.N,unconnected-(U1-IO21-Pad33)*%
X158775000Y-108185000D03*
%TO.P,U1,34,RXD0/IO3*%
%TO.N,/RXD*%
X158775000Y-109455000D03*
%TO.P,U1,35,TXD0/IO1*%
%TO.N,/TXD*%
X158775000Y-110725000D03*
%TO.P,U1,36,IO22*%
%TO.N,/R1*%
X158775000Y-111995000D03*
%TO.P,U1,37,IO23*%
%TO.N,/R2*%
X158775000Y-113265000D03*
%TO.P,U1,38,GND*%
%TO.N,GND*%
X158775000Y-114535000D03*
D24*
%TO.P,U1,39,GND*%
X169730000Y-108720000D03*
D25*
X169730000Y-107957500D03*
D24*
X169730000Y-107195000D03*
D25*
X169730000Y-106432500D03*
D24*
X169730000Y-105670000D03*
D25*
X168967500Y-108720000D03*
X168967500Y-107195000D03*
X168967500Y-105670000D03*
D24*
X168205000Y-108720000D03*
D25*
X168205000Y-107957500D03*
D24*
X168205000Y-107195000D03*
D26*
X168205000Y-107195000D03*
D25*
X168205000Y-106432500D03*
D24*
X168205000Y-105670000D03*
D25*
X167442500Y-108720000D03*
X167442500Y-107195000D03*
X167442500Y-105670000D03*
D24*
X166680000Y-108720000D03*
D25*
X166680000Y-107957500D03*
D24*
X166680000Y-107195000D03*
D25*
X166680000Y-106432500D03*
D24*
X166680000Y-105670000D03*
%TD*%
D27*
%TO.P,H4,1,1*%
%TO.N,unconnected-(H4-Pad1)*%
X180175000Y-110700000D03*
X180768109Y-109268109D03*
X180768109Y-112131891D03*
X182200000Y-108675000D03*
D28*
X182200000Y-110700000D03*
D27*
X182200000Y-112725000D03*
X183631891Y-109268109D03*
X183631891Y-112131891D03*
X184225000Y-110700000D03*
%TD*%
D14*
%TO.P,R5,1*%
%TO.N,/LED1*%
X167212500Y-62025000D03*
%TO.P,R5,2*%
%TO.N,Net-(D1-A)*%
X165387500Y-62025000D03*
%TD*%
D27*
%TO.P,H2,1,1*%
%TO.N,unconnected-(H2-Pad1)*%
X149356891Y-112481891D03*
X149950000Y-111050000D03*
X149950000Y-113913782D03*
X151381891Y-110456891D03*
D28*
X151381891Y-112481891D03*
D27*
X151381891Y-114506891D03*
X152813782Y-111050000D03*
X152813782Y-113913782D03*
X153406891Y-112481891D03*
%TD*%
D29*
%TO.P,K2,A1*%
%TO.N,/5V*%
X136525000Y-89475000D03*
%TO.P,K2,A2*%
%TO.N,Net-(D3-A)*%
X136525000Y-77475000D03*
%TO.P,K2,COM*%
%TO.N,/P*%
X138525000Y-83475000D03*
%TO.P,K2,NC*%
%TO.N,unconnected-(K2-PadNC)*%
X124325000Y-89475000D03*
%TO.P,K2,NO*%
%TO.N,/L2*%
X124325000Y-77475000D03*
%TD*%
D27*
%TO.P,H1,1,1*%
%TO.N,unconnected-(H1-Pad1)*%
X152450000Y-77275000D03*
X153043109Y-75843109D03*
X153043109Y-78706891D03*
X154475000Y-75250000D03*
D28*
X154475000Y-77275000D03*
D27*
X154475000Y-79300000D03*
X155906891Y-75843109D03*
X155906891Y-78706891D03*
X156500000Y-77275000D03*
%TD*%
D30*
%TO.P,R4,1*%
%TO.N,Net-(R4-Pad1)*%
X149475000Y-80962500D03*
%TO.P,R4,2*%
%TO.N,Net-(Q2-B)*%
X149475000Y-79137500D03*
%TD*%
D10*
%TO.P,C2,1*%
%TO.N,/3V3*%
X161800000Y-52075000D03*
%TO.P,C2,2*%
%TO.N,GND*%
X159900000Y-52075000D03*
%TD*%
D27*
%TO.P,H3,1,1*%
%TO.N,unconnected-(H3-Pad1)*%
X180175000Y-53406891D03*
X180768109Y-51975000D03*
X180768109Y-54838782D03*
X182200000Y-51381891D03*
D28*
X182200000Y-53406891D03*
D27*
X182200000Y-55431891D03*
X183631891Y-51975000D03*
X183631891Y-54838782D03*
X184225000Y-53406891D03*
%TD*%
D15*
%TO.P,D2,1,K*%
%TO.N,/5V*%
X145325000Y-111995000D03*
D16*
%TO.P,D2,2,A*%
%TO.N,Net-(D2-A)*%
X145325000Y-104375000D03*
%TD*%
D31*
%TO.P,J1,1,Pin_1*%
%TO.N,/TXD*%
X180750000Y-73710000D03*
D32*
%TO.P,J1,2,Pin_2*%
%TO.N,/RXD*%
X180750000Y-76250000D03*
%TO.P,J1,3,Pin_3*%
%TO.N,GND*%
X180750000Y-78790000D03*
%TO.P,J1,4,Pin_4*%
%TO.N,/3V3*%
X180750000Y-81330000D03*
%TD*%
D30*
%TO.P,R3,1*%
%TO.N,Net-(Q1-B)*%
X138250000Y-94775000D03*
%TO.P,R3,2*%
%TO.N,Net-(R3-Pad2)*%
X138250000Y-92950000D03*
%TD*%
%TO.P,R2,1*%
%TO.N,Net-(R2-Pad1)*%
X147125000Y-87387500D03*
%TO.P,R2,2*%
%TO.N,/R2*%
X147125000Y-85562500D03*
%TD*%
D33*
%TO.P,Q1,1,E*%
%TO.N,GND*%
X144435000Y-96265000D03*
D34*
%TO.P,Q1,2,B*%
%TO.N,Net-(Q1-B)*%
X144435000Y-94995000D03*
%TO.P,Q1,3,C*%
%TO.N,Net-(D2-A)*%
X144435000Y-93725000D03*
%TD*%
D35*
%TO.P,D1,1,K*%
%TO.N,GND*%
X160787500Y-61950000D03*
%TO.P,D1,2,A*%
%TO.N,Net-(D1-A)*%
X162662500Y-61950000D03*
%TD*%
D15*
%TO.P,U2,1*%
%TO.N,Net-(R1-Pad1)*%
X149775000Y-105530000D03*
D16*
%TO.P,U2,2*%
%TO.N,GND*%
X152315000Y-105530000D03*
%TO.P,U2,3*%
%TO.N,Net-(R3-Pad2)*%
X152315000Y-97910000D03*
%TO.P,U2,4*%
%TO.N,GND*%
X149775000Y-97910000D03*
%TD*%
D14*
%TO.P,R6,1*%
%TO.N,/LED2*%
X167387500Y-65325000D03*
%TO.P,R6,2*%
%TO.N,Net-(D4-A)*%
X165562500Y-65325000D03*
%TD*%
D19*
%TO.P,SW2,1,1*%
%TO.N,/EW*%
X176650000Y-89040000D03*
X183150000Y-89040000D03*
%TO.P,SW2,2,2*%
%TO.N,GND*%
X176650000Y-93540000D03*
X183150000Y-93540000D03*
%TD*%
D36*
%TO.P,U4,1,GND*%
%TO.N,GND*%
X165050000Y-51650000D03*
%TO.P,U4,2,VO*%
%TO.N,/3V3*%
X165050000Y-53930000D03*
D37*
X171350000Y-53930000D03*
D36*
%TO.P,U4,3,VI*%
%TO.N,/5V*%
X165050000Y-56210000D03*
%TD*%
D38*
%TO.P,Q2,1,E*%
%TO.N,GND*%
X142480000Y-77010000D03*
D39*
%TO.P,Q2,2,B*%
%TO.N,Net-(Q2-B)*%
X143750000Y-77010000D03*
%TO.P,Q2,3,C*%
%TO.N,Net-(D3-A)*%
X145020000Y-77010000D03*
%TD*%
D35*
%TO.P,D4,1,K*%
%TO.N,GND*%
X160987500Y-65325000D03*
%TO.P,D4,2,A*%
%TO.N,Net-(D4-A)*%
X162862500Y-65325000D03*
%TD*%
D40*
%TO.N,/5V*%
X151150000Y-82550000D03*
X146625000Y-83450000D03*
%TO.N,GND*%
X163150000Y-51100000D03*
X158600000Y-51050000D03*
%TO.N,/3V3*%
X179400000Y-84125000D03*
X178350000Y-105000000D03*
%TO.N,/RXD*%
X176450000Y-76500000D03*
X161700000Y-109800000D03*
%TO.N,/TXD*%
X163700000Y-110300000D03*
X174675000Y-74200000D03*
%TO.N,/IN1*%
X168625000Y-103450000D03*
X144612500Y-100787500D03*
%TO.N,/IN2*%
X144950000Y-98300000D03*
X169100000Y-101525000D03*
%TO.N,/R1*%
X156800000Y-109850000D03*
X152575000Y-108675000D03*
%TO.N,/BOOT*%
X160800000Y-94625000D03*
X174425000Y-63400000D03*
%TD*%
D41*
%TO.N,/5V*%
X162577500Y-56202500D02*
X161800000Y-55425000D01*
X146625000Y-83450000D02*
X146650000Y-83425000D01*
X153867500Y-69725000D02*
X153850000Y-69707500D01*
X151150000Y-72975000D02*
X153867500Y-70257500D01*
X160625000Y-59125000D02*
X160625000Y-59075000D01*
X145925000Y-89325000D02*
X145925000Y-84150000D01*
X143925000Y-89810000D02*
X136860000Y-89810000D01*
X164867500Y-56202500D02*
X162577500Y-56202500D01*
X161800000Y-57900000D02*
X161800000Y-56700000D01*
X153867500Y-70257500D02*
X153867500Y-69725000D01*
X136860000Y-89810000D02*
X136525000Y-89475000D01*
X145925000Y-84150000D02*
X146625000Y-83450000D01*
X161800000Y-56700000D02*
X161800000Y-55425000D01*
X145440000Y-89810000D02*
X145925000Y-89325000D01*
X153850000Y-69707500D02*
X153850000Y-62600000D01*
X157325000Y-59125000D02*
X160625000Y-59125000D01*
X160625000Y-59075000D02*
X161800000Y-57900000D01*
X151150000Y-82550000D02*
X151150000Y-72975000D01*
X143925000Y-89810000D02*
X145440000Y-89810000D01*
X153850000Y-62600000D02*
X157325000Y-59125000D01*
%TO.N,GND*%
X140650000Y-74475000D02*
X142175000Y-76000000D01*
X126450000Y-79500000D02*
X131475000Y-74475000D01*
X116335000Y-79500000D02*
X126450000Y-79500000D01*
X142175000Y-76000000D02*
X142175000Y-76910000D01*
X131475000Y-74475000D02*
X140650000Y-74475000D01*
X116075000Y-79240000D02*
X116335000Y-79500000D01*
%TO.N,/3V3*%
X178350000Y-105000000D02*
X178275000Y-105075000D01*
X178275000Y-105075000D02*
X178275000Y-112350000D01*
X171287500Y-64625000D02*
X171287500Y-65712500D01*
X179400000Y-82680000D02*
X179400000Y-84125000D01*
X171350000Y-61287500D02*
X171212500Y-61425000D01*
X161800000Y-52075000D02*
X161800000Y-52825000D01*
X171212500Y-61425000D02*
X171212500Y-64550000D01*
X182100000Y-67925000D02*
X183175000Y-69000000D01*
X162897500Y-53922500D02*
X165050000Y-53922500D01*
X180750000Y-81330000D02*
X179400000Y-82680000D01*
X171287500Y-65712500D02*
X173500000Y-67925000D01*
X182220000Y-81330000D02*
X180750000Y-81330000D01*
X177360000Y-113265000D02*
X176275000Y-113265000D01*
X183175000Y-80375000D02*
X182220000Y-81330000D01*
X171212500Y-64550000D02*
X171287500Y-64625000D01*
X171277500Y-53850000D02*
X171350000Y-53922500D01*
X178275000Y-112350000D02*
X177360000Y-113265000D01*
X165232500Y-54105000D02*
X165487500Y-53850000D01*
X161800000Y-52825000D02*
X162897500Y-53922500D01*
X165487500Y-53850000D02*
X171277500Y-53850000D01*
X183175000Y-69000000D02*
X183175000Y-80375000D01*
X173500000Y-67925000D02*
X182100000Y-67925000D01*
X171350000Y-53922500D02*
X171350000Y-61287500D01*
%TO.N,Net-(D1-A)*%
X162662500Y-61950000D02*
X165312500Y-61950000D01*
X165312500Y-61950000D02*
X165387500Y-62025000D01*
%TO.N,Net-(D2-A)*%
X144435000Y-93725000D02*
X145500000Y-93725000D01*
X145325000Y-104375000D02*
X136800000Y-104375000D01*
X147000000Y-102700000D02*
X145325000Y-104375000D01*
X145500000Y-93725000D02*
X147000000Y-95225000D01*
X147000000Y-95225000D02*
X147000000Y-102700000D01*
X136800000Y-104375000D02*
X135875000Y-103450000D01*
%TO.N,Net-(D3-A)*%
X145020000Y-81095000D02*
X143925000Y-82190000D01*
X145020000Y-77010000D02*
X145020000Y-81095000D01*
%TO.N,Net-(D4-A)*%
X162862500Y-65325000D02*
X165562500Y-65325000D01*
%TO.N,/RXD*%
X176700000Y-76250000D02*
X176450000Y-76500000D01*
X158775000Y-109455000D02*
X161355000Y-109455000D01*
X161355000Y-109455000D02*
X161700000Y-109800000D01*
X180750000Y-76250000D02*
X176700000Y-76250000D01*
%TO.N,/TXD*%
X180750000Y-73710000D02*
X175165000Y-73710000D01*
X175165000Y-73710000D02*
X174675000Y-74200000D01*
X163275000Y-110725000D02*
X163700000Y-110300000D01*
X158775000Y-110725000D02*
X163275000Y-110725000D01*
D42*
%TO.N,/N*%
X116050000Y-59615000D02*
X120215000Y-59615000D01*
X124787500Y-64187500D02*
X124787500Y-64725000D01*
X120215000Y-59615000D02*
X124787500Y-64187500D01*
%TO.N,/L2*%
X116050000Y-69775000D02*
X121400000Y-69775000D01*
X124250000Y-72625000D02*
X124250000Y-77475000D01*
X121400000Y-69775000D02*
X124250000Y-72625000D01*
D41*
%TO.N,/IN1*%
X143175000Y-99350000D02*
X144612500Y-100787500D01*
X129275000Y-99350000D02*
X129425000Y-99350000D01*
X144612500Y-100787500D02*
X144625000Y-100800000D01*
X174835000Y-108185000D02*
X170100000Y-103450000D01*
X176275000Y-108185000D02*
X174835000Y-108185000D01*
X116075000Y-89400000D02*
X119325000Y-89400000D01*
X129425000Y-99350000D02*
X143175000Y-99350000D01*
X170100000Y-103450000D02*
X168625000Y-103450000D01*
X119325000Y-89400000D02*
X125075000Y-95150000D01*
X125075000Y-95150000D02*
X129275000Y-99350000D01*
%TO.N,/IN2*%
X176275000Y-106915000D02*
X175025000Y-106915000D01*
X175025000Y-106915000D02*
X169635000Y-101525000D01*
X169635000Y-101525000D02*
X169100000Y-101525000D01*
X117070000Y-84320000D02*
X131050000Y-98300000D01*
X144950000Y-98300000D02*
X145000000Y-98300000D01*
X116075000Y-84320000D02*
X117070000Y-84320000D01*
X131050000Y-98300000D02*
X144950000Y-98300000D01*
%TO.N,Net-(Q1-B)*%
X138325000Y-94850000D02*
X144290000Y-94850000D01*
X138250000Y-94775000D02*
X138325000Y-94850000D01*
X144290000Y-94850000D02*
X144435000Y-94995000D01*
%TO.N,Net-(Q2-B)*%
X149600000Y-75100000D02*
X149600000Y-79012500D01*
X143750000Y-77010000D02*
X143750000Y-74250000D01*
X149600000Y-79012500D02*
X149475000Y-79137500D01*
X143750000Y-74250000D02*
X144075000Y-73925000D01*
X144075000Y-73925000D02*
X148425000Y-73925000D01*
X148425000Y-73925000D02*
X149600000Y-75100000D01*
%TO.N,/R1*%
X157943000Y-111995000D02*
X156800000Y-110852000D01*
X150687500Y-108150000D02*
X152050000Y-108150000D01*
X152050000Y-108150000D02*
X152575000Y-108675000D01*
X158775000Y-111995000D02*
X157943000Y-111995000D01*
X156800000Y-110852000D02*
X156800000Y-109850000D01*
%TO.N,Net-(R1-Pad1)*%
X148862500Y-108150000D02*
X148862500Y-106442500D01*
X148862500Y-106442500D02*
X149775000Y-105530000D01*
%TO.N,/R2*%
X152950000Y-88825000D02*
X155950000Y-91825000D01*
X150325000Y-88825000D02*
X152950000Y-88825000D01*
X155950000Y-111690000D02*
X157525000Y-113265000D01*
X148675000Y-85975000D02*
X148675000Y-87175000D01*
X155950000Y-91825000D02*
X155950000Y-111690000D01*
X148675000Y-87175000D02*
X150325000Y-88825000D01*
X157525000Y-113265000D02*
X158775000Y-113265000D01*
X147125000Y-85562500D02*
X148262500Y-85562500D01*
X148262500Y-85562500D02*
X148675000Y-85975000D01*
%TO.N,Net-(R2-Pad1)*%
X150375000Y-93930000D02*
X149030000Y-93930000D01*
X147125000Y-92025000D02*
X147125000Y-87387500D01*
X149030000Y-93930000D02*
X147125000Y-92025000D01*
%TO.N,Net-(R3-Pad2)*%
X150805000Y-96400000D02*
X152315000Y-97910000D01*
X139300000Y-92950000D02*
X140350000Y-91900000D01*
X145775000Y-91900000D02*
X147850000Y-93975000D01*
X149025000Y-96400000D02*
X150805000Y-96400000D01*
X140350000Y-91900000D02*
X145775000Y-91900000D01*
X138250000Y-92950000D02*
X139300000Y-92950000D01*
X147850000Y-95225000D02*
X149025000Y-96400000D01*
X147850000Y-93975000D02*
X147850000Y-95225000D01*
%TO.N,Net-(R4-Pad1)*%
X149475000Y-82625000D02*
X152915000Y-86065000D01*
X152915000Y-86065000D02*
X152915000Y-86310000D01*
X149475000Y-80962500D02*
X149475000Y-82625000D01*
%TO.N,/LED1*%
X167212500Y-62025000D02*
X168450000Y-62025000D01*
X171475000Y-92675000D02*
X174125000Y-95325000D01*
X171475000Y-67400000D02*
X171475000Y-92675000D01*
X175750000Y-95325000D02*
X176275000Y-95850000D01*
X168450000Y-62025000D02*
X169275000Y-62850000D01*
X169275000Y-62850000D02*
X169275000Y-65200000D01*
X169275000Y-65200000D02*
X171475000Y-67400000D01*
X174125000Y-95325000D02*
X175750000Y-95325000D01*
X176275000Y-95850000D02*
X176275000Y-98025000D01*
%TO.N,/LED2*%
X169375000Y-93075000D02*
X171965000Y-95665000D01*
X169375000Y-66450000D02*
X169375000Y-92250000D01*
X168250000Y-65325000D02*
X169375000Y-66450000D01*
X169375000Y-92450000D02*
X169375000Y-93075000D01*
X167387500Y-65325000D02*
X168250000Y-65325000D01*
X169375000Y-92250000D02*
X169375000Y-92450000D01*
X171965000Y-95665000D02*
X171965000Y-96775000D01*
%TO.N,/BOOT*%
X158600000Y-95375000D02*
X158600000Y-97850000D01*
X159350000Y-94625000D02*
X158600000Y-95375000D01*
X173037500Y-61425000D02*
X173037500Y-62012500D01*
X173037500Y-61425000D02*
X175765000Y-61425000D01*
X173037500Y-62012500D02*
X174425000Y-63400000D01*
X176925000Y-60265000D02*
X183425000Y-60265000D01*
X158600000Y-97850000D02*
X158775000Y-98025000D01*
X175765000Y-61425000D02*
X176925000Y-60265000D01*
X160800000Y-94625000D02*
X159350000Y-94625000D01*
%TO.N,/EW*%
X184225000Y-67800000D02*
X184225000Y-87965000D01*
X183275000Y-66850000D02*
X184225000Y-67800000D01*
X184225000Y-87965000D02*
X183150000Y-89040000D01*
X174650000Y-66850000D02*
X183275000Y-66850000D01*
X173112500Y-65312500D02*
X174650000Y-66850000D01*
X173112500Y-64625000D02*
X173112500Y-65312500D01*
X176650000Y-89040000D02*
X183150000Y-89040000D01*
%TD*%
%TA.AperFunction,Conductor*%
%TO.N,GND*%
G36*
X161197358Y-50727075D02*
G01*
X161243113Y-50779879D01*
X161253057Y-50849037D01*
X161224032Y-50912593D01*
X161195415Y-50936929D01*
X161081344Y-51007287D01*
X160957289Y-51131342D01*
X160865187Y-51280663D01*
X160865186Y-51280666D01*
X160810001Y-51447203D01*
X160810001Y-51447204D01*
X160810000Y-51447204D01*
X160799500Y-51549983D01*
X160799500Y-52600001D01*
X160799501Y-52600019D01*
X160810000Y-52702796D01*
X160810001Y-52702799D01*
X160865185Y-52869331D01*
X160865187Y-52869336D01*
X160881132Y-52895187D01*
X160930669Y-52975500D01*
X160957289Y-53018657D01*
X161081345Y-53142713D01*
X161106533Y-53158249D01*
X161114309Y-53165748D01*
X161120954Y-53168640D01*
X161144539Y-53194897D01*
X161166092Y-53227153D01*
X161166093Y-53227156D01*
X161217046Y-53303414D01*
X161217052Y-53303421D01*
X161901452Y-53987819D01*
X161934937Y-54049142D01*
X161929953Y-54118833D01*
X161888082Y-54174767D01*
X161822617Y-54199184D01*
X161813771Y-54199500D01*
X161499999Y-54199500D01*
X161499980Y-54199501D01*
X161397203Y-54210000D01*
X161397200Y-54210001D01*
X161230668Y-54265185D01*
X161230663Y-54265187D01*
X161081342Y-54357289D01*
X160957289Y-54481342D01*
X160865187Y-54630663D01*
X160865185Y-54630668D01*
X160851158Y-54673000D01*
X160810001Y-54797203D01*
X160810001Y-54797204D01*
X160810000Y-54797204D01*
X160799500Y-54899983D01*
X160799500Y-55950001D01*
X160799501Y-55950019D01*
X160810000Y-56052796D01*
X160810001Y-56052799D01*
X160865185Y-56219331D01*
X160865187Y-56219336D01*
X160957289Y-56368657D01*
X161013181Y-56424549D01*
X161046666Y-56485872D01*
X161049500Y-56512230D01*
X161049500Y-57537770D01*
X161029815Y-57604809D01*
X161013181Y-57625451D01*
X160300451Y-58338181D01*
X160239128Y-58371666D01*
X160212770Y-58374500D01*
X157251080Y-58374500D01*
X157106092Y-58403340D01*
X157106082Y-58403343D01*
X156969511Y-58459912D01*
X156969498Y-58459919D01*
X156846584Y-58542048D01*
X156846580Y-58542051D01*
X153267047Y-62121584D01*
X153267043Y-62121589D01*
X153224733Y-62184914D01*
X153224732Y-62184916D01*
X153184919Y-62244499D01*
X153184912Y-62244511D01*
X153128343Y-62381082D01*
X153128340Y-62381092D01*
X153099500Y-62526079D01*
X153099500Y-68400492D01*
X153079815Y-68467531D01*
X153048387Y-68500809D01*
X152987708Y-68544895D01*
X152837390Y-68695213D01*
X152712451Y-68867179D01*
X152615944Y-69056585D01*
X152550253Y-69258760D01*
X152517000Y-69468713D01*
X152517000Y-69981286D01*
X152550253Y-70191240D01*
X152605772Y-70362109D01*
X152607767Y-70431950D01*
X152575522Y-70488108D01*
X150567050Y-72496580D01*
X150567044Y-72496588D01*
X150517812Y-72570268D01*
X150517813Y-72570269D01*
X150484921Y-72619496D01*
X150484914Y-72619508D01*
X150428342Y-72756086D01*
X150428340Y-72756092D01*
X150399500Y-72901079D01*
X150399500Y-74538892D01*
X150379815Y-74605931D01*
X150327011Y-74651686D01*
X150257853Y-74661630D01*
X150194297Y-74632605D01*
X150187513Y-74625638D01*
X150187260Y-74625892D01*
X148903421Y-73342052D01*
X148903414Y-73342046D01*
X148829729Y-73292812D01*
X148829729Y-73292813D01*
X148780491Y-73259913D01*
X148643917Y-73203343D01*
X148643907Y-73203340D01*
X148498920Y-73174500D01*
X148498918Y-73174500D01*
X144148917Y-73174500D01*
X144001082Y-73174500D01*
X144001080Y-73174500D01*
X143856092Y-73203340D01*
X143856082Y-73203343D01*
X143719511Y-73259912D01*
X143719498Y-73259919D01*
X143596584Y-73342048D01*
X143596580Y-73342051D01*
X143167047Y-73771584D01*
X143154674Y-73790102D01*
X143142355Y-73808541D01*
X143134150Y-73820821D01*
X143084914Y-73894507D01*
X143028343Y-74031082D01*
X143028340Y-74031092D01*
X142999500Y-74176079D01*
X142999500Y-76033861D01*
X142979815Y-76100900D01*
X142963181Y-76121542D01*
X142953444Y-76131278D01*
X142953441Y-76131281D01*
X142841217Y-76299237D01*
X142841212Y-76299247D01*
X142763909Y-76485872D01*
X142763907Y-76485880D01*
X142724500Y-76683992D01*
X142724500Y-77336007D01*
X142763907Y-77534119D01*
X142763909Y-77534127D01*
X142841212Y-77720752D01*
X142841217Y-77720762D01*
X142953441Y-77888718D01*
X143096281Y-78031558D01*
X143264237Y-78143782D01*
X143264241Y-78143784D01*
X143264244Y-78143786D01*
X143450873Y-78221091D01*
X143587819Y-78248331D01*
X143648992Y-78260499D01*
X143648996Y-78260500D01*
X143648997Y-78260500D01*
X143851004Y-78260500D01*
X143851005Y-78260499D01*
X144049127Y-78221091D01*
X144098048Y-78200826D01*
X144167516Y-78193358D01*
X144229995Y-78224632D01*
X144265648Y-78284721D01*
X144269500Y-78315388D01*
X144269500Y-80732768D01*
X144260855Y-80762208D01*
X144254332Y-80792195D01*
X144250577Y-80797210D01*
X144249815Y-80799807D01*
X144233181Y-80820449D01*
X144190104Y-80863526D01*
X144128781Y-80897011D01*
X144083025Y-80898318D01*
X144027352Y-80889500D01*
X143822648Y-80889500D01*
X143798329Y-80893351D01*
X143620465Y-80921522D01*
X143425776Y-80984781D01*
X143243386Y-81077715D01*
X143077786Y-81198028D01*
X142933028Y-81342786D01*
X142812715Y-81508386D01*
X142719781Y-81690776D01*
X142699321Y-81753748D01*
X142659883Y-81811423D01*
X142595524Y-81838621D01*
X142526678Y-81826706D01*
X142475202Y-81779462D01*
X142457390Y-81715429D01*
X142457390Y-79118077D01*
X142457390Y-79118075D01*
X142427923Y-79008104D01*
X142370998Y-78909506D01*
X142290494Y-78829002D01*
X142191896Y-78772077D01*
X142191897Y-78772077D01*
X142164403Y-78764710D01*
X142081925Y-78742610D01*
X142081922Y-78742610D01*
X137643425Y-78742610D01*
X137576386Y-78722925D01*
X137530631Y-78670121D01*
X137520687Y-78600963D01*
X137549712Y-78537407D01*
X137555744Y-78530929D01*
X137584965Y-78501708D01*
X137650449Y-78436224D01*
X137786961Y-78248331D01*
X137892400Y-78041396D01*
X137964169Y-77820514D01*
X137984443Y-77692502D01*
X138000500Y-77591129D01*
X138000500Y-77358870D01*
X137964217Y-77129792D01*
X137964169Y-77129486D01*
X137892400Y-76908604D01*
X137892398Y-76908601D01*
X137892398Y-76908599D01*
X137786960Y-76701668D01*
X137650449Y-76513776D01*
X137486224Y-76349551D01*
X137298331Y-76213039D01*
X137091400Y-76107601D01*
X136870514Y-76035831D01*
X136641129Y-75999500D01*
X136641124Y-75999500D01*
X136408876Y-75999500D01*
X136408871Y-75999500D01*
X136179485Y-76035831D01*
X135958599Y-76107601D01*
X135751668Y-76213039D01*
X135563773Y-76349553D01*
X135399553Y-76513773D01*
X135263039Y-76701668D01*
X135157601Y-76908599D01*
X135085831Y-77129485D01*
X135049500Y-77358870D01*
X135049500Y-77591129D01*
X135085831Y-77820514D01*
X135157601Y-78041400D01*
X135238834Y-78200827D01*
X135263039Y-78248331D01*
X135399551Y-78436224D01*
X135563776Y-78600449D01*
X135704695Y-78702833D01*
X135751670Y-78736962D01*
X135771970Y-78747305D01*
X135822766Y-78795279D01*
X135839562Y-78863100D01*
X135823064Y-78919788D01*
X135772079Y-79008099D01*
X135772077Y-79008102D01*
X135757343Y-79063089D01*
X135742610Y-79118075D01*
X135742610Y-81631925D01*
X135772077Y-81741896D01*
X135829002Y-81840494D01*
X135909506Y-81920998D01*
X136008104Y-81977923D01*
X136118075Y-82007390D01*
X136231925Y-82007390D01*
X137653087Y-82007390D01*
X137720126Y-82027075D01*
X137765881Y-82079879D01*
X137775825Y-82149037D01*
X137746800Y-82212593D01*
X137725971Y-82231708D01*
X137563776Y-82349551D01*
X137563774Y-82349553D01*
X137563773Y-82349553D01*
X137399553Y-82513773D01*
X137263039Y-82701668D01*
X137157601Y-82908599D01*
X137085831Y-83129485D01*
X137049500Y-83358870D01*
X137049500Y-83591129D01*
X137085831Y-83820514D01*
X137157601Y-84041400D01*
X137257390Y-84237244D01*
X137263039Y-84248331D01*
X137399551Y-84436224D01*
X137399553Y-84436226D01*
X137567221Y-84603894D01*
X137566142Y-84604972D01*
X137600645Y-84657819D01*
X137601149Y-84727687D01*
X137563799Y-84786735D01*
X137500454Y-84816217D01*
X137481923Y-84817610D01*
X136506925Y-84817610D01*
X136393075Y-84817610D01*
X136310596Y-84839710D01*
X136283103Y-84847077D01*
X136184507Y-84904001D01*
X136184504Y-84904003D01*
X136104003Y-84984504D01*
X136104001Y-84984507D01*
X136047077Y-85083103D01*
X136037254Y-85119761D01*
X136017610Y-85193075D01*
X136017610Y-85193077D01*
X136017610Y-87981930D01*
X136017967Y-87984642D01*
X136017610Y-87986931D01*
X136017610Y-87990053D01*
X136017123Y-87990053D01*
X136007201Y-88053677D01*
X135960820Y-88105932D01*
X135951325Y-88111308D01*
X135933630Y-88120325D01*
X135751668Y-88213039D01*
X135563773Y-88349553D01*
X135399553Y-88513773D01*
X135263039Y-88701668D01*
X135157601Y-88908599D01*
X135085831Y-89129485D01*
X135049500Y-89358870D01*
X135049500Y-89591129D01*
X135085831Y-89820514D01*
X135157601Y-90041400D01*
X135230524Y-90184517D01*
X135263039Y-90248331D01*
X135399551Y-90436224D01*
X135563776Y-90600449D01*
X135751669Y-90736961D01*
X135849436Y-90786776D01*
X135958599Y-90842398D01*
X135958601Y-90842398D01*
X135958604Y-90842400D01*
X136179486Y-90914169D01*
X136297668Y-90932886D01*
X136408871Y-90950500D01*
X136408876Y-90950500D01*
X136641129Y-90950500D01*
X136742502Y-90934443D01*
X136870514Y-90914169D01*
X137091396Y-90842400D01*
X137298331Y-90736961D01*
X137486224Y-90600449D01*
X137489854Y-90596819D01*
X137551177Y-90563334D01*
X137577535Y-90560500D01*
X142561267Y-90560500D01*
X142628306Y-90580185D01*
X142674061Y-90632989D01*
X142678972Y-90645494D01*
X142690184Y-90679328D01*
X142690187Y-90679336D01*
X142782289Y-90828657D01*
X142891451Y-90937819D01*
X142924936Y-90999142D01*
X142919952Y-91068834D01*
X142878080Y-91124767D01*
X142812616Y-91149184D01*
X142803770Y-91149500D01*
X140276080Y-91149500D01*
X140131092Y-91178340D01*
X140131082Y-91178343D01*
X139994511Y-91234912D01*
X139994498Y-91234919D01*
X139871584Y-91317048D01*
X139871580Y-91317051D01*
X139191712Y-91996918D01*
X139130389Y-92030403D01*
X139060697Y-92025419D01*
X139038934Y-92014775D01*
X139019342Y-92002690D01*
X139019336Y-92002687D01*
X139019334Y-92002686D01*
X138852797Y-91947501D01*
X138852795Y-91947500D01*
X138750010Y-91937000D01*
X137749998Y-91937000D01*
X137749980Y-91937001D01*
X137647203Y-91947500D01*
X137647200Y-91947501D01*
X137480668Y-92002685D01*
X137480663Y-92002687D01*
X137331342Y-92094789D01*
X137207289Y-92218842D01*
X137115187Y-92368163D01*
X137115186Y-92368166D01*
X137060001Y-92534703D01*
X137060001Y-92534704D01*
X137060000Y-92534704D01*
X137049500Y-92637483D01*
X137049500Y-93262501D01*
X137049501Y-93262519D01*
X137060000Y-93365296D01*
X137060001Y-93365299D01*
X137115185Y-93531831D01*
X137115187Y-93531836D01*
X137128498Y-93553416D01*
X137201430Y-93671659D01*
X137207289Y-93681157D01*
X137300951Y-93774819D01*
X137334436Y-93836142D01*
X137329452Y-93905834D01*
X137300951Y-93950181D01*
X137207289Y-94043842D01*
X137115187Y-94193163D01*
X137115186Y-94193166D01*
X137060001Y-94359703D01*
X137060001Y-94359704D01*
X137060000Y-94359704D01*
X137049500Y-94462483D01*
X137049500Y-95087501D01*
X137049501Y-95087519D01*
X137060000Y-95190296D01*
X137060001Y-95190299D01*
X137115185Y-95356831D01*
X137115187Y-95356836D01*
X137135212Y-95389302D01*
X137207288Y-95506156D01*
X137331344Y-95630212D01*
X137480666Y-95722314D01*
X137647203Y-95777499D01*
X137749991Y-95788000D01*
X138750008Y-95787999D01*
X138750016Y-95787998D01*
X138750019Y-95787998D01*
X138806302Y-95782248D01*
X138852797Y-95777499D01*
X139019334Y-95722314D01*
X139168656Y-95630212D01*
X139168662Y-95630205D01*
X139172422Y-95627234D01*
X139237217Y-95601093D01*
X139249333Y-95600500D01*
X143315223Y-95600500D01*
X143382262Y-95620185D01*
X143411080Y-95645840D01*
X143413444Y-95648721D01*
X143556281Y-95791558D01*
X143724237Y-95903782D01*
X143724241Y-95903784D01*
X143724244Y-95903786D01*
X143910873Y-95981091D01*
X144108992Y-96020499D01*
X144108996Y-96020500D01*
X144108997Y-96020500D01*
X144761004Y-96020500D01*
X144761005Y-96020499D01*
X144959127Y-95981091D01*
X145145756Y-95903786D01*
X145313718Y-95791558D01*
X145456558Y-95648718D01*
X145539557Y-95524500D01*
X145568782Y-95480762D01*
X145568782Y-95480761D01*
X145568786Y-95480756D01*
X145646091Y-95294127D01*
X145660837Y-95219989D01*
X145693221Y-95158082D01*
X145753936Y-95123507D01*
X145823706Y-95127246D01*
X145870135Y-95156502D01*
X146213181Y-95499548D01*
X146246666Y-95560871D01*
X146249500Y-95587229D01*
X146249500Y-102337769D01*
X146229815Y-102404808D01*
X146213181Y-102425450D01*
X145590104Y-103048526D01*
X145528781Y-103082011D01*
X145483025Y-103083318D01*
X145427352Y-103074500D01*
X145222648Y-103074500D01*
X145198329Y-103078351D01*
X145020465Y-103106522D01*
X144825776Y-103169781D01*
X144643386Y-103262715D01*
X144477786Y-103383028D01*
X144333032Y-103527782D01*
X144333028Y-103527787D01*
X144299900Y-103573385D01*
X144244571Y-103616051D01*
X144199582Y-103624500D01*
X137499500Y-103624500D01*
X137432461Y-103604815D01*
X137386706Y-103552011D01*
X137375500Y-103500500D01*
X137375500Y-103331902D01*
X137338553Y-103098631D01*
X137265566Y-102874003D01*
X137197594Y-102740602D01*
X137158343Y-102663567D01*
X137019517Y-102472490D01*
X136852510Y-102305483D01*
X136661433Y-102166657D01*
X136622434Y-102146786D01*
X136450996Y-102059433D01*
X136226368Y-101986446D01*
X135993097Y-101949500D01*
X135993092Y-101949500D01*
X135756908Y-101949500D01*
X135756903Y-101949500D01*
X135523631Y-101986446D01*
X135299003Y-102059433D01*
X135088566Y-102166657D01*
X134995341Y-102234390D01*
X134897490Y-102305483D01*
X134897488Y-102305485D01*
X134897487Y-102305485D01*
X134730485Y-102472487D01*
X134730485Y-102472488D01*
X134730483Y-102472490D01*
X134719346Y-102487819D01*
X134591657Y-102663566D01*
X134484433Y-102874003D01*
X134411446Y-103098631D01*
X134374500Y-103331902D01*
X134374500Y-103568097D01*
X134411446Y-103801368D01*
X134484433Y-104025996D01*
X134552405Y-104159397D01*
X134591657Y-104236433D01*
X134730483Y-104427510D01*
X134897490Y-104594517D01*
X135088567Y-104733343D01*
X135153661Y-104766510D01*
X135299003Y-104840566D01*
X135299005Y-104840566D01*
X135299008Y-104840568D01*
X135398463Y-104872883D01*
X135523631Y-104913553D01*
X135756903Y-104950500D01*
X135756908Y-104950500D01*
X135993096Y-104950500D01*
X136088592Y-104935374D01*
X136207834Y-104916488D01*
X136277126Y-104925442D01*
X136314912Y-104951280D01*
X136321580Y-104957948D01*
X136321588Y-104957954D01*
X136444503Y-105040083D01*
X136444506Y-105040085D01*
X136494665Y-105060861D01*
X136501080Y-105063518D01*
X136581088Y-105096659D01*
X136697241Y-105119763D01*
X136720380Y-105124365D01*
X136726081Y-105125500D01*
X136726082Y-105125500D01*
X136726083Y-105125500D01*
X136873918Y-105125500D01*
X144199582Y-105125500D01*
X144266621Y-105145185D01*
X144299900Y-105176615D01*
X144333028Y-105222212D01*
X144333032Y-105222217D01*
X144477786Y-105366971D01*
X144564408Y-105429904D01*
X144643390Y-105487287D01*
X144759607Y-105546503D01*
X144825776Y-105580218D01*
X144825778Y-105580218D01*
X144825781Y-105580220D01*
X144930137Y-105614127D01*
X145020465Y-105643477D01*
X145045758Y-105647483D01*
X145222648Y-105675500D01*
X145222649Y-105675500D01*
X145427351Y-105675500D01*
X145427352Y-105675500D01*
X145629534Y-105643477D01*
X145824219Y-105580220D01*
X146006610Y-105487287D01*
X146128640Y-105398628D01*
X146172213Y-105366971D01*
X146172215Y-105366968D01*
X146172219Y-105366966D01*
X146316966Y-105222219D01*
X146316968Y-105222215D01*
X146316971Y-105222213D01*
X146391404Y-105119763D01*
X146437287Y-105056610D01*
X146530220Y-104874219D01*
X146593477Y-104679534D01*
X146625500Y-104477352D01*
X146625500Y-104272648D01*
X146616681Y-104216971D01*
X146625635Y-104147680D01*
X146651470Y-104109896D01*
X147582952Y-103178416D01*
X147652385Y-103074500D01*
X147665084Y-103055495D01*
X147699841Y-102971584D01*
X147721659Y-102918912D01*
X147748312Y-102784916D01*
X147750500Y-102773918D01*
X147750500Y-96486230D01*
X147770185Y-96419191D01*
X147822989Y-96373436D01*
X147892147Y-96363492D01*
X147955703Y-96392517D01*
X147962181Y-96398549D01*
X148546586Y-96982954D01*
X148567874Y-96997177D01*
X148586317Y-97009500D01*
X148669505Y-97065084D01*
X148669506Y-97065084D01*
X148669507Y-97065085D01*
X148768954Y-97106277D01*
X148806087Y-97121658D01*
X148806091Y-97121658D01*
X148806092Y-97121659D01*
X148951079Y-97150500D01*
X148951082Y-97150500D01*
X148951083Y-97150500D01*
X149098917Y-97150500D01*
X150442770Y-97150500D01*
X150509809Y-97170185D01*
X150530451Y-97186819D01*
X150988526Y-97644893D01*
X151022011Y-97706216D01*
X151023318Y-97751971D01*
X151017341Y-97789711D01*
X151014500Y-97807648D01*
X151014500Y-98012352D01*
X151018878Y-98039995D01*
X151046522Y-98214534D01*
X151109781Y-98409223D01*
X151202715Y-98591613D01*
X151323028Y-98757213D01*
X151467786Y-98901971D01*
X151595151Y-98994505D01*
X151633390Y-99022287D01*
X151726512Y-99069735D01*
X151815776Y-99115218D01*
X151815778Y-99115218D01*
X151815781Y-99115220D01*
X151864615Y-99131087D01*
X152010465Y-99178477D01*
X152111557Y-99194488D01*
X152212648Y-99210500D01*
X152212649Y-99210500D01*
X152417351Y-99210500D01*
X152417352Y-99210500D01*
X152619534Y-99178477D01*
X152814219Y-99115220D01*
X152996610Y-99022287D01*
X153134939Y-98921786D01*
X153162213Y-98901971D01*
X153162215Y-98901968D01*
X153162219Y-98901966D01*
X153306966Y-98757219D01*
X153306968Y-98757215D01*
X153306971Y-98757213D01*
X153396749Y-98633642D01*
X153427287Y-98591610D01*
X153520220Y-98409219D01*
X153583477Y-98214534D01*
X153615500Y-98012352D01*
X153615500Y-97807648D01*
X153609114Y-97767328D01*
X153583477Y-97605465D01*
X153554127Y-97515137D01*
X153520220Y-97410781D01*
X153520218Y-97410778D01*
X153520218Y-97410776D01*
X153480417Y-97332664D01*
X153427287Y-97228390D01*
X153384999Y-97170185D01*
X153306971Y-97062786D01*
X153162213Y-96918028D01*
X152996613Y-96797715D01*
X152996612Y-96797714D01*
X152996610Y-96797713D01*
X152939653Y-96768691D01*
X152814223Y-96704781D01*
X152619534Y-96641522D01*
X152444995Y-96613878D01*
X152417352Y-96609500D01*
X152212648Y-96609500D01*
X152156971Y-96618318D01*
X152087678Y-96609363D01*
X152049893Y-96583526D01*
X151283421Y-95817052D01*
X151283414Y-95817046D01*
X151209729Y-95767812D01*
X151209729Y-95767813D01*
X151160491Y-95734913D01*
X151023917Y-95678343D01*
X151023907Y-95678340D01*
X150878920Y-95649500D01*
X150878918Y-95649500D01*
X149387230Y-95649500D01*
X149320191Y-95629815D01*
X149299549Y-95613181D01*
X148636819Y-94950451D01*
X148622115Y-94923523D01*
X148605523Y-94897705D01*
X148604631Y-94891504D01*
X148603334Y-94889128D01*
X148600500Y-94862770D01*
X148600500Y-94750009D01*
X148620185Y-94682970D01*
X148672989Y-94637215D01*
X148742147Y-94627271D01*
X148771951Y-94635447D01*
X148811087Y-94651658D01*
X148811091Y-94651658D01*
X148811092Y-94651659D01*
X148956079Y-94680500D01*
X148956082Y-94680500D01*
X148956083Y-94680500D01*
X149011267Y-94680500D01*
X149078306Y-94700185D01*
X149124061Y-94752989D01*
X149128972Y-94765494D01*
X149140186Y-94799334D01*
X149232288Y-94948656D01*
X149356344Y-95072712D01*
X149505666Y-95164814D01*
X149672203Y-95219999D01*
X149774991Y-95230500D01*
X150975008Y-95230499D01*
X151077797Y-95219999D01*
X151244334Y-95164814D01*
X151393656Y-95072712D01*
X151517712Y-94948656D01*
X151609814Y-94799334D01*
X151664999Y-94632797D01*
X151675500Y-94530009D01*
X151675499Y-93329992D01*
X151671813Y-93293913D01*
X151664999Y-93227203D01*
X151664998Y-93227200D01*
X151640548Y-93153415D01*
X151609814Y-93060666D01*
X151517712Y-92911344D01*
X151393656Y-92787288D01*
X151288001Y-92722120D01*
X151244336Y-92695187D01*
X151244331Y-92695185D01*
X151219084Y-92686819D01*
X151077797Y-92640001D01*
X151077795Y-92640000D01*
X150975010Y-92629500D01*
X149774998Y-92629500D01*
X149774981Y-92629501D01*
X149672203Y-92640000D01*
X149672200Y-92640001D01*
X149505668Y-92695185D01*
X149505663Y-92695187D01*
X149356342Y-92787289D01*
X149240181Y-92903451D01*
X149178858Y-92936936D01*
X149109166Y-92931952D01*
X149064819Y-92903451D01*
X147911819Y-91750451D01*
X147878334Y-91689128D01*
X147875500Y-91662770D01*
X147875500Y-88415638D01*
X147895185Y-88348599D01*
X147934401Y-88310100D01*
X148043656Y-88242712D01*
X148167712Y-88118656D01*
X148234006Y-88011174D01*
X148285951Y-87964452D01*
X148354913Y-87953229D01*
X148418996Y-87981072D01*
X148427224Y-87988592D01*
X149846580Y-89407948D01*
X149846584Y-89407951D01*
X149969498Y-89490080D01*
X149969511Y-89490087D01*
X150106082Y-89546656D01*
X150106087Y-89546658D01*
X150106091Y-89546658D01*
X150106092Y-89546659D01*
X150251079Y-89575500D01*
X150251082Y-89575500D01*
X150398917Y-89575500D01*
X152587770Y-89575500D01*
X152654809Y-89595185D01*
X152675451Y-89611819D01*
X155163181Y-92099548D01*
X155196666Y-92160871D01*
X155199500Y-92187229D01*
X155199500Y-111763918D01*
X155199500Y-111763920D01*
X155199499Y-111763920D01*
X155228340Y-111908907D01*
X155228343Y-111908917D01*
X155284913Y-112045490D01*
X155284914Y-112045491D01*
X155284916Y-112045495D01*
X155291496Y-112055342D01*
X155291497Y-112055345D01*
X155367046Y-112168414D01*
X155367052Y-112168421D01*
X156567931Y-113369298D01*
X156942048Y-113743415D01*
X156942049Y-113743416D01*
X157021115Y-113822482D01*
X157046585Y-113847952D01*
X157169498Y-113930080D01*
X157169511Y-113930087D01*
X157306082Y-113986656D01*
X157306087Y-113986658D01*
X157306091Y-113986658D01*
X157306092Y-113986659D01*
X157451079Y-114015500D01*
X157451082Y-114015500D01*
X157562680Y-114015500D01*
X157629719Y-114035185D01*
X157661948Y-114065191D01*
X157667454Y-114072546D01*
X157667457Y-114072548D01*
X157782664Y-114158793D01*
X157782671Y-114158797D01*
X157917517Y-114209091D01*
X157917516Y-114209091D01*
X157924444Y-114209835D01*
X157977127Y-114215500D01*
X159572872Y-114215499D01*
X159632483Y-114209091D01*
X159767331Y-114158796D01*
X159882546Y-114072546D01*
X159968796Y-113957331D01*
X160019091Y-113822483D01*
X160025500Y-113762873D01*
X160025499Y-112767128D01*
X160019091Y-112707517D01*
X160006340Y-112673332D01*
X160001357Y-112603642D01*
X160006340Y-112586669D01*
X160019091Y-112552483D01*
X160025500Y-112492873D01*
X160025499Y-111599499D01*
X160045183Y-111532461D01*
X160097987Y-111486706D01*
X160149499Y-111475500D01*
X163348920Y-111475500D01*
X163446462Y-111456096D01*
X163493913Y-111446658D01*
X163630495Y-111390084D01*
X163713674Y-111334506D01*
X163753416Y-111307952D01*
X164015299Y-111046067D01*
X164055524Y-111019191D01*
X164079179Y-111009394D01*
X164210289Y-110921789D01*
X164321789Y-110810289D01*
X164409394Y-110679179D01*
X164469737Y-110533497D01*
X164500500Y-110378842D01*
X164500500Y-110221158D01*
X164500500Y-110221155D01*
X164500499Y-110221153D01*
X164479654Y-110116361D01*
X164469737Y-110066503D01*
X164461522Y-110046669D01*
X164409397Y-109920827D01*
X164409390Y-109920814D01*
X164321789Y-109789711D01*
X164321786Y-109789707D01*
X164210292Y-109678213D01*
X164210288Y-109678210D01*
X164079185Y-109590609D01*
X164079172Y-109590602D01*
X163933501Y-109530264D01*
X163933489Y-109530261D01*
X163778845Y-109499500D01*
X163778842Y-109499500D01*
X163621158Y-109499500D01*
X163621155Y-109499500D01*
X163466510Y-109530261D01*
X163466498Y-109530264D01*
X163320827Y-109590602D01*
X163320814Y-109590609D01*
X163189711Y-109678210D01*
X163189707Y-109678213D01*
X163078213Y-109789707D01*
X163078207Y-109789715D01*
X162991562Y-109919390D01*
X162937950Y-109964196D01*
X162888460Y-109974500D01*
X162624500Y-109974500D01*
X162557461Y-109954815D01*
X162511706Y-109902011D01*
X162500500Y-109850500D01*
X162500500Y-109721155D01*
X162500499Y-109721153D01*
X162474531Y-109590606D01*
X162469737Y-109566503D01*
X162467912Y-109562096D01*
X162409397Y-109420827D01*
X162409390Y-109420814D01*
X162321789Y-109289711D01*
X162321786Y-109289707D01*
X162210292Y-109178213D01*
X162210288Y-109178210D01*
X162079182Y-109090607D01*
X162079180Y-109090606D01*
X162055521Y-109080806D01*
X162015295Y-109053927D01*
X161833421Y-108872052D01*
X161833414Y-108872046D01*
X161759729Y-108822812D01*
X161759729Y-108822813D01*
X161710491Y-108789913D01*
X161573917Y-108733343D01*
X161573907Y-108733340D01*
X161428920Y-108704500D01*
X161428918Y-108704500D01*
X160149500Y-108704500D01*
X160082461Y-108684815D01*
X160036706Y-108632011D01*
X160025500Y-108580500D01*
X160025499Y-107687129D01*
X160025498Y-107687123D01*
X160025497Y-107687116D01*
X160019091Y-107627517D01*
X160006340Y-107593332D01*
X160001357Y-107523642D01*
X160006340Y-107506669D01*
X160019091Y-107472483D01*
X160025500Y-107412873D01*
X160025499Y-106417128D01*
X160019091Y-106357517D01*
X160006340Y-106323332D01*
X160001357Y-106253642D01*
X160006340Y-106236669D01*
X160019091Y-106202483D01*
X160025500Y-106142873D01*
X160025499Y-105147128D01*
X160019091Y-105087517D01*
X160006340Y-105053332D01*
X160001357Y-104983642D01*
X160006340Y-104966669D01*
X160019091Y-104932483D01*
X160025500Y-104872873D01*
X160025499Y-103877128D01*
X160019091Y-103817517D01*
X160006340Y-103783332D01*
X160001357Y-103713642D01*
X160006340Y-103696669D01*
X160019091Y-103662483D01*
X160025500Y-103602873D01*
X160025499Y-102607128D01*
X160019091Y-102547517D01*
X160006340Y-102513332D01*
X160001357Y-102443642D01*
X160006340Y-102426669D01*
X160019091Y-102392483D01*
X160025500Y-102332873D01*
X160025499Y-101337128D01*
X160019091Y-101277517D01*
X160006340Y-101243332D01*
X160001357Y-101173642D01*
X160006340Y-101156669D01*
X160019091Y-101122483D01*
X160025500Y-101062873D01*
X160025499Y-100067128D01*
X160019091Y-100007517D01*
X160006340Y-99973332D01*
X160001357Y-99903642D01*
X160006340Y-99886669D01*
X160019091Y-99852483D01*
X160025500Y-99792873D01*
X160025499Y-98797128D01*
X160019091Y-98737517D01*
X160006340Y-98703332D01*
X160001357Y-98633642D01*
X160006340Y-98616669D01*
X160019091Y-98582483D01*
X160025500Y-98522873D01*
X160025499Y-97527128D01*
X160019091Y-97467517D01*
X159968796Y-97332669D01*
X159968795Y-97332668D01*
X159968793Y-97332664D01*
X159882547Y-97217455D01*
X159882544Y-97217452D01*
X159767335Y-97131206D01*
X159767328Y-97131202D01*
X159632482Y-97080908D01*
X159632483Y-97080908D01*
X159572883Y-97074501D01*
X159572881Y-97074500D01*
X159572873Y-97074500D01*
X159572865Y-97074500D01*
X159474500Y-97074500D01*
X159407461Y-97054815D01*
X159361706Y-97002011D01*
X159350500Y-96950500D01*
X159350500Y-95737229D01*
X159370185Y-95670190D01*
X159386819Y-95649548D01*
X159624548Y-95411819D01*
X159685871Y-95378334D01*
X159712229Y-95375500D01*
X160495396Y-95375500D01*
X160542844Y-95384937D01*
X160566503Y-95394737D01*
X160566508Y-95394738D01*
X160566511Y-95394739D01*
X160721153Y-95425499D01*
X160721156Y-95425500D01*
X160721158Y-95425500D01*
X160878843Y-95425500D01*
X160913254Y-95418655D01*
X160944558Y-95412428D01*
X161014149Y-95418655D01*
X161069327Y-95461517D01*
X161092572Y-95527407D01*
X161076505Y-95595404D01*
X161043063Y-95633311D01*
X160997451Y-95667456D01*
X160911206Y-95782664D01*
X160911202Y-95782671D01*
X160860908Y-95917517D01*
X160854501Y-95977116D01*
X160854501Y-95977123D01*
X160854500Y-95977135D01*
X160854500Y-97572870D01*
X160854501Y-97572876D01*
X160860908Y-97632483D01*
X160911202Y-97767328D01*
X160911206Y-97767335D01*
X160997452Y-97882544D01*
X160997455Y-97882547D01*
X161112664Y-97968793D01*
X161112671Y-97968797D01*
X161247517Y-98019091D01*
X161247516Y-98019091D01*
X161254444Y-98019835D01*
X161307127Y-98025500D01*
X162302872Y-98025499D01*
X162362483Y-98019091D01*
X162396667Y-98006340D01*
X162466358Y-98001357D01*
X162483327Y-98006338D01*
X162517517Y-98019091D01*
X162577127Y-98025500D01*
X163572872Y-98025499D01*
X163632483Y-98019091D01*
X163666667Y-98006340D01*
X163736358Y-98001357D01*
X163753327Y-98006338D01*
X163787517Y-98019091D01*
X163847127Y-98025500D01*
X164842872Y-98025499D01*
X164902483Y-98019091D01*
X164936667Y-98006340D01*
X165006358Y-98001357D01*
X165023327Y-98006338D01*
X165057517Y-98019091D01*
X165117127Y-98025500D01*
X166112872Y-98025499D01*
X166172483Y-98019091D01*
X166206667Y-98006340D01*
X166276358Y-98001357D01*
X166293327Y-98006338D01*
X166327517Y-98019091D01*
X166387127Y-98025500D01*
X167382872Y-98025499D01*
X167442483Y-98019091D01*
X167476667Y-98006340D01*
X167546358Y-98001357D01*
X167563327Y-98006338D01*
X167597517Y-98019091D01*
X167657127Y-98025500D01*
X168652872Y-98025499D01*
X168712483Y-98019091D01*
X168746667Y-98006340D01*
X168816358Y-98001357D01*
X168833327Y-98006338D01*
X168867517Y-98019091D01*
X168927127Y-98025500D01*
X169922872Y-98025499D01*
X169982483Y-98019091D01*
X170016667Y-98006340D01*
X170086358Y-98001357D01*
X170103327Y-98006338D01*
X170137517Y-98019091D01*
X170197127Y-98025500D01*
X171192872Y-98025499D01*
X171252483Y-98019091D01*
X171286667Y-98006340D01*
X171356358Y-98001357D01*
X171373327Y-98006338D01*
X171407517Y-98019091D01*
X171467127Y-98025500D01*
X172462872Y-98025499D01*
X172522483Y-98019091D01*
X172657331Y-97968796D01*
X172772546Y-97882546D01*
X172858796Y-97767331D01*
X172909091Y-97632483D01*
X172915500Y-97572873D01*
X172915499Y-95977128D01*
X172909091Y-95917517D01*
X172905523Y-95907952D01*
X172858797Y-95782671D01*
X172858793Y-95782664D01*
X172786330Y-95685867D01*
X172772546Y-95667454D01*
X172772544Y-95667452D01*
X172772541Y-95667449D01*
X172761406Y-95659114D01*
X172719534Y-95603181D01*
X172714099Y-95584038D01*
X172686659Y-95446094D01*
X172686658Y-95446087D01*
X172663137Y-95389302D01*
X172630087Y-95309511D01*
X172630080Y-95309498D01*
X172547952Y-95186585D01*
X172496655Y-95135288D01*
X172443416Y-95082049D01*
X170161819Y-92800451D01*
X170128334Y-92739128D01*
X170125500Y-92712770D01*
X170125500Y-67411230D01*
X170145185Y-67344191D01*
X170197989Y-67298436D01*
X170267147Y-67288492D01*
X170330703Y-67317517D01*
X170337181Y-67323549D01*
X170688181Y-67674549D01*
X170721666Y-67735872D01*
X170724500Y-67762230D01*
X170724500Y-92748918D01*
X170724500Y-92748920D01*
X170724499Y-92748920D01*
X170753340Y-92893907D01*
X170753343Y-92893917D01*
X170809913Y-93030490D01*
X170809916Y-93030495D01*
X170830076Y-93060668D01*
X170830077Y-93060668D01*
X170837169Y-93071282D01*
X170892048Y-93153416D01*
X173646584Y-95907952D01*
X173675548Y-95927305D01*
X173704508Y-95946655D01*
X173704510Y-95946656D01*
X173704513Y-95946658D01*
X173769505Y-95990084D01*
X173906087Y-96046658D01*
X173906091Y-96046658D01*
X173906092Y-96046659D01*
X174051079Y-96075500D01*
X174051082Y-96075500D01*
X174051083Y-96075500D01*
X174198917Y-96075500D01*
X175387769Y-96075500D01*
X175417200Y-96084142D01*
X175447192Y-96090665D01*
X175452212Y-96094422D01*
X175454808Y-96095185D01*
X175475447Y-96111815D01*
X175488178Y-96124545D01*
X175521665Y-96185867D01*
X175524500Y-96212230D01*
X175524500Y-96958023D01*
X175504815Y-97025062D01*
X175452011Y-97070817D01*
X175424865Y-97078266D01*
X175425068Y-97079124D01*
X175417520Y-97080907D01*
X175282671Y-97131202D01*
X175282664Y-97131206D01*
X175167455Y-97217452D01*
X175167452Y-97217455D01*
X175081206Y-97332664D01*
X175081202Y-97332671D01*
X175030908Y-97467517D01*
X175027470Y-97499500D01*
X175024501Y-97527123D01*
X175024500Y-97527135D01*
X175024500Y-98522870D01*
X175024501Y-98522876D01*
X175030908Y-98582481D01*
X175043659Y-98616669D01*
X175048642Y-98686361D01*
X175043659Y-98703331D01*
X175030908Y-98737518D01*
X175024501Y-98797116D01*
X175024501Y-98797123D01*
X175024500Y-98797135D01*
X175024500Y-99792870D01*
X175024501Y-99792876D01*
X175030908Y-99852481D01*
X175043659Y-99886669D01*
X175048642Y-99956361D01*
X175043659Y-99973331D01*
X175030908Y-100007518D01*
X175030095Y-100015084D01*
X175024501Y-100067123D01*
X175024500Y-100067135D01*
X175024500Y-101062870D01*
X175024501Y-101062876D01*
X175030908Y-101122481D01*
X175043659Y-101156669D01*
X175048642Y-101226361D01*
X175043659Y-101243331D01*
X175030908Y-101277518D01*
X175024501Y-101337116D01*
X175024501Y-101337123D01*
X175024500Y-101337135D01*
X175024500Y-102332870D01*
X175024501Y-102332876D01*
X175030908Y-102392481D01*
X175043659Y-102426669D01*
X175048642Y-102496361D01*
X175043659Y-102513331D01*
X175030908Y-102547518D01*
X175024501Y-102607116D01*
X175024501Y-102607123D01*
X175024500Y-102607135D01*
X175024500Y-103602870D01*
X175024501Y-103602876D01*
X175030908Y-103662481D01*
X175043659Y-103696669D01*
X175048642Y-103766361D01*
X175043659Y-103783331D01*
X175030908Y-103817518D01*
X175024501Y-103877116D01*
X175024501Y-103877123D01*
X175024500Y-103877135D01*
X175024500Y-104872870D01*
X175024501Y-104872876D01*
X175030908Y-104932481D01*
X175043659Y-104966669D01*
X175048642Y-105036361D01*
X175043659Y-105053331D01*
X175030908Y-105087518D01*
X175026825Y-105125500D01*
X175024501Y-105147123D01*
X175024500Y-105147135D01*
X175024500Y-105553770D01*
X175004815Y-105620809D01*
X174952011Y-105666564D01*
X174882853Y-105676508D01*
X174819297Y-105647483D01*
X174812819Y-105641451D01*
X170113421Y-100942052D01*
X170113420Y-100942051D01*
X170055289Y-100903210D01*
X170027289Y-100884501D01*
X170027288Y-100884500D01*
X169990500Y-100859919D01*
X169990488Y-100859912D01*
X169853917Y-100803343D01*
X169853907Y-100803340D01*
X169708920Y-100774500D01*
X169708918Y-100774500D01*
X169404604Y-100774500D01*
X169357155Y-100765062D01*
X169333497Y-100755263D01*
X169333493Y-100755262D01*
X169333488Y-100755260D01*
X169178845Y-100724500D01*
X169178842Y-100724500D01*
X169021158Y-100724500D01*
X169021155Y-100724500D01*
X168866510Y-100755261D01*
X168866498Y-100755264D01*
X168720827Y-100815602D01*
X168720814Y-100815609D01*
X168589711Y-100903210D01*
X168589707Y-100903213D01*
X168478213Y-101014707D01*
X168478210Y-101014711D01*
X168390609Y-101145814D01*
X168390602Y-101145827D01*
X168330264Y-101291498D01*
X168330261Y-101291510D01*
X168299500Y-101446153D01*
X168299500Y-101603846D01*
X168330261Y-101758489D01*
X168330264Y-101758501D01*
X168390602Y-101904172D01*
X168390609Y-101904185D01*
X168478210Y-102035288D01*
X168478213Y-102035292D01*
X168589707Y-102146786D01*
X168589711Y-102146789D01*
X168720814Y-102234390D01*
X168720827Y-102234397D01*
X168859521Y-102291845D01*
X168866503Y-102294737D01*
X169021153Y-102325499D01*
X169021156Y-102325500D01*
X169021158Y-102325500D01*
X169178843Y-102325500D01*
X169193526Y-102322579D01*
X169276726Y-102306029D01*
X169284631Y-102306736D01*
X169292070Y-102303962D01*
X169318934Y-102309806D01*
X169346315Y-102312256D01*
X169354324Y-102317504D01*
X169360343Y-102318814D01*
X169388597Y-102339965D01*
X169536451Y-102487819D01*
X169569936Y-102549142D01*
X169564952Y-102618834D01*
X169523080Y-102674767D01*
X169457616Y-102699184D01*
X169448770Y-102699500D01*
X168929604Y-102699500D01*
X168882155Y-102690062D01*
X168858497Y-102680263D01*
X168858493Y-102680262D01*
X168858488Y-102680260D01*
X168703845Y-102649500D01*
X168703842Y-102649500D01*
X168546158Y-102649500D01*
X168546155Y-102649500D01*
X168391510Y-102680261D01*
X168391498Y-102680264D01*
X168245827Y-102740602D01*
X168245814Y-102740609D01*
X168114711Y-102828210D01*
X168114707Y-102828213D01*
X168003213Y-102939707D01*
X168003210Y-102939711D01*
X167915609Y-103070814D01*
X167915602Y-103070827D01*
X167855264Y-103216498D01*
X167855261Y-103216510D01*
X167824500Y-103371153D01*
X167824500Y-103528846D01*
X167855261Y-103683489D01*
X167855264Y-103683501D01*
X167915602Y-103829172D01*
X167915609Y-103829185D01*
X168003210Y-103960288D01*
X168003213Y-103960292D01*
X168114707Y-104071786D01*
X168114711Y-104071789D01*
X168245814Y-104159390D01*
X168245827Y-104159397D01*
X168342646Y-104199500D01*
X168391503Y-104219737D01*
X168546153Y-104250499D01*
X168546156Y-104250500D01*
X168546158Y-104250500D01*
X168703844Y-104250500D01*
X168703845Y-104250499D01*
X168805590Y-104230261D01*
X168858488Y-104219739D01*
X168858489Y-104219738D01*
X168858497Y-104219737D01*
X168882155Y-104209937D01*
X168929604Y-104200500D01*
X169737770Y-104200500D01*
X169804809Y-104220185D01*
X169825451Y-104236819D01*
X174252049Y-108663416D01*
X174321973Y-108733340D01*
X174356585Y-108767952D01*
X174479498Y-108850080D01*
X174479511Y-108850087D01*
X174594021Y-108897518D01*
X174616087Y-108906658D01*
X174616091Y-108906658D01*
X174616092Y-108906659D01*
X174761079Y-108935500D01*
X174761082Y-108935500D01*
X174900500Y-108935500D01*
X174967539Y-108955185D01*
X175013294Y-109007989D01*
X175024500Y-109059500D01*
X175024500Y-109952870D01*
X175024501Y-109952876D01*
X175030908Y-110012481D01*
X175043659Y-110046669D01*
X175048642Y-110116361D01*
X175043659Y-110133331D01*
X175030908Y-110167518D01*
X175024501Y-110227116D01*
X175024500Y-110227132D01*
X175024500Y-111222870D01*
X175024501Y-111222876D01*
X175030908Y-111282481D01*
X175043659Y-111316669D01*
X175048642Y-111386361D01*
X175043659Y-111403331D01*
X175030908Y-111437518D01*
X175024501Y-111497116D01*
X175024500Y-111497135D01*
X175024500Y-112492870D01*
X175024501Y-112492876D01*
X175030908Y-112552481D01*
X175043659Y-112586669D01*
X175048642Y-112656361D01*
X175043659Y-112673331D01*
X175030908Y-112707518D01*
X175024501Y-112767116D01*
X175024501Y-112767123D01*
X175024500Y-112767135D01*
X175024500Y-113762870D01*
X175024501Y-113762876D01*
X175030908Y-113822483D01*
X175081202Y-113957328D01*
X175081206Y-113957335D01*
X175167452Y-114072544D01*
X175167455Y-114072547D01*
X175282664Y-114158793D01*
X175282671Y-114158797D01*
X175417517Y-114209091D01*
X175417516Y-114209091D01*
X175424444Y-114209835D01*
X175477127Y-114215500D01*
X177072872Y-114215499D01*
X177132483Y-114209091D01*
X177267331Y-114158796D01*
X177382546Y-114072546D01*
X177395259Y-114055563D01*
X177451189Y-114013692D01*
X177470335Y-114008256D01*
X177578913Y-113986658D01*
X177715495Y-113930084D01*
X177764729Y-113897186D01*
X177838416Y-113847952D01*
X178857951Y-112828416D01*
X178940084Y-112705495D01*
X178943274Y-112697795D01*
X178982273Y-112603642D01*
X178996658Y-112568913D01*
X179011784Y-112492870D01*
X179025500Y-112423920D01*
X179025500Y-112027763D01*
X179045185Y-111960724D01*
X179097989Y-111914969D01*
X179167147Y-111905025D01*
X179230703Y-111934050D01*
X179261220Y-111973961D01*
X179394432Y-112250579D01*
X179407297Y-112271053D01*
X179585685Y-112554956D01*
X179707348Y-112707517D01*
X179803761Y-112828416D01*
X179809812Y-112836003D01*
X180063997Y-113090188D01*
X180345044Y-113314315D01*
X180649418Y-113505566D01*
X180973292Y-113661536D01*
X181207289Y-113743415D01*
X181312580Y-113780258D01*
X181312592Y-113780262D01*
X181663052Y-113860252D01*
X182020260Y-113900499D01*
X182020261Y-113900500D01*
X182020264Y-113900500D01*
X182379739Y-113900500D01*
X182379739Y-113900499D01*
X182736948Y-113860252D01*
X183087408Y-113780262D01*
X183426708Y-113661536D01*
X183750582Y-113505566D01*
X184054956Y-113314315D01*
X184336003Y-113090188D01*
X184590188Y-112836003D01*
X184814315Y-112554956D01*
X184963617Y-112317342D01*
X185015951Y-112271053D01*
X185085004Y-112260404D01*
X185148852Y-112288780D01*
X185187225Y-112347169D01*
X185192610Y-112383316D01*
X185192610Y-115961000D01*
X185172925Y-116028039D01*
X185120121Y-116073794D01*
X185068610Y-116085000D01*
X177207073Y-116085000D01*
X177140034Y-116065315D01*
X177094279Y-116012511D01*
X177087300Y-115993101D01*
X177077923Y-115958104D01*
X177020998Y-115859506D01*
X176940494Y-115779002D01*
X176841896Y-115722077D01*
X176841897Y-115722077D01*
X176814403Y-115714710D01*
X176731925Y-115692610D01*
X158431925Y-115692610D01*
X158318075Y-115692610D01*
X158235596Y-115714710D01*
X158208103Y-115722077D01*
X158109507Y-115779001D01*
X158109504Y-115779003D01*
X158029003Y-115859504D01*
X158029001Y-115859507D01*
X157972077Y-115958103D01*
X157972077Y-115958104D01*
X157962700Y-115993095D01*
X157926337Y-116052754D01*
X157863490Y-116083283D01*
X157842927Y-116085000D01*
X143525000Y-116085000D01*
X143525000Y-121588610D01*
X143505315Y-121655649D01*
X143452511Y-121701404D01*
X143401000Y-121712610D01*
X132724000Y-121712610D01*
X132656961Y-121692925D01*
X132611206Y-121640121D01*
X132600000Y-121588610D01*
X132600000Y-113091966D01*
X134374500Y-113091966D01*
X134374500Y-114208028D01*
X134374500Y-114208033D01*
X134374501Y-114208036D01*
X134375165Y-114215500D01*
X134385113Y-114327415D01*
X134441089Y-114523045D01*
X134441090Y-114523048D01*
X134441091Y-114523049D01*
X134535302Y-114703407D01*
X134535304Y-114703409D01*
X134663890Y-114861109D01*
X134757803Y-114937684D01*
X134821593Y-114989698D01*
X135001951Y-115083909D01*
X135197582Y-115139886D01*
X135316963Y-115150500D01*
X136433036Y-115150499D01*
X136552418Y-115139886D01*
X136748049Y-115083909D01*
X136928407Y-114989698D01*
X137086109Y-114861109D01*
X137214698Y-114703407D01*
X137308909Y-114523049D01*
X137364886Y-114327418D01*
X137375500Y-114208037D01*
X137375499Y-113091964D01*
X137364886Y-112972582D01*
X137308909Y-112776951D01*
X137214698Y-112596593D01*
X137130123Y-112492870D01*
X137086109Y-112438890D01*
X136928409Y-112310304D01*
X136928410Y-112310304D01*
X136928407Y-112310302D01*
X136748049Y-112216091D01*
X136748048Y-112216090D01*
X136748045Y-112216089D01*
X136630829Y-112182550D01*
X136552418Y-112160114D01*
X136552415Y-112160113D01*
X136552413Y-112160113D01*
X136486102Y-112154217D01*
X136433037Y-112149500D01*
X136433032Y-112149500D01*
X135316971Y-112149500D01*
X135316965Y-112149500D01*
X135316964Y-112149501D01*
X135305316Y-112150536D01*
X135197584Y-112160113D01*
X135001954Y-112216089D01*
X134935927Y-112250579D01*
X134821593Y-112310302D01*
X134821591Y-112310303D01*
X134821590Y-112310304D01*
X134663890Y-112438890D01*
X134536586Y-112595018D01*
X134535302Y-112596593D01*
X134495216Y-112673334D01*
X134441089Y-112776954D01*
X134385114Y-112972583D01*
X134385113Y-112972586D01*
X134374500Y-113091966D01*
X132600000Y-113091966D01*
X132600000Y-111394983D01*
X144024500Y-111394983D01*
X144024500Y-112595001D01*
X144024501Y-112595018D01*
X144035000Y-112697796D01*
X144035001Y-112697799D01*
X144078284Y-112828416D01*
X144090186Y-112864334D01*
X144182288Y-113013656D01*
X144306344Y-113137712D01*
X144455666Y-113229814D01*
X144622203Y-113284999D01*
X144724991Y-113295500D01*
X145925008Y-113295499D01*
X146027797Y-113284999D01*
X146194334Y-113229814D01*
X146343656Y-113137712D01*
X146467712Y-113013656D01*
X146559814Y-112864334D01*
X146614999Y-112697797D01*
X146625500Y-112595009D01*
X146625499Y-111394992D01*
X146614999Y-111292203D01*
X146559814Y-111125666D01*
X146467712Y-110976344D01*
X146343656Y-110852288D01*
X146194334Y-110760186D01*
X146027797Y-110705001D01*
X146027795Y-110705000D01*
X145925010Y-110694500D01*
X144724998Y-110694500D01*
X144724981Y-110694501D01*
X144622203Y-110705000D01*
X144622200Y-110705001D01*
X144455668Y-110760185D01*
X144455663Y-110760187D01*
X144306342Y-110852289D01*
X144182289Y-110976342D01*
X144090187Y-111125663D01*
X144090186Y-111125666D01*
X144035001Y-111292203D01*
X144035001Y-111292204D01*
X144035000Y-111292204D01*
X144024500Y-111394983D01*
X132600000Y-111394983D01*
X132600000Y-107649983D01*
X147849500Y-107649983D01*
X147849500Y-108650001D01*
X147849501Y-108650019D01*
X147860000Y-108752796D01*
X147860001Y-108752799D01*
X147907957Y-108897518D01*
X147915186Y-108919334D01*
X148007288Y-109068656D01*
X148131344Y-109192712D01*
X148280666Y-109284814D01*
X148447203Y-109339999D01*
X148549991Y-109350500D01*
X149175008Y-109350499D01*
X149175016Y-109350498D01*
X149175019Y-109350498D01*
X149231302Y-109344748D01*
X149277797Y-109339999D01*
X149444334Y-109284814D01*
X149593656Y-109192712D01*
X149687319Y-109099049D01*
X149748642Y-109065564D01*
X149818334Y-109070548D01*
X149862681Y-109099049D01*
X149956344Y-109192712D01*
X150105666Y-109284814D01*
X150133755Y-109294121D01*
X150191199Y-109333893D01*
X150218023Y-109398408D01*
X150205708Y-109467184D01*
X150158166Y-109518385D01*
X150148553Y-109523547D01*
X149831311Y-109676323D01*
X149526936Y-109867575D01*
X149245888Y-110091702D01*
X148991702Y-110345888D01*
X148767575Y-110626936D01*
X148576323Y-110931311D01*
X148420356Y-111255179D01*
X148301632Y-111594471D01*
X148301628Y-111594483D01*
X148221639Y-111944939D01*
X148221637Y-111944955D01*
X148181391Y-112302150D01*
X148181391Y-112661631D01*
X148221637Y-113018826D01*
X148221639Y-113018842D01*
X148301628Y-113369298D01*
X148301632Y-113369310D01*
X148420356Y-113708602D01*
X148576323Y-114032470D01*
X148601505Y-114072547D01*
X148767576Y-114336847D01*
X148991703Y-114617894D01*
X149245888Y-114872079D01*
X149526935Y-115096206D01*
X149831309Y-115287457D01*
X150155183Y-115443427D01*
X150410010Y-115532594D01*
X150494471Y-115562149D01*
X150494483Y-115562153D01*
X150844943Y-115642143D01*
X151202151Y-115682390D01*
X151202152Y-115682391D01*
X151202155Y-115682391D01*
X151561630Y-115682391D01*
X151561630Y-115682390D01*
X151918839Y-115642143D01*
X152269299Y-115562153D01*
X152608599Y-115443427D01*
X152932473Y-115287457D01*
X153236847Y-115096206D01*
X153517894Y-114872079D01*
X153772079Y-114617894D01*
X153996206Y-114336847D01*
X154187457Y-114032473D01*
X154343427Y-113708599D01*
X154462153Y-113369299D01*
X154542143Y-113018839D01*
X154582391Y-112661627D01*
X154582391Y-112302155D01*
X154542143Y-111944943D01*
X154462153Y-111594483D01*
X154459677Y-111587408D01*
X154432594Y-111510010D01*
X154343427Y-111255183D01*
X154187457Y-110931309D01*
X153996206Y-110626935D01*
X153772079Y-110345888D01*
X153517894Y-110091703D01*
X153236847Y-109867576D01*
X153003824Y-109721158D01*
X152932467Y-109676321D01*
X152866287Y-109644451D01*
X152814427Y-109597629D01*
X152796114Y-109530202D01*
X152817162Y-109463578D01*
X152870888Y-109418909D01*
X152872636Y-109418170D01*
X152954173Y-109384397D01*
X152954176Y-109384395D01*
X152954179Y-109384394D01*
X153085289Y-109296789D01*
X153196789Y-109185289D01*
X153284394Y-109054179D01*
X153344737Y-108908497D01*
X153375500Y-108753842D01*
X153375500Y-108596158D01*
X153375500Y-108596155D01*
X153375499Y-108596153D01*
X153344738Y-108441510D01*
X153344737Y-108441503D01*
X153344735Y-108441498D01*
X153284397Y-108295827D01*
X153284390Y-108295814D01*
X153196789Y-108164711D01*
X153196786Y-108164707D01*
X153085292Y-108053213D01*
X153085284Y-108053207D01*
X152954181Y-107965607D01*
X152954179Y-107965606D01*
X152930521Y-107955806D01*
X152890295Y-107928927D01*
X152528421Y-107567052D01*
X152528414Y-107567046D01*
X152454729Y-107517812D01*
X152454729Y-107517813D01*
X152405491Y-107484913D01*
X152268917Y-107428343D01*
X152268907Y-107428340D01*
X152123920Y-107399500D01*
X152123918Y-107399500D01*
X151715638Y-107399500D01*
X151648599Y-107379815D01*
X151610099Y-107340597D01*
X151542712Y-107231344D01*
X151418656Y-107107288D01*
X151269334Y-107015186D01*
X151102797Y-106960001D01*
X151102795Y-106960000D01*
X151000016Y-106949500D01*
X150782148Y-106949500D01*
X150715109Y-106929815D01*
X150669354Y-106877011D01*
X150659410Y-106807853D01*
X150688435Y-106744297D01*
X150717050Y-106719962D01*
X150793656Y-106672712D01*
X150917712Y-106548656D01*
X151009814Y-106399334D01*
X151064999Y-106232797D01*
X151075500Y-106130009D01*
X151075499Y-104929992D01*
X151064999Y-104827203D01*
X151009814Y-104660666D01*
X150917712Y-104511344D01*
X150793656Y-104387288D01*
X150644334Y-104295186D01*
X150477797Y-104240001D01*
X150477795Y-104240000D01*
X150375010Y-104229500D01*
X149174998Y-104229500D01*
X149174981Y-104229501D01*
X149072203Y-104240000D01*
X149072200Y-104240001D01*
X148905668Y-104295185D01*
X148905663Y-104295187D01*
X148756342Y-104387289D01*
X148632289Y-104511342D01*
X148540187Y-104660663D01*
X148540185Y-104660668D01*
X148516103Y-104733343D01*
X148485001Y-104827203D01*
X148485001Y-104827204D01*
X148485000Y-104827204D01*
X148474500Y-104929983D01*
X148474500Y-105717769D01*
X148454815Y-105784808D01*
X148438185Y-105805445D01*
X148279548Y-105964084D01*
X148279547Y-105964085D01*
X148230312Y-106037771D01*
X148197421Y-106086996D01*
X148197414Y-106087008D01*
X148140842Y-106223586D01*
X148140840Y-106223592D01*
X148112000Y-106368579D01*
X148112000Y-107075270D01*
X148092315Y-107142309D01*
X148075681Y-107162951D01*
X148007289Y-107231342D01*
X147915187Y-107380663D01*
X147915185Y-107380668D01*
X147904510Y-107412883D01*
X147860001Y-107547203D01*
X147860001Y-107547204D01*
X147860000Y-107547204D01*
X147849500Y-107649983D01*
X132600000Y-107649983D01*
X132600000Y-100224500D01*
X132619685Y-100157461D01*
X132672489Y-100111706D01*
X132724000Y-100100500D01*
X142812770Y-100100500D01*
X142879809Y-100120185D01*
X142900451Y-100136819D01*
X143866427Y-101102795D01*
X143893307Y-101143023D01*
X143903104Y-101166675D01*
X143903109Y-101166685D01*
X143990710Y-101297788D01*
X143990713Y-101297792D01*
X144102207Y-101409286D01*
X144102211Y-101409289D01*
X144233314Y-101496890D01*
X144233327Y-101496897D01*
X144378998Y-101557235D01*
X144379003Y-101557237D01*
X144533653Y-101587999D01*
X144533656Y-101588000D01*
X144533658Y-101588000D01*
X144691344Y-101588000D01*
X144691345Y-101587999D01*
X144845997Y-101557237D01*
X144991679Y-101496894D01*
X145122789Y-101409289D01*
X145234289Y-101297789D01*
X145321894Y-101166679D01*
X145326042Y-101156666D01*
X145364890Y-101062876D01*
X145382237Y-101020997D01*
X145413000Y-100866342D01*
X145413000Y-100708658D01*
X145413000Y-100708655D01*
X145412999Y-100708653D01*
X145382238Y-100554010D01*
X145382237Y-100554003D01*
X145382235Y-100553998D01*
X145321897Y-100408327D01*
X145321890Y-100408314D01*
X145234289Y-100277211D01*
X145234286Y-100277207D01*
X145122792Y-100165713D01*
X145122788Y-100165710D01*
X144991685Y-100078109D01*
X144991675Y-100078104D01*
X144968023Y-100068307D01*
X144927795Y-100041427D01*
X144148549Y-99262181D01*
X144115064Y-99200858D01*
X144120048Y-99131166D01*
X144161920Y-99075233D01*
X144227384Y-99050816D01*
X144236230Y-99050500D01*
X144645396Y-99050500D01*
X144692844Y-99059937D01*
X144716503Y-99069737D01*
X144716508Y-99069738D01*
X144716511Y-99069739D01*
X144871153Y-99100499D01*
X144871156Y-99100500D01*
X144871158Y-99100500D01*
X145028844Y-99100500D01*
X145028845Y-99100499D01*
X145183497Y-99069737D01*
X145329179Y-99009394D01*
X145460289Y-98921789D01*
X145571789Y-98810289D01*
X145659394Y-98679179D01*
X145719737Y-98533497D01*
X145750500Y-98378842D01*
X145750500Y-98221158D01*
X145750500Y-98221155D01*
X145750499Y-98221153D01*
X145719738Y-98066510D01*
X145719737Y-98066503D01*
X145702752Y-98025498D01*
X145659397Y-97920827D01*
X145659390Y-97920814D01*
X145571789Y-97789711D01*
X145571786Y-97789707D01*
X145460292Y-97678213D01*
X145460288Y-97678210D01*
X145329185Y-97590609D01*
X145329172Y-97590602D01*
X145183501Y-97530264D01*
X145183489Y-97530261D01*
X145028845Y-97499500D01*
X145028842Y-97499500D01*
X144871158Y-97499500D01*
X144871155Y-97499500D01*
X144716511Y-97530260D01*
X144716506Y-97530262D01*
X144716504Y-97530262D01*
X144716503Y-97530263D01*
X144692844Y-97540062D01*
X144645396Y-97549500D01*
X132724000Y-97549500D01*
X132656961Y-97529815D01*
X132611206Y-97477011D01*
X132600000Y-97425500D01*
X132600000Y-50831390D01*
X132619685Y-50764351D01*
X132672489Y-50718596D01*
X132724000Y-50707390D01*
X161130319Y-50707390D01*
X161197358Y-50727075D01*
G37*
%TD.AperFunction*%
%TA.AperFunction,Conductor*%
G36*
X172430703Y-67917516D02*
G01*
X172437181Y-67923548D01*
X172917049Y-68403416D01*
X173021584Y-68507951D01*
X173021587Y-68507953D01*
X173021588Y-68507954D01*
X173144503Y-68590083D01*
X173144506Y-68590085D01*
X173194665Y-68610861D01*
X173201080Y-68613518D01*
X173281088Y-68646659D01*
X173397241Y-68669763D01*
X173420380Y-68674365D01*
X173426081Y-68675500D01*
X173426082Y-68675500D01*
X173426083Y-68675500D01*
X173573918Y-68675500D01*
X181737770Y-68675500D01*
X181804809Y-68695185D01*
X181825451Y-68711819D01*
X182388181Y-69274548D01*
X182421666Y-69335871D01*
X182424500Y-69362229D01*
X182424500Y-80012770D01*
X182404815Y-80079809D01*
X182388181Y-80100451D01*
X181991468Y-80497163D01*
X181930145Y-80530648D01*
X181860453Y-80525664D01*
X181804520Y-80483792D01*
X181803469Y-80482367D01*
X181780107Y-80450211D01*
X181629786Y-80299890D01*
X181457820Y-80174951D01*
X181268414Y-80078444D01*
X181268413Y-80078443D01*
X181268412Y-80078443D01*
X181066243Y-80012754D01*
X181066241Y-80012753D01*
X181066240Y-80012753D01*
X180902806Y-79986868D01*
X180856287Y-79979500D01*
X180643713Y-79979500D01*
X180597194Y-79986868D01*
X180433760Y-80012753D01*
X180231585Y-80078444D01*
X180042179Y-80174951D01*
X179870213Y-80299890D01*
X179719890Y-80450213D01*
X179594951Y-80622179D01*
X179498444Y-80811585D01*
X179432753Y-81013760D01*
X179399500Y-81223713D01*
X179399500Y-81436292D01*
X179414616Y-81531728D01*
X179405662Y-81601021D01*
X179379824Y-81638807D01*
X178817052Y-82201578D01*
X178817051Y-82201579D01*
X178809692Y-82212593D01*
X178787775Y-82245396D01*
X178771666Y-82269505D01*
X178771665Y-82269506D01*
X178734914Y-82324507D01*
X178678343Y-82461082D01*
X178678340Y-82461092D01*
X178649500Y-82606079D01*
X178649500Y-83820396D01*
X178640062Y-83867844D01*
X178630263Y-83891503D01*
X178630262Y-83891506D01*
X178630260Y-83891511D01*
X178599500Y-84046153D01*
X178599500Y-84203846D01*
X178630261Y-84358489D01*
X178630264Y-84358501D01*
X178690602Y-84504172D01*
X178690609Y-84504185D01*
X178778210Y-84635288D01*
X178778213Y-84635292D01*
X178889707Y-84746786D01*
X178889711Y-84746789D01*
X179020814Y-84834390D01*
X179020827Y-84834397D01*
X179166498Y-84894735D01*
X179166503Y-84894737D01*
X179321153Y-84925499D01*
X179321156Y-84925500D01*
X179321158Y-84925500D01*
X179478844Y-84925500D01*
X179478845Y-84925499D01*
X179633497Y-84894737D01*
X179779179Y-84834394D01*
X179910289Y-84746789D01*
X180021789Y-84635289D01*
X180109394Y-84504179D01*
X180169737Y-84358497D01*
X180200500Y-84203842D01*
X180200500Y-84046158D01*
X180200500Y-84046155D01*
X180200499Y-84046153D01*
X180169739Y-83891511D01*
X180169738Y-83891508D01*
X180169737Y-83891503D01*
X180159937Y-83867844D01*
X180150500Y-83820396D01*
X180150500Y-83042228D01*
X180170185Y-82975189D01*
X180186815Y-82954551D01*
X180441193Y-82700172D01*
X180502514Y-82666689D01*
X180548265Y-82665382D01*
X180643713Y-82680500D01*
X180643715Y-82680500D01*
X180856286Y-82680500D01*
X180856287Y-82680500D01*
X181066243Y-82647246D01*
X181268412Y-82581557D01*
X181457816Y-82485051D01*
X181514854Y-82443611D01*
X181629786Y-82360109D01*
X181629788Y-82360106D01*
X181629792Y-82360104D01*
X181780104Y-82209792D01*
X181780107Y-82209788D01*
X181836903Y-82131615D01*
X181892233Y-82088949D01*
X181937221Y-82080500D01*
X182293920Y-82080500D01*
X182391462Y-82061096D01*
X182438913Y-82051658D01*
X182575495Y-81995084D01*
X182628128Y-81959916D01*
X182628128Y-81959915D01*
X182628130Y-81959915D01*
X182663272Y-81936434D01*
X182698416Y-81912952D01*
X183262819Y-81348549D01*
X183324142Y-81315064D01*
X183393833Y-81320048D01*
X183449767Y-81361919D01*
X183474184Y-81427384D01*
X183474500Y-81436230D01*
X183474500Y-87427006D01*
X183454815Y-87494045D01*
X183402011Y-87539800D01*
X183332853Y-87549744D01*
X183331102Y-87549479D01*
X183268097Y-87539500D01*
X183268092Y-87539500D01*
X183031908Y-87539500D01*
X183031903Y-87539500D01*
X182798631Y-87576446D01*
X182574003Y-87649433D01*
X182363566Y-87756657D01*
X182254550Y-87835862D01*
X182172490Y-87895483D01*
X182172488Y-87895485D01*
X182172487Y-87895485D01*
X182005485Y-88062487D01*
X182005485Y-88062488D01*
X182005483Y-88062490D01*
X181877687Y-88238386D01*
X181822357Y-88281051D01*
X181777369Y-88289500D01*
X178022631Y-88289500D01*
X177955592Y-88269815D01*
X177922313Y-88238386D01*
X177794517Y-88062490D01*
X177627510Y-87895483D01*
X177436433Y-87756657D01*
X177225996Y-87649433D01*
X177001368Y-87576446D01*
X176768097Y-87539500D01*
X176768092Y-87539500D01*
X176531908Y-87539500D01*
X176531903Y-87539500D01*
X176298631Y-87576446D01*
X176074003Y-87649433D01*
X175863566Y-87756657D01*
X175754550Y-87835862D01*
X175672490Y-87895483D01*
X175672488Y-87895485D01*
X175672487Y-87895485D01*
X175505485Y-88062487D01*
X175505485Y-88062488D01*
X175505483Y-88062490D01*
X175472709Y-88107600D01*
X175366657Y-88253566D01*
X175259433Y-88464003D01*
X175186446Y-88688631D01*
X175149500Y-88921902D01*
X175149500Y-89158097D01*
X175186446Y-89391368D01*
X175259433Y-89615996D01*
X175348348Y-89790500D01*
X175366657Y-89826433D01*
X175505483Y-90017510D01*
X175672490Y-90184517D01*
X175863567Y-90323343D01*
X175962991Y-90374002D01*
X176074003Y-90430566D01*
X176074005Y-90430566D01*
X176074008Y-90430568D01*
X176194412Y-90469689D01*
X176298631Y-90503553D01*
X176531903Y-90540500D01*
X176531908Y-90540500D01*
X176768097Y-90540500D01*
X177001368Y-90503553D01*
X177225992Y-90430568D01*
X177436433Y-90323343D01*
X177627510Y-90184517D01*
X177794517Y-90017510D01*
X177922313Y-89841613D01*
X177977643Y-89798949D01*
X178022631Y-89790500D01*
X181777369Y-89790500D01*
X181844408Y-89810185D01*
X181877685Y-89841613D01*
X182005483Y-90017510D01*
X182172490Y-90184517D01*
X182363567Y-90323343D01*
X182462991Y-90374002D01*
X182574003Y-90430566D01*
X182574005Y-90430566D01*
X182574008Y-90430568D01*
X182694412Y-90469689D01*
X182798631Y-90503553D01*
X183031903Y-90540500D01*
X183031908Y-90540500D01*
X183268097Y-90540500D01*
X183501368Y-90503553D01*
X183725992Y-90430568D01*
X183936433Y-90323343D01*
X184127510Y-90184517D01*
X184294517Y-90017510D01*
X184433343Y-89826433D01*
X184540568Y-89615992D01*
X184613553Y-89391368D01*
X184618700Y-89358870D01*
X184650500Y-89158097D01*
X184650500Y-88921902D01*
X184616488Y-88707164D01*
X184625442Y-88637871D01*
X184651278Y-88600087D01*
X184807952Y-88443415D01*
X184856775Y-88370345D01*
X184890084Y-88320495D01*
X184913518Y-88263920D01*
X184946659Y-88183912D01*
X184946992Y-88182234D01*
X184947409Y-88181438D01*
X184948428Y-88178080D01*
X184949064Y-88178273D01*
X184979377Y-88120325D01*
X185040092Y-88085750D01*
X185109862Y-88089489D01*
X185166534Y-88130355D01*
X185192116Y-88195373D01*
X185192610Y-88206426D01*
X185192610Y-109016683D01*
X185172925Y-109083722D01*
X185120121Y-109129477D01*
X185050963Y-109139421D01*
X184987407Y-109110396D01*
X184963616Y-109082655D01*
X184884741Y-108957127D01*
X184814315Y-108845044D01*
X184590188Y-108563997D01*
X184336003Y-108309812D01*
X184318466Y-108295827D01*
X184264626Y-108252891D01*
X184054956Y-108085685D01*
X183750582Y-107894434D01*
X183750579Y-107894432D01*
X183426711Y-107738465D01*
X183087419Y-107619741D01*
X183087407Y-107619737D01*
X182736951Y-107539748D01*
X182736935Y-107539746D01*
X182379740Y-107499500D01*
X182379736Y-107499500D01*
X182020264Y-107499500D01*
X182020259Y-107499500D01*
X181663064Y-107539746D01*
X181663048Y-107539748D01*
X181312592Y-107619737D01*
X181312580Y-107619741D01*
X180973288Y-107738465D01*
X180649420Y-107894432D01*
X180345045Y-108085684D01*
X180063997Y-108309811D01*
X179809811Y-108563997D01*
X179585684Y-108845045D01*
X179394432Y-109149420D01*
X179261220Y-109426038D01*
X179214397Y-109477897D01*
X179146970Y-109496210D01*
X179080346Y-109475162D01*
X179035678Y-109421436D01*
X179025500Y-109372236D01*
X179025500Y-105467519D01*
X179045185Y-105400480D01*
X179046398Y-105398628D01*
X179059394Y-105379179D01*
X179119737Y-105233497D01*
X179150500Y-105078842D01*
X179150500Y-104921158D01*
X179150500Y-104921155D01*
X179150499Y-104921153D01*
X179137556Y-104856087D01*
X179119737Y-104766503D01*
X179106002Y-104733343D01*
X179059397Y-104620827D01*
X179059390Y-104620814D01*
X178971789Y-104489711D01*
X178971786Y-104489707D01*
X178860292Y-104378213D01*
X178860288Y-104378210D01*
X178729185Y-104290609D01*
X178729172Y-104290602D01*
X178583501Y-104230264D01*
X178583489Y-104230261D01*
X178428845Y-104199500D01*
X178428842Y-104199500D01*
X178271158Y-104199500D01*
X178271155Y-104199500D01*
X178116510Y-104230261D01*
X178116498Y-104230264D01*
X177970827Y-104290602D01*
X177970814Y-104290609D01*
X177839711Y-104378210D01*
X177737180Y-104480741D01*
X177675857Y-104514225D01*
X177606165Y-104509241D01*
X177550232Y-104467369D01*
X177525815Y-104401904D01*
X177525499Y-104393073D01*
X177525499Y-103877128D01*
X177519091Y-103817517D01*
X177506340Y-103783332D01*
X177501357Y-103713642D01*
X177506340Y-103696669D01*
X177519091Y-103662483D01*
X177525500Y-103602873D01*
X177525499Y-102607128D01*
X177519091Y-102547517D01*
X177506340Y-102513332D01*
X177501357Y-102443642D01*
X177506340Y-102426669D01*
X177519091Y-102392483D01*
X177525500Y-102332873D01*
X177525499Y-101337128D01*
X177519091Y-101277517D01*
X177506340Y-101243332D01*
X177501357Y-101173642D01*
X177506340Y-101156669D01*
X177519091Y-101122483D01*
X177525500Y-101062873D01*
X177525499Y-100067128D01*
X177519091Y-100007517D01*
X177506340Y-99973332D01*
X177501357Y-99903642D01*
X177506340Y-99886669D01*
X177519091Y-99852483D01*
X177525500Y-99792873D01*
X177525499Y-98797128D01*
X177519091Y-98737517D01*
X177506340Y-98703332D01*
X177501357Y-98633642D01*
X177506340Y-98616669D01*
X177519091Y-98582483D01*
X177525500Y-98522873D01*
X177525499Y-97527128D01*
X177519091Y-97467517D01*
X177468796Y-97332669D01*
X177468795Y-97332668D01*
X177468793Y-97332664D01*
X177382547Y-97217455D01*
X177382544Y-97217452D01*
X177267335Y-97131206D01*
X177267328Y-97131202D01*
X177132482Y-97080908D01*
X177124938Y-97079126D01*
X177125474Y-97076853D01*
X177071688Y-97054571D01*
X177031843Y-96997177D01*
X177025500Y-96958024D01*
X177025500Y-95776079D01*
X176996659Y-95631092D01*
X176996658Y-95631091D01*
X176996658Y-95631087D01*
X176984234Y-95601093D01*
X176940087Y-95494511D01*
X176940080Y-95494498D01*
X176857952Y-95371585D01*
X176810686Y-95324319D01*
X176753416Y-95267049D01*
X176642449Y-95156082D01*
X176228421Y-94742052D01*
X176228420Y-94742051D01*
X176136301Y-94680500D01*
X176105495Y-94659916D01*
X176105488Y-94659912D01*
X175968917Y-94603343D01*
X175968907Y-94603340D01*
X175823920Y-94574500D01*
X175823918Y-94574500D01*
X174487230Y-94574500D01*
X174420191Y-94554815D01*
X174399549Y-94538181D01*
X172261819Y-92400451D01*
X172228334Y-92339128D01*
X172225500Y-92312770D01*
X172225500Y-74121153D01*
X173874500Y-74121153D01*
X173874500Y-74278846D01*
X173905261Y-74433489D01*
X173905264Y-74433501D01*
X173965602Y-74579172D01*
X173965609Y-74579185D01*
X174053210Y-74710288D01*
X174053213Y-74710292D01*
X174164707Y-74821786D01*
X174164711Y-74821789D01*
X174295814Y-74909390D01*
X174295827Y-74909397D01*
X174441498Y-74969735D01*
X174441503Y-74969737D01*
X174596153Y-75000499D01*
X174596156Y-75000500D01*
X174596158Y-75000500D01*
X174753844Y-75000500D01*
X174753845Y-75000499D01*
X174908497Y-74969737D01*
X175054179Y-74909394D01*
X175185289Y-74821789D01*
X175296789Y-74710289D01*
X175384394Y-74579179D01*
X175394190Y-74555525D01*
X175398823Y-74548592D01*
X175399921Y-74543546D01*
X175421069Y-74515296D01*
X175439551Y-74496815D01*
X175500874Y-74463333D01*
X175527229Y-74460500D01*
X179275501Y-74460500D01*
X179342540Y-74480185D01*
X179388295Y-74532989D01*
X179399501Y-74584500D01*
X179399501Y-74607876D01*
X179405908Y-74667483D01*
X179456202Y-74802328D01*
X179456206Y-74802335D01*
X179542452Y-74917544D01*
X179542455Y-74917547D01*
X179657664Y-75003793D01*
X179657671Y-75003797D01*
X179789082Y-75052810D01*
X179845016Y-75094681D01*
X179869433Y-75160145D01*
X179854582Y-75228418D01*
X179833431Y-75256673D01*
X179719892Y-75370212D01*
X179663097Y-75448385D01*
X179607767Y-75491051D01*
X179562779Y-75499500D01*
X176626080Y-75499500D01*
X176481092Y-75528340D01*
X176481082Y-75528343D01*
X176344511Y-75584912D01*
X176344498Y-75584919D01*
X176221585Y-75667048D01*
X176134702Y-75753929D01*
X176094480Y-75780805D01*
X176070819Y-75790606D01*
X176070818Y-75790607D01*
X175939715Y-75878207D01*
X175939707Y-75878213D01*
X175828213Y-75989707D01*
X175828210Y-75989711D01*
X175740609Y-76120814D01*
X175740602Y-76120827D01*
X175680264Y-76266498D01*
X175680261Y-76266510D01*
X175649500Y-76421153D01*
X175649500Y-76578846D01*
X175680261Y-76733489D01*
X175680264Y-76733501D01*
X175740602Y-76879172D01*
X175740609Y-76879185D01*
X175828210Y-77010288D01*
X175828213Y-77010292D01*
X175939707Y-77121786D01*
X175939711Y-77121789D01*
X176070814Y-77209390D01*
X176070827Y-77209397D01*
X176216498Y-77269735D01*
X176216503Y-77269737D01*
X176371153Y-77300499D01*
X176371156Y-77300500D01*
X176371158Y-77300500D01*
X176528844Y-77300500D01*
X176528845Y-77300499D01*
X176683497Y-77269737D01*
X176829179Y-77209394D01*
X176960289Y-77121789D01*
X177045260Y-77036817D01*
X177106581Y-77003334D01*
X177132940Y-77000500D01*
X179562779Y-77000500D01*
X179629818Y-77020185D01*
X179663097Y-77051615D01*
X179719892Y-77129788D01*
X179870213Y-77280109D01*
X180042179Y-77405048D01*
X180042181Y-77405049D01*
X180042184Y-77405051D01*
X180231588Y-77501557D01*
X180433757Y-77567246D01*
X180643713Y-77600500D01*
X180643714Y-77600500D01*
X180856286Y-77600500D01*
X180856287Y-77600500D01*
X181066243Y-77567246D01*
X181268412Y-77501557D01*
X181457816Y-77405051D01*
X181552852Y-77336004D01*
X181629786Y-77280109D01*
X181629788Y-77280106D01*
X181629792Y-77280104D01*
X181780104Y-77129792D01*
X181780106Y-77129788D01*
X181780109Y-77129786D01*
X181905048Y-76957820D01*
X181905047Y-76957820D01*
X181905051Y-76957816D01*
X182001557Y-76768412D01*
X182067246Y-76566243D01*
X182100500Y-76356287D01*
X182100500Y-76143713D01*
X182067246Y-75933757D01*
X182001557Y-75731588D01*
X181905051Y-75542184D01*
X181905049Y-75542181D01*
X181905048Y-75542179D01*
X181780109Y-75370213D01*
X181666569Y-75256673D01*
X181633084Y-75195350D01*
X181638068Y-75125658D01*
X181679940Y-75069725D01*
X181710915Y-75052810D01*
X181842331Y-75003796D01*
X181957546Y-74917546D01*
X182043796Y-74802331D01*
X182094091Y-74667483D01*
X182100500Y-74607873D01*
X182100499Y-72812128D01*
X182094091Y-72752517D01*
X182044477Y-72619496D01*
X182043797Y-72617671D01*
X182043793Y-72617664D01*
X181957547Y-72502455D01*
X181957544Y-72502452D01*
X181842335Y-72416206D01*
X181842328Y-72416202D01*
X181707482Y-72365908D01*
X181707483Y-72365908D01*
X181647883Y-72359501D01*
X181647881Y-72359500D01*
X181647873Y-72359500D01*
X181647864Y-72359500D01*
X179852129Y-72359500D01*
X179852123Y-72359501D01*
X179792516Y-72365908D01*
X179657671Y-72416202D01*
X179657664Y-72416206D01*
X179542455Y-72502452D01*
X179542452Y-72502455D01*
X179456206Y-72617664D01*
X179456202Y-72617671D01*
X179405908Y-72752517D01*
X179399501Y-72812116D01*
X179399501Y-72812123D01*
X179399500Y-72812135D01*
X179399500Y-72835500D01*
X179379815Y-72902539D01*
X179327011Y-72948294D01*
X179275500Y-72959500D01*
X175091076Y-72959500D01*
X175062242Y-72965234D01*
X175062243Y-72965235D01*
X174946093Y-72988339D01*
X174946083Y-72988342D01*
X174866081Y-73021479D01*
X174866082Y-73021480D01*
X174809506Y-73044915D01*
X174768645Y-73072218D01*
X174686586Y-73127047D01*
X174359704Y-73453928D01*
X174319478Y-73480806D01*
X174295826Y-73490603D01*
X174295814Y-73490609D01*
X174164711Y-73578210D01*
X174164707Y-73578213D01*
X174053213Y-73689707D01*
X174053210Y-73689711D01*
X173965609Y-73820814D01*
X173965602Y-73820827D01*
X173905264Y-73966498D01*
X173905261Y-73966510D01*
X173874500Y-74121153D01*
X172225500Y-74121153D01*
X172225500Y-68011229D01*
X172245185Y-67944190D01*
X172297989Y-67898435D01*
X172367147Y-67888491D01*
X172430703Y-67917516D01*
G37*
%TD.AperFunction*%
%TA.AperFunction,Conductor*%
G36*
X167592539Y-54620185D02*
G01*
X167638294Y-54672989D01*
X167649500Y-54724500D01*
X167649500Y-56630019D01*
X167660001Y-56732801D01*
X167715184Y-56899333D01*
X167715189Y-56899344D01*
X167807285Y-57048653D01*
X167807288Y-57048657D01*
X167931342Y-57172711D01*
X167931346Y-57172714D01*
X168080655Y-57264810D01*
X168080658Y-57264811D01*
X168080664Y-57264815D01*
X168247200Y-57319999D01*
X168349988Y-57330500D01*
X170475500Y-57330500D01*
X170542539Y-57350185D01*
X170588294Y-57402989D01*
X170599500Y-57454500D01*
X170599500Y-60240201D01*
X170579815Y-60307240D01*
X170540598Y-60345739D01*
X170481344Y-60382287D01*
X170357289Y-60506342D01*
X170265187Y-60655663D01*
X170265186Y-60655666D01*
X170210001Y-60822203D01*
X170210001Y-60822204D01*
X170210000Y-60822204D01*
X170199500Y-60924983D01*
X170199500Y-61925001D01*
X170199501Y-61925019D01*
X170210000Y-62027796D01*
X170210001Y-62027799D01*
X170265185Y-62194331D01*
X170265187Y-62194336D01*
X170357289Y-62343657D01*
X170425681Y-62412049D01*
X170459166Y-62473372D01*
X170462000Y-62499730D01*
X170462000Y-63625666D01*
X170442315Y-63692705D01*
X170435270Y-63702572D01*
X170432291Y-63706339D01*
X170340187Y-63855663D01*
X170340186Y-63855666D01*
X170285001Y-64022203D01*
X170285001Y-64022204D01*
X170285000Y-64022204D01*
X170274500Y-64124983D01*
X170274500Y-64838770D01*
X170268261Y-64860015D01*
X170266682Y-64882104D01*
X170258609Y-64892887D01*
X170254815Y-64905809D01*
X170238081Y-64920308D01*
X170224810Y-64938037D01*
X170212189Y-64942744D01*
X170202011Y-64951564D01*
X170180093Y-64954715D01*
X170159346Y-64962454D01*
X170146185Y-64959591D01*
X170132853Y-64961508D01*
X170112709Y-64952308D01*
X170091073Y-64947602D01*
X170073347Y-64934333D01*
X170069297Y-64932483D01*
X170062819Y-64926451D01*
X170061819Y-64925451D01*
X170028334Y-64864128D01*
X170025500Y-64837770D01*
X170025500Y-62776079D01*
X169996659Y-62631092D01*
X169996658Y-62631091D01*
X169996658Y-62631087D01*
X169996656Y-62631082D01*
X169940087Y-62494511D01*
X169940080Y-62494498D01*
X169857952Y-62371585D01*
X169812225Y-62325858D01*
X169753416Y-62267049D01*
X169576450Y-62090083D01*
X168928421Y-61442052D01*
X168928420Y-61442051D01*
X168816238Y-61367094D01*
X168816215Y-61367079D01*
X168816170Y-61367049D01*
X168805495Y-61359916D01*
X168805493Y-61359915D01*
X168805490Y-61359913D01*
X168668917Y-61303343D01*
X168668907Y-61303340D01*
X168523920Y-61274500D01*
X168523918Y-61274500D01*
X168240638Y-61274500D01*
X168173599Y-61254815D01*
X168135099Y-61215597D01*
X168067712Y-61106344D01*
X167943656Y-60982288D01*
X167794334Y-60890186D01*
X167627797Y-60835001D01*
X167627795Y-60835000D01*
X167525010Y-60824500D01*
X166899998Y-60824500D01*
X166899980Y-60824501D01*
X166797203Y-60835000D01*
X166797200Y-60835001D01*
X166630668Y-60890185D01*
X166630663Y-60890187D01*
X166481342Y-60982289D01*
X166387681Y-61075951D01*
X166326358Y-61109436D01*
X166256666Y-61104452D01*
X166212319Y-61075951D01*
X166118657Y-60982289D01*
X166118656Y-60982288D01*
X165969334Y-60890186D01*
X165802797Y-60835001D01*
X165802795Y-60835000D01*
X165700010Y-60824500D01*
X165074998Y-60824500D01*
X165074980Y-60824501D01*
X164972203Y-60835000D01*
X164972200Y-60835001D01*
X164805668Y-60890185D01*
X164805663Y-60890187D01*
X164656342Y-60982289D01*
X164532289Y-61106342D01*
X164511161Y-61140597D01*
X164459213Y-61187321D01*
X164405622Y-61199500D01*
X163668400Y-61199500D01*
X163601361Y-61179815D01*
X163562863Y-61140599D01*
X163494026Y-61028997D01*
X163371003Y-60905974D01*
X163370999Y-60905971D01*
X163222933Y-60814642D01*
X163222927Y-60814639D01*
X163222925Y-60814638D01*
X163222922Y-60814637D01*
X163057776Y-60759913D01*
X162955855Y-60749500D01*
X162955848Y-60749500D01*
X162369152Y-60749500D01*
X162369144Y-60749500D01*
X162267223Y-60759913D01*
X162102077Y-60814637D01*
X162102066Y-60814642D01*
X161954000Y-60905971D01*
X161953996Y-60905974D01*
X161830974Y-61028996D01*
X161830971Y-61029000D01*
X161739642Y-61177066D01*
X161739637Y-61177077D01*
X161684913Y-61342223D01*
X161674500Y-61444144D01*
X161674500Y-62455855D01*
X161684913Y-62557776D01*
X161739637Y-62722922D01*
X161739642Y-62722933D01*
X161830971Y-62870999D01*
X161830974Y-62871003D01*
X161953996Y-62994025D01*
X161954000Y-62994028D01*
X162102066Y-63085357D01*
X162102069Y-63085358D01*
X162102075Y-63085362D01*
X162267225Y-63140087D01*
X162369152Y-63150500D01*
X162369157Y-63150500D01*
X162955843Y-63150500D01*
X162955848Y-63150500D01*
X163057775Y-63140087D01*
X163222925Y-63085362D01*
X163371003Y-62994026D01*
X163494026Y-62871003D01*
X163562863Y-62759400D01*
X163614809Y-62712679D01*
X163668400Y-62700500D01*
X164319551Y-62700500D01*
X164386590Y-62720185D01*
X164432345Y-62772989D01*
X164437256Y-62785493D01*
X164440186Y-62794334D01*
X164532288Y-62943656D01*
X164656344Y-63067712D01*
X164805666Y-63159814D01*
X164972203Y-63214999D01*
X165074991Y-63225500D01*
X165700008Y-63225499D01*
X165700016Y-63225498D01*
X165700019Y-63225498D01*
X165756302Y-63219748D01*
X165802797Y-63214999D01*
X165969334Y-63159814D01*
X166118656Y-63067712D01*
X166212319Y-62974049D01*
X166273642Y-62940564D01*
X166343334Y-62945548D01*
X166387681Y-62974049D01*
X166481344Y-63067712D01*
X166630666Y-63159814D01*
X166797203Y-63214999D01*
X166899991Y-63225500D01*
X167525008Y-63225499D01*
X167525016Y-63225498D01*
X167525019Y-63225498D01*
X167581302Y-63219748D01*
X167627797Y-63214999D01*
X167794334Y-63159814D01*
X167943656Y-63067712D01*
X168067712Y-62943656D01*
X168076781Y-62928951D01*
X168128724Y-62882228D01*
X168197686Y-62871004D01*
X168261770Y-62898845D01*
X168270000Y-62906367D01*
X168488181Y-63124548D01*
X168521666Y-63185871D01*
X168524500Y-63212229D01*
X168524500Y-64425957D01*
X168504815Y-64492996D01*
X168452011Y-64538751D01*
X168382853Y-64548695D01*
X168319297Y-64519670D01*
X168294961Y-64491054D01*
X168254809Y-64425957D01*
X168242712Y-64406344D01*
X168118656Y-64282288D01*
X167969334Y-64190186D01*
X167802797Y-64135001D01*
X167802795Y-64135000D01*
X167700010Y-64124500D01*
X167074998Y-64124500D01*
X167074980Y-64124501D01*
X166972203Y-64135000D01*
X166972200Y-64135001D01*
X166805668Y-64190185D01*
X166805663Y-64190187D01*
X166656342Y-64282289D01*
X166562681Y-64375951D01*
X166501358Y-64409436D01*
X166431666Y-64404452D01*
X166387319Y-64375951D01*
X166293657Y-64282289D01*
X166293656Y-64282288D01*
X166144334Y-64190186D01*
X165977797Y-64135001D01*
X165977795Y-64135000D01*
X165875010Y-64124500D01*
X165249998Y-64124500D01*
X165249980Y-64124501D01*
X165147203Y-64135000D01*
X165147200Y-64135001D01*
X164980668Y-64190185D01*
X164980663Y-64190187D01*
X164831342Y-64282289D01*
X164707289Y-64406342D01*
X164639901Y-64515597D01*
X164587953Y-64562321D01*
X164534362Y-64574500D01*
X163868400Y-64574500D01*
X163801361Y-64554815D01*
X163762863Y-64515599D01*
X163694026Y-64403997D01*
X163571003Y-64280974D01*
X163570999Y-64280971D01*
X163422933Y-64189642D01*
X163422927Y-64189639D01*
X163422925Y-64189638D01*
X163408820Y-64184964D01*
X163257776Y-64134913D01*
X163155855Y-64124500D01*
X163155848Y-64124500D01*
X162569152Y-64124500D01*
X162569144Y-64124500D01*
X162467223Y-64134913D01*
X162302077Y-64189637D01*
X162302066Y-64189642D01*
X162154000Y-64280971D01*
X162153996Y-64280974D01*
X162030974Y-64403996D01*
X162030971Y-64404000D01*
X161939642Y-64552066D01*
X161939637Y-64552077D01*
X161884913Y-64717223D01*
X161874500Y-64819144D01*
X161874500Y-65830855D01*
X161884913Y-65932776D01*
X161939637Y-66097922D01*
X161939642Y-66097933D01*
X162030971Y-66245999D01*
X162030974Y-66246003D01*
X162153996Y-66369025D01*
X162154000Y-66369028D01*
X162302066Y-66460357D01*
X162302069Y-66460358D01*
X162302075Y-66460362D01*
X162467225Y-66515087D01*
X162569152Y-66525500D01*
X162569157Y-66525500D01*
X163155843Y-66525500D01*
X163155848Y-66525500D01*
X163257775Y-66515087D01*
X163422925Y-66460362D01*
X163571003Y-66369026D01*
X163694026Y-66246003D01*
X163762863Y-66134400D01*
X163814809Y-66087679D01*
X163868400Y-66075500D01*
X164534362Y-66075500D01*
X164601401Y-66095185D01*
X164639899Y-66134401D01*
X164707288Y-66243656D01*
X164831344Y-66367712D01*
X164980666Y-66459814D01*
X165147203Y-66514999D01*
X165249991Y-66525500D01*
X165875008Y-66525499D01*
X165875016Y-66525498D01*
X165875019Y-66525498D01*
X165931302Y-66519748D01*
X165977797Y-66514999D01*
X166144334Y-66459814D01*
X166293656Y-66367712D01*
X166387319Y-66274049D01*
X166448642Y-66240564D01*
X166518334Y-66245548D01*
X166562681Y-66274049D01*
X166656344Y-66367712D01*
X166805666Y-66459814D01*
X166972203Y-66514999D01*
X167074991Y-66525500D01*
X167700008Y-66525499D01*
X167700016Y-66525498D01*
X167700019Y-66525498D01*
X167756302Y-66519748D01*
X167802797Y-66514999D01*
X167969334Y-66459814D01*
X168104906Y-66376192D01*
X168172297Y-66357752D01*
X168238961Y-66378674D01*
X168257683Y-66394050D01*
X168588181Y-66724548D01*
X168621666Y-66785871D01*
X168624500Y-66812229D01*
X168624500Y-92176082D01*
X168624500Y-92376082D01*
X168624500Y-93148918D01*
X168624500Y-93148920D01*
X168624499Y-93148920D01*
X168653340Y-93293907D01*
X168653343Y-93293917D01*
X168709914Y-93430492D01*
X168742812Y-93479727D01*
X168742813Y-93479730D01*
X168792046Y-93553414D01*
X168792052Y-93553421D01*
X170551452Y-95312819D01*
X170584937Y-95374142D01*
X170579953Y-95443833D01*
X170538081Y-95499767D01*
X170472617Y-95524184D01*
X170463771Y-95524500D01*
X170197130Y-95524500D01*
X170197123Y-95524501D01*
X170137518Y-95530908D01*
X170103331Y-95543659D01*
X170033639Y-95548642D01*
X170016669Y-95543659D01*
X169999140Y-95537121D01*
X169982483Y-95530909D01*
X169982482Y-95530908D01*
X169922883Y-95524501D01*
X169922881Y-95524500D01*
X169922873Y-95524500D01*
X169922864Y-95524500D01*
X168927129Y-95524500D01*
X168927123Y-95524501D01*
X168867518Y-95530908D01*
X168833331Y-95543659D01*
X168763639Y-95548642D01*
X168746669Y-95543659D01*
X168729140Y-95537121D01*
X168712483Y-95530909D01*
X168712482Y-95530908D01*
X168652883Y-95524501D01*
X168652881Y-95524500D01*
X168652873Y-95524500D01*
X168652864Y-95524500D01*
X167657129Y-95524500D01*
X167657123Y-95524501D01*
X167597518Y-95530908D01*
X167563331Y-95543659D01*
X167493639Y-95548642D01*
X167476669Y-95543659D01*
X167459140Y-95537121D01*
X167442483Y-95530909D01*
X167442482Y-95530908D01*
X167382883Y-95524501D01*
X167382881Y-95524500D01*
X167382873Y-95524500D01*
X167382864Y-95524500D01*
X166387129Y-95524500D01*
X166387123Y-95524501D01*
X166327518Y-95530908D01*
X166293331Y-95543659D01*
X166223639Y-95548642D01*
X166206669Y-95543659D01*
X166189140Y-95537121D01*
X166172483Y-95530909D01*
X166172482Y-95530908D01*
X166112883Y-95524501D01*
X166112881Y-95524500D01*
X166112873Y-95524500D01*
X166112864Y-95524500D01*
X165117129Y-95524500D01*
X165117123Y-95524501D01*
X165057518Y-95530908D01*
X165023331Y-95543659D01*
X164953639Y-95548642D01*
X164936669Y-95543659D01*
X164919140Y-95537121D01*
X164902483Y-95530909D01*
X164902482Y-95530908D01*
X164842883Y-95524501D01*
X164842881Y-95524500D01*
X164842873Y-95524500D01*
X164842864Y-95524500D01*
X163847129Y-95524500D01*
X163847123Y-95524501D01*
X163787518Y-95530908D01*
X163753331Y-95543659D01*
X163683639Y-95548642D01*
X163666669Y-95543659D01*
X163649140Y-95537121D01*
X163632483Y-95530909D01*
X163632482Y-95530908D01*
X163572883Y-95524501D01*
X163572881Y-95524500D01*
X163572873Y-95524500D01*
X163572864Y-95524500D01*
X162577129Y-95524500D01*
X162577123Y-95524501D01*
X162517518Y-95530908D01*
X162483331Y-95543659D01*
X162413639Y-95548642D01*
X162396669Y-95543659D01*
X162379140Y-95537121D01*
X162362483Y-95530909D01*
X162362482Y-95530908D01*
X162302883Y-95524501D01*
X162302881Y-95524500D01*
X162302873Y-95524500D01*
X162302864Y-95524500D01*
X161303807Y-95524501D01*
X161303807Y-95522910D01*
X161241899Y-95508193D01*
X161193451Y-95457848D01*
X161179914Y-95389302D01*
X161205584Y-95324319D01*
X161234512Y-95297421D01*
X161310289Y-95246789D01*
X161421789Y-95135289D01*
X161509394Y-95004179D01*
X161569737Y-94858497D01*
X161600500Y-94703842D01*
X161600500Y-94546158D01*
X161600500Y-94546155D01*
X161600499Y-94546153D01*
X161569738Y-94391510D01*
X161569737Y-94391503D01*
X161556565Y-94359703D01*
X161509397Y-94245827D01*
X161509390Y-94245814D01*
X161421789Y-94114711D01*
X161421786Y-94114707D01*
X161310292Y-94003213D01*
X161310288Y-94003210D01*
X161179185Y-93915609D01*
X161179172Y-93915602D01*
X161033501Y-93855264D01*
X161033489Y-93855261D01*
X160878845Y-93824500D01*
X160878842Y-93824500D01*
X160721158Y-93824500D01*
X160721155Y-93824500D01*
X160566511Y-93855260D01*
X160566506Y-93855262D01*
X160566504Y-93855262D01*
X160566503Y-93855263D01*
X160542844Y-93865062D01*
X160495396Y-93874500D01*
X159276080Y-93874500D01*
X159131092Y-93903340D01*
X159131082Y-93903343D01*
X158994511Y-93959912D01*
X158994498Y-93959919D01*
X158871584Y-94042048D01*
X158871580Y-94042051D01*
X158017049Y-94896581D01*
X158017045Y-94896585D01*
X157968326Y-94969503D01*
X157968325Y-94969505D01*
X157966747Y-94971867D01*
X157934916Y-95019504D01*
X157934912Y-95019511D01*
X157878343Y-95156082D01*
X157878340Y-95156092D01*
X157849500Y-95301079D01*
X157849500Y-97021138D01*
X157829815Y-97088177D01*
X157789581Y-97125637D01*
X157789769Y-97125888D01*
X157787441Y-97127630D01*
X157784932Y-97129967D01*
X157782670Y-97131202D01*
X157667455Y-97217452D01*
X157667452Y-97217455D01*
X157581206Y-97332664D01*
X157581202Y-97332671D01*
X157530908Y-97467517D01*
X157527470Y-97499500D01*
X157524501Y-97527123D01*
X157524500Y-97527135D01*
X157524500Y-98522870D01*
X157524501Y-98522876D01*
X157530908Y-98582481D01*
X157543659Y-98616669D01*
X157548642Y-98686361D01*
X157543659Y-98703331D01*
X157530908Y-98737518D01*
X157524501Y-98797116D01*
X157524501Y-98797123D01*
X157524500Y-98797135D01*
X157524500Y-99792870D01*
X157524501Y-99792876D01*
X157530908Y-99852481D01*
X157543659Y-99886669D01*
X157548642Y-99956361D01*
X157543659Y-99973331D01*
X157530908Y-100007518D01*
X157530095Y-100015084D01*
X157524501Y-100067123D01*
X157524500Y-100067135D01*
X157524500Y-101062870D01*
X157524501Y-101062876D01*
X157530908Y-101122481D01*
X157543659Y-101156669D01*
X157548642Y-101226361D01*
X157543659Y-101243331D01*
X157530908Y-101277518D01*
X157524501Y-101337116D01*
X157524501Y-101337123D01*
X157524500Y-101337135D01*
X157524500Y-102332870D01*
X157524501Y-102332876D01*
X157530908Y-102392481D01*
X157543659Y-102426669D01*
X157548642Y-102496361D01*
X157543659Y-102513331D01*
X157530908Y-102547518D01*
X157524501Y-102607116D01*
X157524501Y-102607123D01*
X157524500Y-102607135D01*
X157524500Y-103602870D01*
X157524501Y-103602876D01*
X157530908Y-103662481D01*
X157543659Y-103696669D01*
X157548642Y-103766361D01*
X157543659Y-103783331D01*
X157530908Y-103817518D01*
X157524501Y-103877116D01*
X157524501Y-103877123D01*
X157524500Y-103877135D01*
X157524500Y-104872870D01*
X157524501Y-104872876D01*
X157530908Y-104932481D01*
X157543659Y-104966669D01*
X157548642Y-105036361D01*
X157543659Y-105053331D01*
X157530908Y-105087518D01*
X157526825Y-105125500D01*
X157524501Y-105147123D01*
X157524500Y-105147135D01*
X157524500Y-106142870D01*
X157524501Y-106142876D01*
X157530908Y-106202481D01*
X157543659Y-106236669D01*
X157548642Y-106306361D01*
X157543659Y-106323331D01*
X157530908Y-106357518D01*
X157525499Y-106407834D01*
X157524501Y-106417123D01*
X157524500Y-106417135D01*
X157524500Y-107412870D01*
X157524501Y-107412876D01*
X157530908Y-107472481D01*
X157543659Y-107506669D01*
X157548642Y-107576361D01*
X157543659Y-107593331D01*
X157530908Y-107627518D01*
X157525499Y-107677834D01*
X157524501Y-107687123D01*
X157524500Y-107687135D01*
X157524500Y-108682870D01*
X157524501Y-108682876D01*
X157530908Y-108742481D01*
X157543659Y-108776669D01*
X157548642Y-108846361D01*
X157543659Y-108863331D01*
X157530908Y-108897518D01*
X157524501Y-108957116D01*
X157524500Y-108957135D01*
X157524500Y-109143059D01*
X157504815Y-109210098D01*
X157452011Y-109255853D01*
X157382853Y-109265797D01*
X157319297Y-109236772D01*
X157312819Y-109230740D01*
X157310292Y-109228213D01*
X157310288Y-109228210D01*
X157179185Y-109140609D01*
X157179172Y-109140602D01*
X157033501Y-109080264D01*
X157033489Y-109080261D01*
X156878845Y-109049500D01*
X156878842Y-109049500D01*
X156824500Y-109049500D01*
X156757461Y-109029815D01*
X156711706Y-108977011D01*
X156700500Y-108925500D01*
X156700500Y-91751081D01*
X156694763Y-91722242D01*
X156694763Y-91722240D01*
X156671660Y-91606095D01*
X156671659Y-91606088D01*
X156617408Y-91475117D01*
X156615764Y-91470522D01*
X156532954Y-91346588D01*
X156532953Y-91346587D01*
X156532951Y-91346584D01*
X156428416Y-91242049D01*
X155689920Y-90503553D01*
X153428421Y-88242052D01*
X153428420Y-88242051D01*
X153341409Y-88183913D01*
X153341408Y-88183912D01*
X153305500Y-88159919D01*
X153305488Y-88159912D01*
X153168917Y-88103343D01*
X153168907Y-88103340D01*
X153023920Y-88074500D01*
X153023918Y-88074500D01*
X150687229Y-88074500D01*
X150620190Y-88054815D01*
X150599548Y-88038181D01*
X149461819Y-86900451D01*
X149428334Y-86839128D01*
X149425500Y-86812770D01*
X149425500Y-85901079D01*
X149396659Y-85756092D01*
X149396658Y-85756091D01*
X149396658Y-85756087D01*
X149366132Y-85682390D01*
X149340087Y-85619511D01*
X149340080Y-85619498D01*
X149257952Y-85496585D01*
X149224148Y-85462781D01*
X149153416Y-85392049D01*
X149068292Y-85306925D01*
X148740921Y-84979552D01*
X148740914Y-84979546D01*
X148660125Y-84925565D01*
X148660026Y-84925500D01*
X148617995Y-84897416D01*
X148617994Y-84897415D01*
X148617992Y-84897414D01*
X148481417Y-84840843D01*
X148481407Y-84840840D01*
X148336420Y-84812000D01*
X148336418Y-84812000D01*
X148199730Y-84812000D01*
X148132691Y-84792315D01*
X148112049Y-84775681D01*
X148043657Y-84707289D01*
X148043656Y-84707288D01*
X147926931Y-84635292D01*
X147894336Y-84615187D01*
X147894331Y-84615185D01*
X147860257Y-84603894D01*
X147727797Y-84560001D01*
X147727795Y-84560000D01*
X147625016Y-84549500D01*
X147625009Y-84549500D01*
X146886229Y-84549500D01*
X146864983Y-84543261D01*
X146842896Y-84541682D01*
X146832112Y-84533609D01*
X146819190Y-84529815D01*
X146804691Y-84513083D01*
X146786962Y-84499811D01*
X146782254Y-84487188D01*
X146773435Y-84477011D01*
X146770283Y-84455094D01*
X146762545Y-84434346D01*
X146765408Y-84421185D01*
X146763491Y-84407853D01*
X146772690Y-84387708D01*
X146777397Y-84366074D01*
X146790666Y-84348346D01*
X146792516Y-84344297D01*
X146798533Y-84337833D01*
X146940299Y-84196067D01*
X146980522Y-84169192D01*
X147004179Y-84159394D01*
X147135289Y-84071789D01*
X147246789Y-83960289D01*
X147334394Y-83829179D01*
X147394737Y-83683497D01*
X147425500Y-83528842D01*
X147425500Y-83371158D01*
X147425500Y-83371155D01*
X147425499Y-83371153D01*
X147413066Y-83308647D01*
X147394737Y-83216503D01*
X147394735Y-83216498D01*
X147334397Y-83070827D01*
X147334390Y-83070814D01*
X147246789Y-82939711D01*
X147246786Y-82939707D01*
X147135292Y-82828213D01*
X147135288Y-82828210D01*
X147004185Y-82740609D01*
X147004172Y-82740602D01*
X146858501Y-82680264D01*
X146858489Y-82680261D01*
X146703845Y-82649500D01*
X146703842Y-82649500D01*
X146546158Y-82649500D01*
X146546155Y-82649500D01*
X146391510Y-82680261D01*
X146391498Y-82680264D01*
X146245827Y-82740602D01*
X146245814Y-82740609D01*
X146114711Y-82828210D01*
X146114707Y-82828213D01*
X146003213Y-82939707D01*
X146003207Y-82939715D01*
X145915607Y-83070818D01*
X145915606Y-83070819D01*
X145905805Y-83094480D01*
X145878927Y-83134703D01*
X145342047Y-83671584D01*
X145329075Y-83690999D01*
X145316159Y-83710331D01*
X145287940Y-83752562D01*
X145259914Y-83794507D01*
X145203343Y-83931082D01*
X145203340Y-83931092D01*
X145174500Y-84076079D01*
X145174500Y-88598770D01*
X145154815Y-88665809D01*
X145102011Y-88711564D01*
X145032853Y-88721508D01*
X144969297Y-88692483D01*
X144962819Y-88686451D01*
X144943657Y-88667289D01*
X144943656Y-88667288D01*
X144794334Y-88575186D01*
X144627797Y-88520001D01*
X144627795Y-88520000D01*
X144525010Y-88509500D01*
X143324998Y-88509500D01*
X143324981Y-88509501D01*
X143222203Y-88520000D01*
X143222200Y-88520001D01*
X143055668Y-88575185D01*
X143055663Y-88575187D01*
X142906342Y-88667289D01*
X142782289Y-88791342D01*
X142690187Y-88940663D01*
X142690184Y-88940671D01*
X142678972Y-88974506D01*
X142639199Y-89031950D01*
X142574683Y-89058772D01*
X142561267Y-89059500D01*
X138031520Y-89059500D01*
X137964481Y-89039815D01*
X137918726Y-88987011D01*
X137913589Y-88973818D01*
X137902819Y-88940671D01*
X137892400Y-88908604D01*
X137786961Y-88701669D01*
X137679872Y-88554273D01*
X137656393Y-88488469D01*
X137672218Y-88420415D01*
X137722324Y-88371720D01*
X137780191Y-88357390D01*
X142081922Y-88357390D01*
X142081925Y-88357390D01*
X142191896Y-88327923D01*
X142290494Y-88270998D01*
X142370998Y-88190494D01*
X142427923Y-88091896D01*
X142457390Y-87981925D01*
X142457390Y-82664570D01*
X142477075Y-82597531D01*
X142529879Y-82551776D01*
X142599037Y-82541832D01*
X142662593Y-82570857D01*
X142699320Y-82626251D01*
X142716870Y-82680264D01*
X142719781Y-82689221D01*
X142812715Y-82871613D01*
X142933028Y-83037213D01*
X143077786Y-83181971D01*
X143184352Y-83259394D01*
X143243390Y-83302287D01*
X143354440Y-83358870D01*
X143425776Y-83395218D01*
X143425778Y-83395218D01*
X143425781Y-83395220D01*
X143530137Y-83429127D01*
X143620465Y-83458477D01*
X143721557Y-83474488D01*
X143822648Y-83490500D01*
X143822649Y-83490500D01*
X144027351Y-83490500D01*
X144027352Y-83490500D01*
X144229534Y-83458477D01*
X144424219Y-83395220D01*
X144606610Y-83302287D01*
X144724683Y-83216503D01*
X144772213Y-83181971D01*
X144772215Y-83181968D01*
X144772219Y-83181966D01*
X144916966Y-83037219D01*
X144916968Y-83037215D01*
X144916971Y-83037213D01*
X144987812Y-82939707D01*
X145037287Y-82871610D01*
X145130220Y-82689219D01*
X145193477Y-82494534D01*
X145225500Y-82292352D01*
X145225500Y-82087648D01*
X145216681Y-82031971D01*
X145225635Y-81962680D01*
X145251470Y-81924896D01*
X145602952Y-81573416D01*
X145652186Y-81499729D01*
X145685084Y-81450495D01*
X145741658Y-81313913D01*
X145758548Y-81229002D01*
X145770500Y-81168920D01*
X145770500Y-77986138D01*
X145790185Y-77919099D01*
X145806822Y-77898454D01*
X145816558Y-77888718D01*
X145928782Y-77720762D01*
X145928782Y-77720761D01*
X145928786Y-77720756D01*
X146006091Y-77534127D01*
X146045500Y-77336003D01*
X146045500Y-76683997D01*
X146006091Y-76485873D01*
X145928786Y-76299244D01*
X145928784Y-76299241D01*
X145928782Y-76299237D01*
X145816558Y-76131281D01*
X145673718Y-75988441D01*
X145505762Y-75876217D01*
X145505752Y-75876212D01*
X145319127Y-75798909D01*
X145319119Y-75798907D01*
X145121007Y-75759500D01*
X145121003Y-75759500D01*
X144918997Y-75759500D01*
X144918992Y-75759500D01*
X144720880Y-75798907D01*
X144720868Y-75798910D01*
X144671952Y-75819172D01*
X144602482Y-75826641D01*
X144540003Y-75795365D01*
X144504352Y-75735276D01*
X144500500Y-75704611D01*
X144500500Y-74799500D01*
X144520185Y-74732461D01*
X144572989Y-74686706D01*
X144624500Y-74675500D01*
X148062770Y-74675500D01*
X148129809Y-74695185D01*
X148150451Y-74711819D01*
X148813181Y-75374549D01*
X148846666Y-75435872D01*
X148849500Y-75462230D01*
X148849500Y-78052983D01*
X148829815Y-78120022D01*
X148777011Y-78165777D01*
X148764510Y-78170686D01*
X148705666Y-78190186D01*
X148705663Y-78190187D01*
X148556342Y-78282289D01*
X148432289Y-78406342D01*
X148340187Y-78555663D01*
X148340186Y-78555666D01*
X148285001Y-78722203D01*
X148285001Y-78722204D01*
X148285000Y-78722204D01*
X148274500Y-78824983D01*
X148274500Y-79450001D01*
X148274501Y-79450019D01*
X148285000Y-79552796D01*
X148285001Y-79552799D01*
X148340185Y-79719331D01*
X148340187Y-79719336D01*
X148432289Y-79868657D01*
X148525951Y-79962319D01*
X148559436Y-80023642D01*
X148554452Y-80093334D01*
X148525951Y-80137681D01*
X148432289Y-80231342D01*
X148340187Y-80380663D01*
X148340186Y-80380666D01*
X148285001Y-80547203D01*
X148285001Y-80547204D01*
X148285000Y-80547204D01*
X148274500Y-80649983D01*
X148274500Y-81275001D01*
X148274501Y-81275019D01*
X148285000Y-81377796D01*
X148285001Y-81377799D01*
X148325403Y-81499723D01*
X148340186Y-81544334D01*
X148432288Y-81693656D01*
X148556344Y-81817712D01*
X148665597Y-81885099D01*
X148712321Y-81937047D01*
X148724500Y-81990638D01*
X148724500Y-82698918D01*
X148724500Y-82698920D01*
X148724499Y-82698920D01*
X148753340Y-82843907D01*
X148753343Y-82843917D01*
X148809913Y-82980490D01*
X148809914Y-82980492D01*
X148841936Y-83028416D01*
X148841937Y-83028418D01*
X148892043Y-83103410D01*
X148892047Y-83103415D01*
X148892048Y-83103416D01*
X150275820Y-84487188D01*
X151628982Y-85840349D01*
X151662467Y-85901672D01*
X151659232Y-85966347D01*
X151646524Y-86005457D01*
X151646523Y-86005464D01*
X151614500Y-86207648D01*
X151614500Y-86412351D01*
X151646522Y-86614534D01*
X151709781Y-86809223D01*
X151802715Y-86991613D01*
X151923028Y-87157213D01*
X152067786Y-87301971D01*
X152222749Y-87414556D01*
X152233390Y-87422287D01*
X152349607Y-87481503D01*
X152415776Y-87515218D01*
X152415778Y-87515218D01*
X152415781Y-87515220D01*
X152520137Y-87549127D01*
X152610465Y-87578477D01*
X152711557Y-87594488D01*
X152812648Y-87610500D01*
X152812649Y-87610500D01*
X153017351Y-87610500D01*
X153017352Y-87610500D01*
X153219534Y-87578477D01*
X153414219Y-87515220D01*
X153596610Y-87422287D01*
X153689590Y-87354732D01*
X153762213Y-87301971D01*
X153762215Y-87301968D01*
X153762219Y-87301966D01*
X153906966Y-87157219D01*
X153906968Y-87157215D01*
X153906971Y-87157213D01*
X153959732Y-87084590D01*
X154027287Y-86991610D01*
X154120220Y-86809219D01*
X154183477Y-86614534D01*
X154215500Y-86412352D01*
X154215500Y-86207648D01*
X154183477Y-86005466D01*
X154183476Y-86005464D01*
X154120218Y-85810776D01*
X154054801Y-85682390D01*
X154027287Y-85628390D01*
X154003753Y-85595998D01*
X153906971Y-85462786D01*
X153762213Y-85318028D01*
X153596613Y-85197715D01*
X153596612Y-85197714D01*
X153596610Y-85197713D01*
X153539653Y-85168691D01*
X153414223Y-85104781D01*
X153219534Y-85041522D01*
X153044995Y-85013878D01*
X153017352Y-85009500D01*
X153017351Y-85009500D01*
X152972229Y-85009500D01*
X152905190Y-84989815D01*
X152884548Y-84973181D01*
X151406963Y-83495595D01*
X151373478Y-83434272D01*
X151378462Y-83364580D01*
X151420334Y-83308647D01*
X151447183Y-83293357D01*
X151529179Y-83259394D01*
X151660289Y-83171789D01*
X151771789Y-83060289D01*
X151859394Y-82929179D01*
X151919737Y-82783497D01*
X151950500Y-82628842D01*
X151950500Y-82471158D01*
X151950500Y-82471155D01*
X151950499Y-82471153D01*
X151919739Y-82316511D01*
X151919738Y-82316508D01*
X151919737Y-82316503D01*
X151909937Y-82292844D01*
X151900500Y-82245396D01*
X151900500Y-79526053D01*
X151920185Y-79459014D01*
X151972989Y-79413259D01*
X152042147Y-79403315D01*
X152105703Y-79432340D01*
X152112181Y-79438372D01*
X152338997Y-79665188D01*
X152620044Y-79889315D01*
X152924418Y-80080566D01*
X153248292Y-80236536D01*
X153429348Y-80299890D01*
X153587580Y-80355258D01*
X153587592Y-80355262D01*
X153938052Y-80435252D01*
X154295260Y-80475499D01*
X154295261Y-80475500D01*
X154295264Y-80475500D01*
X154654739Y-80475500D01*
X154654739Y-80475499D01*
X155011948Y-80435252D01*
X155362408Y-80355262D01*
X155701708Y-80236536D01*
X156025582Y-80080566D01*
X156329956Y-79889315D01*
X156611003Y-79665188D01*
X156865188Y-79411003D01*
X157089315Y-79129956D01*
X157280566Y-78825582D01*
X157436536Y-78501708D01*
X157555262Y-78162408D01*
X157635252Y-77811948D01*
X157675500Y-77454736D01*
X157675500Y-77095264D01*
X157635252Y-76738052D01*
X157555262Y-76387592D01*
X157436536Y-76048292D01*
X157280566Y-75724418D01*
X157089315Y-75420044D01*
X156865188Y-75138997D01*
X156611003Y-74884812D01*
X156329956Y-74660685D01*
X156025582Y-74469434D01*
X156025579Y-74469432D01*
X155701711Y-74313465D01*
X155362419Y-74194741D01*
X155362407Y-74194737D01*
X155011951Y-74114748D01*
X155011935Y-74114746D01*
X154654740Y-74074500D01*
X154654736Y-74074500D01*
X154295264Y-74074500D01*
X154295259Y-74074500D01*
X153938064Y-74114746D01*
X153938048Y-74114748D01*
X153587592Y-74194737D01*
X153587580Y-74194741D01*
X153248288Y-74313465D01*
X152924420Y-74469432D01*
X152620045Y-74660684D01*
X152338997Y-74884811D01*
X152112181Y-75111628D01*
X152050858Y-75145113D01*
X151981166Y-75140129D01*
X151925233Y-75098257D01*
X151900816Y-75032793D01*
X151900500Y-75023947D01*
X151900500Y-73337229D01*
X151920185Y-73270190D01*
X151936819Y-73249548D01*
X152826867Y-72359500D01*
X153929948Y-71256418D01*
X153991269Y-71222935D01*
X153998210Y-71221631D01*
X154134858Y-71199988D01*
X154183738Y-71192247D01*
X154183738Y-71192246D01*
X154183743Y-71192246D01*
X154385912Y-71126557D01*
X154575316Y-71030051D01*
X154597289Y-71014086D01*
X154747286Y-70905109D01*
X154747288Y-70905106D01*
X154747292Y-70905104D01*
X154897604Y-70754792D01*
X154897606Y-70754788D01*
X154897609Y-70754786D01*
X155022548Y-70582820D01*
X155022547Y-70582820D01*
X155022551Y-70582816D01*
X155119057Y-70393412D01*
X155184746Y-70191243D01*
X155218000Y-69981287D01*
X155218000Y-69468713D01*
X155184746Y-69258757D01*
X155119057Y-69056588D01*
X155022551Y-68867184D01*
X155022549Y-68867181D01*
X155022548Y-68867179D01*
X154897609Y-68695213D01*
X154747290Y-68544894D01*
X154747285Y-68544890D01*
X154651615Y-68475382D01*
X154608949Y-68420052D01*
X154600500Y-68375064D01*
X154600500Y-62962229D01*
X154620185Y-62895190D01*
X154636819Y-62874548D01*
X157599548Y-59911819D01*
X157660871Y-59878334D01*
X157687229Y-59875500D01*
X160698920Y-59875500D01*
X160796462Y-59856096D01*
X160843913Y-59846658D01*
X160980495Y-59790084D01*
X161103416Y-59707951D01*
X161207951Y-59603416D01*
X161290084Y-59480495D01*
X161290091Y-59480477D01*
X161291985Y-59476936D01*
X161313665Y-59447701D01*
X162382952Y-58378416D01*
X162432186Y-58304729D01*
X162465084Y-58255495D01*
X162521658Y-58118913D01*
X162550500Y-57973918D01*
X162550500Y-57077000D01*
X162570185Y-57009961D01*
X162622989Y-56964206D01*
X162674500Y-56953000D01*
X163491416Y-56953000D01*
X163558455Y-56972685D01*
X163596954Y-57011903D01*
X163607285Y-57028652D01*
X163607288Y-57028656D01*
X163731344Y-57152712D01*
X163880666Y-57244814D01*
X164047203Y-57299999D01*
X164149991Y-57310500D01*
X165950008Y-57310499D01*
X166052797Y-57299999D01*
X166219334Y-57244814D01*
X166368656Y-57152712D01*
X166492712Y-57028656D01*
X166584814Y-56879334D01*
X166639999Y-56712797D01*
X166650500Y-56610009D01*
X166650499Y-55809992D01*
X166639999Y-55707203D01*
X166584814Y-55540666D01*
X166492712Y-55391344D01*
X166368656Y-55267288D01*
X166368655Y-55267287D01*
X166219906Y-55175539D01*
X166173181Y-55123591D01*
X166161958Y-55054629D01*
X166189801Y-54990546D01*
X166219906Y-54964461D01*
X166368656Y-54872712D01*
X166492712Y-54748656D01*
X166547764Y-54659402D01*
X166599711Y-54612679D01*
X166653302Y-54600500D01*
X167525500Y-54600500D01*
X167592539Y-54620185D01*
G37*
%TD.AperFunction*%
%TA.AperFunction,Conductor*%
G36*
X180125182Y-50715520D02*
G01*
X180153562Y-50720791D01*
X180158296Y-50725244D01*
X180164531Y-50727075D01*
X180183429Y-50748884D01*
X180204455Y-50768662D01*
X180206030Y-50774967D01*
X180210286Y-50779879D01*
X180214393Y-50808444D01*
X180221389Y-50836448D01*
X180219305Y-50842604D01*
X180220230Y-50849037D01*
X180208240Y-50875291D01*
X180198986Y-50902629D01*
X180192706Y-50909304D01*
X180191205Y-50912593D01*
X180174804Y-50928337D01*
X180064003Y-51016696D01*
X179809811Y-51270888D01*
X179585684Y-51551936D01*
X179394432Y-51856311D01*
X179238465Y-52180179D01*
X179119741Y-52519471D01*
X179119737Y-52519483D01*
X179039748Y-52869939D01*
X179039746Y-52869955D01*
X178999500Y-53227150D01*
X178999500Y-53586631D01*
X179039746Y-53943826D01*
X179039748Y-53943842D01*
X179119737Y-54294298D01*
X179119741Y-54294310D01*
X179238465Y-54633602D01*
X179394432Y-54957470D01*
X179407297Y-54977944D01*
X179585685Y-55261847D01*
X179809812Y-55542894D01*
X180063997Y-55797079D01*
X180345044Y-56021206D01*
X180649418Y-56212457D01*
X180973292Y-56368427D01*
X181133680Y-56424549D01*
X181312580Y-56487149D01*
X181312592Y-56487153D01*
X181663052Y-56567143D01*
X182020260Y-56607390D01*
X182020261Y-56607391D01*
X182020264Y-56607391D01*
X182379739Y-56607391D01*
X182379739Y-56607390D01*
X182736948Y-56567143D01*
X183087408Y-56487153D01*
X183426708Y-56368427D01*
X183750582Y-56212457D01*
X184054956Y-56021206D01*
X184336003Y-55797079D01*
X184590188Y-55542894D01*
X184814315Y-55261847D01*
X184963617Y-55024233D01*
X185015951Y-54977944D01*
X185085004Y-54967295D01*
X185148852Y-54995671D01*
X185187225Y-55054060D01*
X185192610Y-55090207D01*
X185192610Y-67558577D01*
X185172925Y-67625616D01*
X185120121Y-67671371D01*
X185050963Y-67681315D01*
X184987407Y-67652290D01*
X184949633Y-67593512D01*
X184946993Y-67582770D01*
X184946659Y-67581091D01*
X184946656Y-67581082D01*
X184890086Y-67444509D01*
X184890085Y-67444507D01*
X184857186Y-67395270D01*
X184857185Y-67395268D01*
X184807956Y-67321589D01*
X184807952Y-67321584D01*
X183753421Y-66267052D01*
X183753414Y-66267046D01*
X183679729Y-66217812D01*
X183679729Y-66217813D01*
X183630491Y-66184913D01*
X183493917Y-66128343D01*
X183493907Y-66128340D01*
X183348920Y-66099500D01*
X183348918Y-66099500D01*
X175012229Y-66099500D01*
X174945190Y-66079815D01*
X174924548Y-66063181D01*
X174154270Y-65292902D01*
X174120785Y-65231579D01*
X174118593Y-65192618D01*
X174119667Y-65182103D01*
X174125500Y-65125009D01*
X174125499Y-64307701D01*
X174145183Y-64240663D01*
X174197987Y-64194908D01*
X174267146Y-64184964D01*
X174273673Y-64186081D01*
X174326079Y-64196506D01*
X174346157Y-64200500D01*
X174346158Y-64200500D01*
X174503844Y-64200500D01*
X174503845Y-64200499D01*
X174658497Y-64169737D01*
X174804179Y-64109394D01*
X174935289Y-64021789D01*
X175046789Y-63910289D01*
X175134394Y-63779179D01*
X175194737Y-63633497D01*
X175225500Y-63478842D01*
X175225500Y-63321158D01*
X175225500Y-63321155D01*
X175225499Y-63321153D01*
X175206472Y-63225498D01*
X175194737Y-63166503D01*
X175191966Y-63159812D01*
X175134397Y-63020827D01*
X175134390Y-63020814D01*
X175046789Y-62889711D01*
X175046786Y-62889707D01*
X174935292Y-62778213D01*
X174935288Y-62778210D01*
X174804185Y-62690609D01*
X174804180Y-62690607D01*
X174804179Y-62690606D01*
X174780519Y-62680805D01*
X174740293Y-62653926D01*
X174473549Y-62387181D01*
X174440064Y-62325858D01*
X174445048Y-62256166D01*
X174486920Y-62200233D01*
X174552384Y-62175816D01*
X174561230Y-62175500D01*
X175838920Y-62175500D01*
X175936462Y-62156096D01*
X175983913Y-62146658D01*
X176120495Y-62090084D01*
X176169729Y-62057186D01*
X176243416Y-62007952D01*
X176485089Y-61766277D01*
X176546408Y-61732795D01*
X176592163Y-61731488D01*
X176653398Y-61741186D01*
X176806903Y-61765500D01*
X176806908Y-61765500D01*
X177043097Y-61765500D01*
X177276368Y-61728553D01*
X177314725Y-61716090D01*
X177500992Y-61655568D01*
X177711433Y-61548343D01*
X177902510Y-61409517D01*
X178069517Y-61242510D01*
X178197313Y-61066613D01*
X178252643Y-61023949D01*
X178297631Y-61015500D01*
X182052369Y-61015500D01*
X182119408Y-61035185D01*
X182152685Y-61066613D01*
X182280483Y-61242510D01*
X182447490Y-61409517D01*
X182638567Y-61548343D01*
X182737991Y-61599002D01*
X182849003Y-61655566D01*
X182849005Y-61655566D01*
X182849008Y-61655568D01*
X182969412Y-61694689D01*
X183073631Y-61728553D01*
X183306903Y-61765500D01*
X183306908Y-61765500D01*
X183543097Y-61765500D01*
X183776368Y-61728553D01*
X183814725Y-61716090D01*
X184000992Y-61655568D01*
X184211433Y-61548343D01*
X184402510Y-61409517D01*
X184569517Y-61242510D01*
X184708343Y-61051433D01*
X184815568Y-60840992D01*
X184888553Y-60616368D01*
X184891083Y-60600395D01*
X184925500Y-60383097D01*
X184925500Y-60146902D01*
X184888553Y-59913631D01*
X184815566Y-59689003D01*
X184759002Y-59577991D01*
X184708343Y-59478567D01*
X184569517Y-59287490D01*
X184402510Y-59120483D01*
X184211433Y-58981657D01*
X184000996Y-58874433D01*
X183776368Y-58801446D01*
X183543097Y-58764500D01*
X183543092Y-58764500D01*
X183306908Y-58764500D01*
X183306903Y-58764500D01*
X183073631Y-58801446D01*
X182849003Y-58874433D01*
X182638566Y-58981657D01*
X182529550Y-59060862D01*
X182447490Y-59120483D01*
X182447488Y-59120485D01*
X182447487Y-59120485D01*
X182280485Y-59287487D01*
X182280485Y-59287488D01*
X182280483Y-59287490D01*
X182164085Y-59447698D01*
X182152687Y-59463386D01*
X182097357Y-59506051D01*
X182052369Y-59514500D01*
X178297631Y-59514500D01*
X178230592Y-59494815D01*
X178197313Y-59463386D01*
X178185915Y-59447698D01*
X178069517Y-59287490D01*
X177902510Y-59120483D01*
X177711433Y-58981657D01*
X177500996Y-58874433D01*
X177276368Y-58801446D01*
X177043097Y-58764500D01*
X177043092Y-58764500D01*
X176806908Y-58764500D01*
X176806903Y-58764500D01*
X176573631Y-58801446D01*
X176349003Y-58874433D01*
X176138566Y-58981657D01*
X176029550Y-59060862D01*
X175947490Y-59120483D01*
X175947488Y-59120485D01*
X175947487Y-59120485D01*
X175780485Y-59287487D01*
X175780485Y-59287488D01*
X175780483Y-59287490D01*
X175720862Y-59369550D01*
X175641657Y-59478566D01*
X175534433Y-59689003D01*
X175461446Y-59913631D01*
X175424500Y-60146902D01*
X175424500Y-60383097D01*
X175447942Y-60531102D01*
X175438988Y-60600395D01*
X175393991Y-60653847D01*
X175327240Y-60674487D01*
X175325469Y-60674500D01*
X174065638Y-60674500D01*
X173998599Y-60654815D01*
X173960099Y-60615597D01*
X173892712Y-60506344D01*
X173768656Y-60382288D01*
X173619334Y-60290186D01*
X173452797Y-60235001D01*
X173452795Y-60235000D01*
X173350010Y-60224500D01*
X172724998Y-60224500D01*
X172724980Y-60224501D01*
X172622203Y-60235000D01*
X172622200Y-60235001D01*
X172455668Y-60290185D01*
X172455663Y-60290187D01*
X172306338Y-60382292D01*
X172301407Y-60386191D01*
X172236611Y-60412329D01*
X172167969Y-60399286D01*
X172117276Y-60351203D01*
X172100500Y-60288922D01*
X172100500Y-57454500D01*
X172120185Y-57387461D01*
X172172989Y-57341706D01*
X172224500Y-57330500D01*
X174350007Y-57330500D01*
X174350012Y-57330500D01*
X174452800Y-57319999D01*
X174619336Y-57264815D01*
X174768657Y-57172712D01*
X174892712Y-57048657D01*
X174984815Y-56899336D01*
X175039999Y-56732800D01*
X175050500Y-56630012D01*
X175050500Y-51229988D01*
X175039999Y-51127200D01*
X174984815Y-50960664D01*
X174945229Y-50896486D01*
X174926789Y-50829095D01*
X174947711Y-50762432D01*
X175001353Y-50717662D01*
X175050768Y-50707390D01*
X180097492Y-50707390D01*
X180125182Y-50715520D01*
G37*
%TD.AperFunction*%
%TA.AperFunction,Conductor*%
G36*
X167656810Y-50709615D02*
G01*
X167664605Y-50708347D01*
X167689858Y-50719319D01*
X167716271Y-50727075D01*
X167721441Y-50733041D01*
X167728687Y-50736190D01*
X167744000Y-50759076D01*
X167762026Y-50779879D01*
X167763149Y-50787695D01*
X167767542Y-50794260D01*
X167768051Y-50821784D01*
X167771970Y-50849037D01*
X167768721Y-50857998D01*
X167768835Y-50864117D01*
X167754771Y-50896485D01*
X167744836Y-50912593D01*
X167715187Y-50960659D01*
X167715184Y-50960666D01*
X167660001Y-51127198D01*
X167649500Y-51229980D01*
X167649500Y-52975500D01*
X167629815Y-53042539D01*
X167577011Y-53088294D01*
X167525500Y-53099500D01*
X166532230Y-53099500D01*
X166465191Y-53079815D01*
X166444549Y-53063181D01*
X166368657Y-52987289D01*
X166368656Y-52987288D01*
X166219334Y-52895186D01*
X166052797Y-52840001D01*
X166052795Y-52840000D01*
X165950010Y-52829500D01*
X164149998Y-52829500D01*
X164149981Y-52829501D01*
X164047203Y-52840000D01*
X164047200Y-52840001D01*
X163880668Y-52895185D01*
X163880663Y-52895187D01*
X163731342Y-52987289D01*
X163607288Y-53111343D01*
X163607285Y-53111347D01*
X163606205Y-53113099D01*
X163605150Y-53114047D01*
X163602807Y-53117011D01*
X163602300Y-53116610D01*
X163598619Y-53119921D01*
X163594381Y-53129203D01*
X163573080Y-53142891D01*
X163554256Y-53159823D01*
X163542620Y-53162466D01*
X163535603Y-53166977D01*
X163500668Y-53172000D01*
X163259729Y-53172000D01*
X163192690Y-53152315D01*
X163172048Y-53135681D01*
X162826952Y-52790585D01*
X162793467Y-52729262D01*
X162791275Y-52690304D01*
X162800500Y-52600009D01*
X162800499Y-51549992D01*
X162789999Y-51447203D01*
X162734814Y-51280666D01*
X162642712Y-51131344D01*
X162518656Y-51007288D01*
X162518655Y-51007287D01*
X162404585Y-50936929D01*
X162357860Y-50884981D01*
X162346637Y-50816019D01*
X162374480Y-50751936D01*
X162432549Y-50713080D01*
X162469681Y-50707390D01*
X167649232Y-50707390D01*
X167656810Y-50709615D01*
G37*
%TD.AperFunction*%
%TD*%
M02*
