%TF.GenerationSoftware,KiCad,Pcbnew,9.0.6*%
%TF.CreationDate,2025-12-27T10:25:56+05:30*%
%TF.ProjectId,30A_Home_Automation_with_ESP32,3330415f-486f-46d6-955f-4175746f6d61,rev?*%
%TF.SameCoordinates,Original*%
%TF.FileFunction,Legend,Bot*%
%TF.FilePolarity,Positive*%
%FSLAX46Y46*%
G04 Gerber Fmt 4.6, Leading zero omitted, Abs format (unit mm)*
G04 Created by KiCad (PCBNEW 9.0.6) date 2025-12-27 10:25:56*
%MOMM*%
%LPD*%
G01*
G04 APERTURE LIST*
%ADD10C,0.200000*%
G04 APERTURE END LIST*
D10*
X121706517Y-78914838D02*
X121801755Y-78867219D01*
X121801755Y-78867219D02*
X121944612Y-78867219D01*
X121944612Y-78867219D02*
X122087469Y-78914838D01*
X122087469Y-78914838D02*
X122182707Y-79010076D01*
X122182707Y-79010076D02*
X122230326Y-79105314D01*
X122230326Y-79105314D02*
X122277945Y-79295790D01*
X122277945Y-79295790D02*
X122277945Y-79438647D01*
X122277945Y-79438647D02*
X122230326Y-79629123D01*
X122230326Y-79629123D02*
X122182707Y-79724361D01*
X122182707Y-79724361D02*
X122087469Y-79819600D01*
X122087469Y-79819600D02*
X121944612Y-79867219D01*
X121944612Y-79867219D02*
X121849374Y-79867219D01*
X121849374Y-79867219D02*
X121706517Y-79819600D01*
X121706517Y-79819600D02*
X121658898Y-79771980D01*
X121658898Y-79771980D02*
X121658898Y-79438647D01*
X121658898Y-79438647D02*
X121849374Y-79438647D01*
X121230326Y-79867219D02*
X121230326Y-78867219D01*
X121230326Y-78867219D02*
X120658898Y-79867219D01*
X120658898Y-79867219D02*
X120658898Y-78867219D01*
X120182707Y-79867219D02*
X120182707Y-78867219D01*
X120182707Y-78867219D02*
X119944612Y-78867219D01*
X119944612Y-78867219D02*
X119801755Y-78914838D01*
X119801755Y-78914838D02*
X119706517Y-79010076D01*
X119706517Y-79010076D02*
X119658898Y-79105314D01*
X119658898Y-79105314D02*
X119611279Y-79295790D01*
X119611279Y-79295790D02*
X119611279Y-79438647D01*
X119611279Y-79438647D02*
X119658898Y-79629123D01*
X119658898Y-79629123D02*
X119706517Y-79724361D01*
X119706517Y-79724361D02*
X119801755Y-79819600D01*
X119801755Y-79819600D02*
X119944612Y-79867219D01*
X119944612Y-79867219D02*
X120182707Y-79867219D01*
X123730326Y-55014219D02*
X123730326Y-54014219D01*
X123730326Y-54014219D02*
X123349374Y-54014219D01*
X123349374Y-54014219D02*
X123254136Y-54061838D01*
X123254136Y-54061838D02*
X123206517Y-54109457D01*
X123206517Y-54109457D02*
X123158898Y-54204695D01*
X123158898Y-54204695D02*
X123158898Y-54347552D01*
X123158898Y-54347552D02*
X123206517Y-54442790D01*
X123206517Y-54442790D02*
X123254136Y-54490409D01*
X123254136Y-54490409D02*
X123349374Y-54538028D01*
X123349374Y-54538028D02*
X123730326Y-54538028D01*
X122730326Y-55014219D02*
X122730326Y-54014219D01*
X122730326Y-54490409D02*
X122158898Y-54490409D01*
X122158898Y-55014219D02*
X122158898Y-54014219D01*
X121730326Y-54728504D02*
X121254136Y-54728504D01*
X121825564Y-55014219D02*
X121492231Y-54014219D01*
X121492231Y-54014219D02*
X121158898Y-55014219D01*
X120873183Y-54966600D02*
X120730326Y-55014219D01*
X120730326Y-55014219D02*
X120492231Y-55014219D01*
X120492231Y-55014219D02*
X120396993Y-54966600D01*
X120396993Y-54966600D02*
X120349374Y-54918980D01*
X120349374Y-54918980D02*
X120301755Y-54823742D01*
X120301755Y-54823742D02*
X120301755Y-54728504D01*
X120301755Y-54728504D02*
X120349374Y-54633266D01*
X120349374Y-54633266D02*
X120396993Y-54585647D01*
X120396993Y-54585647D02*
X120492231Y-54538028D01*
X120492231Y-54538028D02*
X120682707Y-54490409D01*
X120682707Y-54490409D02*
X120777945Y-54442790D01*
X120777945Y-54442790D02*
X120825564Y-54395171D01*
X120825564Y-54395171D02*
X120873183Y-54299933D01*
X120873183Y-54299933D02*
X120873183Y-54204695D01*
X120873183Y-54204695D02*
X120825564Y-54109457D01*
X120825564Y-54109457D02*
X120777945Y-54061838D01*
X120777945Y-54061838D02*
X120682707Y-54014219D01*
X120682707Y-54014219D02*
X120444612Y-54014219D01*
X120444612Y-54014219D02*
X120301755Y-54061838D01*
X119873183Y-54490409D02*
X119539850Y-54490409D01*
X119396993Y-55014219D02*
X119873183Y-55014219D01*
X119873183Y-55014219D02*
X119873183Y-54014219D01*
X119873183Y-54014219D02*
X119396993Y-54014219D01*
X121480326Y-84717219D02*
X121480326Y-83717219D01*
X121004136Y-84717219D02*
X121004136Y-83717219D01*
X121004136Y-83717219D02*
X120432708Y-84717219D01*
X120432708Y-84717219D02*
X120432708Y-83717219D01*
X119432708Y-84717219D02*
X120004136Y-84717219D01*
X119718422Y-84717219D02*
X119718422Y-83717219D01*
X119718422Y-83717219D02*
X119813660Y-83860076D01*
X119813660Y-83860076D02*
X119908898Y-83955314D01*
X119908898Y-83955314D02*
X120004136Y-84002933D01*
X123454136Y-70267219D02*
X123930326Y-70267219D01*
X123930326Y-70267219D02*
X123930326Y-69267219D01*
X122930326Y-69267219D02*
X122739850Y-69267219D01*
X122739850Y-69267219D02*
X122644612Y-69314838D01*
X122644612Y-69314838D02*
X122549374Y-69410076D01*
X122549374Y-69410076D02*
X122501755Y-69600552D01*
X122501755Y-69600552D02*
X122501755Y-69933885D01*
X122501755Y-69933885D02*
X122549374Y-70124361D01*
X122549374Y-70124361D02*
X122644612Y-70219600D01*
X122644612Y-70219600D02*
X122739850Y-70267219D01*
X122739850Y-70267219D02*
X122930326Y-70267219D01*
X122930326Y-70267219D02*
X123025564Y-70219600D01*
X123025564Y-70219600D02*
X123120802Y-70124361D01*
X123120802Y-70124361D02*
X123168421Y-69933885D01*
X123168421Y-69933885D02*
X123168421Y-69600552D01*
X123168421Y-69600552D02*
X123120802Y-69410076D01*
X123120802Y-69410076D02*
X123025564Y-69314838D01*
X123025564Y-69314838D02*
X122930326Y-69267219D01*
X122120802Y-69981504D02*
X121644612Y-69981504D01*
X122216040Y-70267219D02*
X121882707Y-69267219D01*
X121882707Y-69267219D02*
X121549374Y-70267219D01*
X121216040Y-70267219D02*
X121216040Y-69267219D01*
X121216040Y-69267219D02*
X120977945Y-69267219D01*
X120977945Y-69267219D02*
X120835088Y-69314838D01*
X120835088Y-69314838D02*
X120739850Y-69410076D01*
X120739850Y-69410076D02*
X120692231Y-69505314D01*
X120692231Y-69505314D02*
X120644612Y-69695790D01*
X120644612Y-69695790D02*
X120644612Y-69838647D01*
X120644612Y-69838647D02*
X120692231Y-70029123D01*
X120692231Y-70029123D02*
X120739850Y-70124361D01*
X120739850Y-70124361D02*
X120835088Y-70219600D01*
X120835088Y-70219600D02*
X120977945Y-70267219D01*
X120977945Y-70267219D02*
X121216040Y-70267219D01*
X120263659Y-69362457D02*
X120216040Y-69314838D01*
X120216040Y-69314838D02*
X120120802Y-69267219D01*
X120120802Y-69267219D02*
X119882707Y-69267219D01*
X119882707Y-69267219D02*
X119787469Y-69314838D01*
X119787469Y-69314838D02*
X119739850Y-69362457D01*
X119739850Y-69362457D02*
X119692231Y-69457695D01*
X119692231Y-69457695D02*
X119692231Y-69552933D01*
X119692231Y-69552933D02*
X119739850Y-69695790D01*
X119739850Y-69695790D02*
X120311278Y-70267219D01*
X120311278Y-70267219D02*
X119692231Y-70267219D01*
X121580326Y-89817219D02*
X121580326Y-88817219D01*
X121104136Y-89817219D02*
X121104136Y-88817219D01*
X121104136Y-88817219D02*
X120532708Y-89817219D01*
X120532708Y-89817219D02*
X120532708Y-88817219D01*
X120104136Y-88912457D02*
X120056517Y-88864838D01*
X120056517Y-88864838D02*
X119961279Y-88817219D01*
X119961279Y-88817219D02*
X119723184Y-88817219D01*
X119723184Y-88817219D02*
X119627946Y-88864838D01*
X119627946Y-88864838D02*
X119580327Y-88912457D01*
X119580327Y-88912457D02*
X119532708Y-89007695D01*
X119532708Y-89007695D02*
X119532708Y-89102933D01*
X119532708Y-89102933D02*
X119580327Y-89245790D01*
X119580327Y-89245790D02*
X120151755Y-89817219D01*
X120151755Y-89817219D02*
X119532708Y-89817219D01*
X124580326Y-58517219D02*
X124580326Y-57517219D01*
X124580326Y-57517219D02*
X124008898Y-58517219D01*
X124008898Y-58517219D02*
X124008898Y-57517219D01*
X123532707Y-57993409D02*
X123199374Y-57993409D01*
X123056517Y-58517219D02*
X123532707Y-58517219D01*
X123532707Y-58517219D02*
X123532707Y-57517219D01*
X123532707Y-57517219D02*
X123056517Y-57517219D01*
X122627945Y-57517219D02*
X122627945Y-58326742D01*
X122627945Y-58326742D02*
X122580326Y-58421980D01*
X122580326Y-58421980D02*
X122532707Y-58469600D01*
X122532707Y-58469600D02*
X122437469Y-58517219D01*
X122437469Y-58517219D02*
X122246993Y-58517219D01*
X122246993Y-58517219D02*
X122151755Y-58469600D01*
X122151755Y-58469600D02*
X122104136Y-58421980D01*
X122104136Y-58421980D02*
X122056517Y-58326742D01*
X122056517Y-58326742D02*
X122056517Y-57517219D01*
X121723183Y-57517219D02*
X121151755Y-57517219D01*
X121437469Y-58517219D02*
X121437469Y-57517219D01*
X120246993Y-58517219D02*
X120580326Y-58041028D01*
X120818421Y-58517219D02*
X120818421Y-57517219D01*
X120818421Y-57517219D02*
X120437469Y-57517219D01*
X120437469Y-57517219D02*
X120342231Y-57564838D01*
X120342231Y-57564838D02*
X120294612Y-57612457D01*
X120294612Y-57612457D02*
X120246993Y-57707695D01*
X120246993Y-57707695D02*
X120246993Y-57850552D01*
X120246993Y-57850552D02*
X120294612Y-57945790D01*
X120294612Y-57945790D02*
X120342231Y-57993409D01*
X120342231Y-57993409D02*
X120437469Y-58041028D01*
X120437469Y-58041028D02*
X120818421Y-58041028D01*
X119866040Y-58231504D02*
X119389850Y-58231504D01*
X119961278Y-58517219D02*
X119627945Y-57517219D01*
X119627945Y-57517219D02*
X119294612Y-58517219D01*
X118485088Y-58517219D02*
X118961278Y-58517219D01*
X118961278Y-58517219D02*
X118961278Y-57517219D01*
X123154136Y-65060275D02*
X123630326Y-65060275D01*
X123630326Y-65060275D02*
X123630326Y-64060275D01*
X122630326Y-64060275D02*
X122439850Y-64060275D01*
X122439850Y-64060275D02*
X122344612Y-64107894D01*
X122344612Y-64107894D02*
X122249374Y-64203132D01*
X122249374Y-64203132D02*
X122201755Y-64393608D01*
X122201755Y-64393608D02*
X122201755Y-64726941D01*
X122201755Y-64726941D02*
X122249374Y-64917417D01*
X122249374Y-64917417D02*
X122344612Y-65012656D01*
X122344612Y-65012656D02*
X122439850Y-65060275D01*
X122439850Y-65060275D02*
X122630326Y-65060275D01*
X122630326Y-65060275D02*
X122725564Y-65012656D01*
X122725564Y-65012656D02*
X122820802Y-64917417D01*
X122820802Y-64917417D02*
X122868421Y-64726941D01*
X122868421Y-64726941D02*
X122868421Y-64393608D01*
X122868421Y-64393608D02*
X122820802Y-64203132D01*
X122820802Y-64203132D02*
X122725564Y-64107894D01*
X122725564Y-64107894D02*
X122630326Y-64060275D01*
X121820802Y-64774560D02*
X121344612Y-64774560D01*
X121916040Y-65060275D02*
X121582707Y-64060275D01*
X121582707Y-64060275D02*
X121249374Y-65060275D01*
X120916040Y-65060275D02*
X120916040Y-64060275D01*
X120916040Y-64060275D02*
X120677945Y-64060275D01*
X120677945Y-64060275D02*
X120535088Y-64107894D01*
X120535088Y-64107894D02*
X120439850Y-64203132D01*
X120439850Y-64203132D02*
X120392231Y-64298370D01*
X120392231Y-64298370D02*
X120344612Y-64488846D01*
X120344612Y-64488846D02*
X120344612Y-64631703D01*
X120344612Y-64631703D02*
X120392231Y-64822179D01*
X120392231Y-64822179D02*
X120439850Y-64917417D01*
X120439850Y-64917417D02*
X120535088Y-65012656D01*
X120535088Y-65012656D02*
X120677945Y-65060275D01*
X120677945Y-65060275D02*
X120916040Y-65060275D01*
X119392231Y-65060275D02*
X119963659Y-65060275D01*
X119677945Y-65060275D02*
X119677945Y-64060275D01*
X119677945Y-64060275D02*
X119773183Y-64203132D01*
X119773183Y-64203132D02*
X119868421Y-64298370D01*
X119868421Y-64298370D02*
X119963659Y-64345989D01*
M02*
