%TF.GenerationSoftware,KiCad,Pcbnew,9.0.6*%
%TF.CreationDate,2025-12-27T10:25:56+05:30*%
%TF.ProjectId,30A_Home_Automation_with_ESP32,3330415f-486f-46d6-955f-4175746f6d61,rev?*%
%TF.SameCoordinates,Original*%
%TF.FileFunction,Soldermask,Top*%
%TF.FilePolarity,Negative*%
%FSLAX46Y46*%
G04 Gerber Fmt 4.6, Leading zero omitted, Abs format (unit mm)*
G04 Created by KiCad (PCBNEW 9.0.6) date 2025-12-27 10:25:56*
%MOMM*%
%LPD*%
G01*
G04 APERTURE LIST*
G04 Aperture macros list*
%AMRoundRect*
0 Rectangle with rounded corners*
0 $1 Rounding radius*
0 $2 $3 $4 $5 $6 $7 $8 $9 X,Y pos of 4 corners*
0 Add a 4 corners polygon primitive as box body*
4,1,4,$2,$3,$4,$5,$6,$7,$8,$9,$2,$3,0*
0 Add four circle primitives for the rounded corners*
1,1,$1+$1,$2,$3*
1,1,$1+$1,$4,$5*
1,1,$1+$1,$6,$7*
1,1,$1+$1,$8,$9*
0 Add four rect primitives between the rounded corners*
20,1,$1+$1,$2,$3,$4,$5,0*
20,1,$1+$1,$4,$5,$6,$7,0*
20,1,$1+$1,$6,$7,$8,$9,0*
20,1,$1+$1,$8,$9,$2,$3,0*%
G04 Aperture macros list end*
%ADD10RoundRect,0.250000X0.250000X0.475000X-0.250000X0.475000X-0.250000X-0.475000X0.250000X-0.475000X0*%
%ADD11RoundRect,0.250000X-0.600000X-0.750000X0.600000X-0.750000X0.600000X0.750000X-0.600000X0.750000X0*%
%ADD12O,1.700000X2.000000*%
%ADD13RoundRect,0.250000X-0.262500X-0.450000X0.262500X-0.450000X0.262500X0.450000X-0.262500X0.450000X0*%
%ADD14RoundRect,0.250000X0.262500X0.450000X-0.262500X0.450000X-0.262500X-0.450000X0.262500X-0.450000X0*%
%ADD15RoundRect,0.250000X0.550000X-0.550000X0.550000X0.550000X-0.550000X0.550000X-0.550000X-0.550000X0*%
%ADD16C,1.600000*%
%ADD17RoundRect,0.249999X1.550001X-0.790001X1.550001X0.790001X-1.550001X0.790001X-1.550001X-0.790001X0*%
%ADD18O,3.600000X2.080000*%
%ADD19C,2.000000*%
%ADD20C,3.000000*%
%ADD21RoundRect,0.500000X-0.500000X-0.500000X0.500000X-0.500000X0.500000X0.500000X-0.500000X0.500000X0*%
%ADD22R,1.500000X0.900000*%
%ADD23R,0.900000X1.500000*%
%ADD24C,0.600000*%
%ADD25R,4.200000X4.200000*%
%ADD26C,0.800000*%
%ADD27C,5.400000*%
%ADD28C,2.154000*%
%ADD29RoundRect,0.250000X0.450000X-0.262500X0.450000X0.262500X-0.450000X0.262500X-0.450000X-0.262500X0*%
%ADD30R,1.700000X1.700000*%
%ADD31C,1.700000*%
%ADD32R,1.500000X1.050000*%
%ADD33O,1.500000X1.050000*%
%ADD34RoundRect,0.243750X-0.243750X-0.456250X0.243750X-0.456250X0.243750X0.456250X-0.243750X0.456250X0*%
%ADD35RoundRect,0.250000X-0.850000X-0.350000X0.850000X-0.350000X0.850000X0.350000X-0.850000X0.350000X0*%
%ADD36RoundRect,0.249997X-2.950003X-2.650003X2.950003X-2.650003X2.950003X2.650003X-2.950003X2.650003X0*%
%ADD37R,1.050000X1.500000*%
%ADD38O,1.050000X1.500000*%
G04 APERTURE END LIST*
D10*
%TO.C,C1*%
X161800000Y-55425000D03*
X159900000Y-55425000D03*
%TD*%
D11*
%TO.C,PS1*%
X124787500Y-59725000D03*
D12*
X124787500Y-64725000D03*
X153867500Y-54725000D03*
X153867500Y-69725000D03*
%TD*%
D13*
%TO.C,R1*%
X148862500Y-108150000D03*
X150687500Y-108150000D03*
%TD*%
D14*
%TO.C,R8*%
X173112500Y-64625000D03*
X171287500Y-64625000D03*
%TD*%
D15*
%TO.C,U3*%
X150375000Y-93930000D03*
D16*
X152915000Y-93930000D03*
X152915000Y-86310000D03*
X150375000Y-86310000D03*
%TD*%
D15*
%TO.C,D3*%
X143925000Y-89810000D03*
D16*
X143925000Y-82190000D03*
%TD*%
D14*
%TO.C,R7*%
X173037500Y-61425000D03*
X171212500Y-61425000D03*
%TD*%
D17*
%TO.C,J3*%
X116075000Y-89400000D03*
D18*
X116075000Y-84320000D03*
X116075000Y-79240000D03*
%TD*%
D17*
%TO.C,J2*%
X116050000Y-69775000D03*
D18*
X116050000Y-64695000D03*
X116050000Y-59615000D03*
X116050000Y-54535000D03*
%TD*%
D19*
%TO.C,SW1*%
X176925000Y-60265000D03*
X183425000Y-60265000D03*
X176925000Y-64765000D03*
X183425000Y-64765000D03*
%TD*%
D20*
%TO.C,K1*%
X123215000Y-117450000D03*
X120675000Y-99650000D03*
D21*
X135875000Y-113650000D03*
D19*
X135875000Y-103450000D03*
%TD*%
D22*
%TO.C,U1*%
X176275000Y-114535000D03*
X176275000Y-113265000D03*
X176275000Y-111995000D03*
X176275000Y-110725000D03*
X176275000Y-109455000D03*
X176275000Y-108185000D03*
X176275000Y-106915000D03*
X176275000Y-105645000D03*
X176275000Y-104375000D03*
X176275000Y-103105000D03*
X176275000Y-101835000D03*
X176275000Y-100565000D03*
X176275000Y-99295000D03*
X176275000Y-98025000D03*
D23*
X173235000Y-96775000D03*
X171965000Y-96775000D03*
X170695000Y-96775000D03*
X169425000Y-96775000D03*
X168155000Y-96775000D03*
X166885000Y-96775000D03*
X165615000Y-96775000D03*
X164345000Y-96775000D03*
X163075000Y-96775000D03*
X161805000Y-96775000D03*
D22*
X158775000Y-98025000D03*
X158775000Y-99295000D03*
X158775000Y-100565000D03*
X158775000Y-101835000D03*
X158775000Y-103105000D03*
X158775000Y-104375000D03*
X158775000Y-105645000D03*
X158775000Y-106915000D03*
X158775000Y-108185000D03*
X158775000Y-109455000D03*
X158775000Y-110725000D03*
X158775000Y-111995000D03*
X158775000Y-113265000D03*
X158775000Y-114535000D03*
D24*
X169730000Y-107957500D03*
X169730000Y-106432500D03*
X168967500Y-108720000D03*
X168967500Y-107195000D03*
X168967500Y-105670000D03*
X168205000Y-107957500D03*
D25*
X168205000Y-107195000D03*
D24*
X168205000Y-106432500D03*
X167442500Y-108720000D03*
X167442500Y-107195000D03*
X167442500Y-105670000D03*
X166680000Y-107957500D03*
X166680000Y-106432500D03*
%TD*%
D26*
%TO.C,H4*%
X180175000Y-110700000D03*
X180768109Y-109268109D03*
X180768109Y-112131891D03*
X182200000Y-108675000D03*
D27*
X182200000Y-110700000D03*
D26*
X182200000Y-112725000D03*
X183631891Y-109268109D03*
X183631891Y-112131891D03*
X184225000Y-110700000D03*
%TD*%
D14*
%TO.C,R5*%
X167212500Y-62025000D03*
X165387500Y-62025000D03*
%TD*%
D26*
%TO.C,H2*%
X149356891Y-112481891D03*
X149950000Y-111050000D03*
X149950000Y-113913782D03*
X151381891Y-110456891D03*
D27*
X151381891Y-112481891D03*
D26*
X151381891Y-114506891D03*
X152813782Y-111050000D03*
X152813782Y-113913782D03*
X153406891Y-112481891D03*
%TD*%
D28*
%TO.C,K2*%
X136525000Y-89475000D03*
X136525000Y-77475000D03*
X138525000Y-83475000D03*
X124325000Y-89475000D03*
X124325000Y-77475000D03*
%TD*%
D26*
%TO.C,H1*%
X152450000Y-77275000D03*
X153043109Y-75843109D03*
X153043109Y-78706891D03*
X154475000Y-75250000D03*
D27*
X154475000Y-77275000D03*
D26*
X154475000Y-79300000D03*
X155906891Y-75843109D03*
X155906891Y-78706891D03*
X156500000Y-77275000D03*
%TD*%
D29*
%TO.C,R4*%
X149475000Y-80962500D03*
X149475000Y-79137500D03*
%TD*%
D10*
%TO.C,C2*%
X161800000Y-52075000D03*
X159900000Y-52075000D03*
%TD*%
D26*
%TO.C,H3*%
X180175000Y-53406891D03*
X180768109Y-51975000D03*
X180768109Y-54838782D03*
X182200000Y-51381891D03*
D27*
X182200000Y-53406891D03*
D26*
X182200000Y-55431891D03*
X183631891Y-51975000D03*
X183631891Y-54838782D03*
X184225000Y-53406891D03*
%TD*%
D15*
%TO.C,D2*%
X145325000Y-111995000D03*
D16*
X145325000Y-104375000D03*
%TD*%
D30*
%TO.C,J1*%
X180750000Y-73710000D03*
D31*
X180750000Y-76250000D03*
X180750000Y-78790000D03*
X180750000Y-81330000D03*
%TD*%
D29*
%TO.C,R3*%
X138250000Y-94775000D03*
X138250000Y-92950000D03*
%TD*%
%TO.C,R2*%
X147125000Y-87387500D03*
X147125000Y-85562500D03*
%TD*%
D32*
%TO.C,Q1*%
X144435000Y-96265000D03*
D33*
X144435000Y-94995000D03*
X144435000Y-93725000D03*
%TD*%
D34*
%TO.C,D1*%
X160787500Y-61950000D03*
X162662500Y-61950000D03*
%TD*%
D15*
%TO.C,U2*%
X149775000Y-105530000D03*
D16*
X152315000Y-105530000D03*
X152315000Y-97910000D03*
X149775000Y-97910000D03*
%TD*%
D14*
%TO.C,R6*%
X167387500Y-65325000D03*
X165562500Y-65325000D03*
%TD*%
D19*
%TO.C,SW2*%
X176650000Y-89040000D03*
X183150000Y-89040000D03*
X176650000Y-93540000D03*
X183150000Y-93540000D03*
%TD*%
D35*
%TO.C,U4*%
X165050000Y-51650000D03*
X165050000Y-53930000D03*
D36*
X171350000Y-53930000D03*
D35*
X165050000Y-56210000D03*
%TD*%
D37*
%TO.C,Q2*%
X142480000Y-77010000D03*
D38*
X143750000Y-77010000D03*
X145020000Y-77010000D03*
%TD*%
D34*
%TO.C,D4*%
X160987500Y-65325000D03*
X162862500Y-65325000D03*
%TD*%
M02*
