M48
; DRILL file {KiCad 9.0.6} date 2025-12-27T10:25:34+0530
; FORMAT={-:-/ absolute / metric / decimal}
; #@! TF.CreationDate,2025-12-27T10:25:34+05:30
; #@! TF.GenerationSoftware,Kicad,Pcbnew,9.0.6
; #@! TF.FileFunction,Plated,1,2,PTH
FMAT,2
METRIC
; #@! TA.AperFunction,Plated,PTH,ComponentDrill
T1C0.200
; #@! TA.AperFunction,Plated,PTH,ViaDrill
T2C0.300
; #@! TA.AperFunction,Plated,PTH,ComponentDrill
T3C0.500
; #@! TA.AperFunction,Plated,PTH,ComponentDrill
T4C0.750
; #@! TA.AperFunction,Plated,PTH,ComponentDrill
T5C0.800
; #@! TA.AperFunction,Plated,PTH,ComponentDrill
T6C1.000
; #@! TA.AperFunction,Plated,PTH,ComponentDrill
T7C1.100
; #@! TA.AperFunction,Plated,PTH,ComponentDrill
T8C1.300
; #@! TA.AperFunction,Plated,PTH,ComponentDrill
T9C1.400
; #@! TA.AperFunction,Plated,PTH,ComponentDrill
T10C1.600
; #@! TA.AperFunction,Plated,PTH,ComponentDrill
T11C2.700
%
G90
G05
T1
X166.68Y-106.432
X166.68Y-107.957
X167.442Y-105.67
X167.442Y-107.195
X167.442Y-108.72
X168.205Y-106.432
X168.205Y-107.957
X168.968Y-105.67
X168.968Y-107.195
X168.968Y-108.72
X169.73Y-106.432
X169.73Y-107.957
T2
X144.612Y-100.787
X144.95Y-98.3
X146.625Y-83.45
X151.15Y-82.55
X152.575Y-108.675
X156.8Y-109.85
X158.6Y-51.05
X160.8Y-94.625
X161.7Y-109.8
X163.15Y-51.1
X163.7Y-110.3
X168.625Y-103.45
X169.1Y-101.525
X174.425Y-63.4
X174.675Y-74.2
X176.45Y-76.5
X178.35Y-105.0
X179.4Y-84.125
T3
X149.357Y-112.482
X149.95Y-111.05
X149.95Y-113.914
X151.382Y-110.457
X151.382Y-114.507
X152.45Y-77.275
X152.814Y-111.05
X152.814Y-113.914
X153.043Y-75.843
X153.043Y-78.707
X153.407Y-112.482
X154.475Y-75.25
X154.475Y-79.3
X155.907Y-75.843
X155.907Y-78.707
X156.5Y-77.275
X180.175Y-53.407
X180.175Y-110.7
X180.768Y-51.975
X180.768Y-54.839
X180.768Y-109.268
X180.768Y-112.132
X182.2Y-51.382
X182.2Y-55.432
X182.2Y-108.675
X182.2Y-112.725
X183.632Y-51.975
X183.632Y-54.839
X183.632Y-109.268
X183.632Y-112.132
X184.225Y-53.407
X184.225Y-110.7
T4
X142.48Y-77.01
X143.75Y-77.01
X144.435Y-93.725
X144.435Y-94.995
X144.435Y-96.265
X145.02Y-77.01
T5
X143.925Y-82.19
X143.925Y-89.81
X145.325Y-104.375
X145.325Y-111.995
X149.775Y-97.91
X149.775Y-105.53
X150.375Y-86.31
X150.375Y-93.93
X152.315Y-97.91
X152.315Y-105.53
X152.915Y-86.31
X152.915Y-93.93
T6
X124.787Y-59.725
X124.787Y-64.725
X153.868Y-54.725
X153.868Y-69.725
X180.75Y-73.71
X180.75Y-76.25
X180.75Y-78.79
X180.75Y-81.33
T7
X135.875Y-103.45
X135.875Y-113.65
X176.65Y-89.04
X176.65Y-93.54
X176.925Y-60.265
X176.925Y-64.765
X183.15Y-89.04
X183.15Y-93.54
X183.425Y-60.265
X183.425Y-64.765
T8
X124.325Y-77.475
X124.325Y-89.475
X136.525Y-77.475
X136.525Y-89.475
X138.525Y-83.475
T9
X116.05Y-54.535
X116.05Y-59.615
X116.05Y-64.695
X116.05Y-69.775
X116.075Y-79.24
X116.075Y-84.32
X116.075Y-89.4
T10
X120.675Y-99.65
X123.215Y-117.45
T11
X151.382Y-112.482
X154.475Y-77.275
X182.2Y-53.407
X182.2Y-110.7
M30
