%TF.GenerationSoftware,KiCad,Pcbnew,9.0.6*%
%TF.CreationDate,2025-12-27T10:25:56+05:30*%
%TF.ProjectId,30A_Home_Automation_with_ESP32,3330415f-486f-46d6-955f-4175746f6d61,rev?*%
%TF.SameCoordinates,Original*%
%TF.FileFunction,Copper,L2,Bot*%
%TF.FilePolarity,Positive*%
%FSLAX46Y46*%
G04 Gerber Fmt 4.6, Leading zero omitted, Abs format (unit mm)*
G04 Created by KiCad (PCBNEW 9.0.6) date 2025-12-27 10:25:56*
%MOMM*%
%LPD*%
G01*
G04 APERTURE LIST*
G04 Aperture macros list*
%AMRoundRect*
0 Rectangle with rounded corners*
0 $1 Rounding radius*
0 $2 $3 $4 $5 $6 $7 $8 $9 X,Y pos of 4 corners*
0 Add a 4 corners polygon primitive as box body*
4,1,4,$2,$3,$4,$5,$6,$7,$8,$9,$2,$3,0*
0 Add four circle primitives for the rounded corners*
1,1,$1+$1,$2,$3*
1,1,$1+$1,$4,$5*
1,1,$1+$1,$6,$7*
1,1,$1+$1,$8,$9*
0 Add four rect primitives between the rounded corners*
20,1,$1+$1,$2,$3,$4,$5,0*
20,1,$1+$1,$4,$5,$6,$7,0*
20,1,$1+$1,$6,$7,$8,$9,0*
20,1,$1+$1,$8,$9,$2,$3,0*%
G04 Aperture macros list end*
%TA.AperFunction,ComponentPad*%
%ADD10RoundRect,0.250000X-0.600000X-0.750000X0.600000X-0.750000X0.600000X0.750000X-0.600000X0.750000X0*%
%TD*%
%TA.AperFunction,ComponentPad*%
%ADD11O,1.700000X2.000000*%
%TD*%
%TA.AperFunction,ComponentPad*%
%ADD12RoundRect,0.250000X0.550000X-0.550000X0.550000X0.550000X-0.550000X0.550000X-0.550000X-0.550000X0*%
%TD*%
%TA.AperFunction,ComponentPad*%
%ADD13C,1.600000*%
%TD*%
%TA.AperFunction,ComponentPad*%
%ADD14RoundRect,0.249999X1.550001X-0.790001X1.550001X0.790001X-1.550001X0.790001X-1.550001X-0.790001X0*%
%TD*%
%TA.AperFunction,ComponentPad*%
%ADD15O,3.600000X2.080000*%
%TD*%
%TA.AperFunction,ComponentPad*%
%ADD16C,2.000000*%
%TD*%
%TA.AperFunction,ComponentPad*%
%ADD17C,3.000000*%
%TD*%
%TA.AperFunction,ComponentPad*%
%ADD18RoundRect,0.500000X-0.500000X-0.500000X0.500000X-0.500000X0.500000X0.500000X-0.500000X0.500000X0*%
%TD*%
%TA.AperFunction,HeatsinkPad*%
%ADD19C,0.600000*%
%TD*%
%TA.AperFunction,ComponentPad*%
%ADD20C,0.800000*%
%TD*%
%TA.AperFunction,ComponentPad*%
%ADD21C,5.400000*%
%TD*%
%TA.AperFunction,ComponentPad*%
%ADD22C,1.950000*%
%TD*%
%TA.AperFunction,ComponentPad*%
%ADD23R,1.700000X1.700000*%
%TD*%
%TA.AperFunction,ComponentPad*%
%ADD24C,1.700000*%
%TD*%
%TA.AperFunction,ComponentPad*%
%ADD25R,1.500000X1.050000*%
%TD*%
%TA.AperFunction,ComponentPad*%
%ADD26O,1.500000X1.050000*%
%TD*%
%TA.AperFunction,ComponentPad*%
%ADD27R,1.050000X1.500000*%
%TD*%
%TA.AperFunction,ComponentPad*%
%ADD28O,1.050000X1.500000*%
%TD*%
%TA.AperFunction,ViaPad*%
%ADD29C,0.600000*%
%TD*%
%TA.AperFunction,Conductor*%
%ADD30C,0.500000*%
%TD*%
%TA.AperFunction,Conductor*%
%ADD31C,2.500000*%
%TD*%
G04 APERTURE END LIST*
D10*
%TO.P,PS1,1,AC/L*%
%TO.N,/P*%
X124787500Y-59725000D03*
D11*
%TO.P,PS1,2,AC/N*%
%TO.N,/N*%
X124787500Y-64725000D03*
%TO.P,PS1,3,-Vout*%
%TO.N,GND*%
X153867500Y-54725000D03*
%TO.P,PS1,4,+Vout*%
%TO.N,/5V*%
X153867500Y-69725000D03*
%TD*%
D12*
%TO.P,U3,1*%
%TO.N,Net-(R2-Pad1)*%
X150375000Y-93930000D03*
D13*
%TO.P,U3,2*%
%TO.N,GND*%
X152915000Y-93930000D03*
%TO.P,U3,3*%
%TO.N,Net-(R4-Pad1)*%
X152915000Y-86310000D03*
%TO.P,U3,4*%
%TO.N,GND*%
X150375000Y-86310000D03*
%TD*%
D12*
%TO.P,D3,1,K*%
%TO.N,/5V*%
X143925000Y-89810000D03*
D13*
%TO.P,D3,2,A*%
%TO.N,Net-(D3-A)*%
X143925000Y-82190000D03*
%TD*%
D14*
%TO.P,J3,1,Pin_1*%
%TO.N,/IN1*%
X116075000Y-89400000D03*
D15*
%TO.P,J3,2,Pin_2*%
%TO.N,/IN2*%
X116075000Y-84320000D03*
%TO.P,J3,3,Pin_3*%
%TO.N,GND*%
X116075000Y-79240000D03*
%TD*%
D14*
%TO.P,J2,1,Pin_1*%
%TO.N,/L2*%
X116050000Y-69775000D03*
D15*
%TO.P,J2,2,Pin_2*%
%TO.N,/L1*%
X116050000Y-64695000D03*
%TO.P,J2,3,Pin_3*%
%TO.N,/N*%
X116050000Y-59615000D03*
%TO.P,J2,4,Pin_4*%
%TO.N,/P*%
X116050000Y-54535000D03*
%TD*%
D16*
%TO.P,SW1,1,1*%
%TO.N,/BOOT*%
X176925000Y-60265000D03*
X183425000Y-60265000D03*
%TO.P,SW1,2,2*%
%TO.N,GND*%
X176925000Y-64765000D03*
X183425000Y-64765000D03*
%TD*%
D17*
%TO.P,K1,13*%
%TO.N,/L1*%
X123215000Y-117450000D03*
%TO.P,K1,14*%
%TO.N,/P*%
X120675000Y-99650000D03*
D18*
%TO.P,K1,A1*%
%TO.N,/5V*%
X135875000Y-113650000D03*
D16*
%TO.P,K1,A2*%
%TO.N,Net-(D2-A)*%
X135875000Y-103450000D03*
%TD*%
D19*
%TO.P,U1,39,GND*%
%TO.N,GND*%
X169730000Y-107957500D03*
X169730000Y-106432500D03*
X168967500Y-108720000D03*
X168967500Y-107195000D03*
X168967500Y-105670000D03*
X168205000Y-107957500D03*
X168205000Y-106432500D03*
X167442500Y-108720000D03*
X167442500Y-107195000D03*
X167442500Y-105670000D03*
X166680000Y-107957500D03*
X166680000Y-106432500D03*
%TD*%
D20*
%TO.P,H4,1,1*%
%TO.N,unconnected-(H4-Pad1)*%
X180175000Y-110700000D03*
X180768109Y-109268109D03*
X180768109Y-112131891D03*
X182200000Y-108675000D03*
D21*
X182200000Y-110700000D03*
D20*
X182200000Y-112725000D03*
X183631891Y-109268109D03*
X183631891Y-112131891D03*
X184225000Y-110700000D03*
%TD*%
%TO.P,H2,1,1*%
%TO.N,unconnected-(H2-Pad1)*%
X149356891Y-112481891D03*
X149950000Y-111050000D03*
X149950000Y-113913782D03*
X151381891Y-110456891D03*
D21*
X151381891Y-112481891D03*
D20*
X151381891Y-114506891D03*
X152813782Y-111050000D03*
X152813782Y-113913782D03*
X153406891Y-112481891D03*
%TD*%
D22*
%TO.P,K2,A1*%
%TO.N,/5V*%
X136525000Y-89475000D03*
%TO.P,K2,A2*%
%TO.N,Net-(D3-A)*%
X136525000Y-77475000D03*
%TO.P,K2,COM*%
%TO.N,/P*%
X138525000Y-83475000D03*
%TO.P,K2,NC*%
%TO.N,unconnected-(K2-PadNC)*%
X124325000Y-89475000D03*
%TO.P,K2,NO*%
%TO.N,/L2*%
X124325000Y-77475000D03*
%TD*%
D20*
%TO.P,H1,1,1*%
%TO.N,unconnected-(H1-Pad1)*%
X152450000Y-77275000D03*
X153043109Y-75843109D03*
X153043109Y-78706891D03*
X154475000Y-75250000D03*
D21*
X154475000Y-77275000D03*
D20*
X154475000Y-79300000D03*
X155906891Y-75843109D03*
X155906891Y-78706891D03*
X156500000Y-77275000D03*
%TD*%
%TO.P,H3,1,1*%
%TO.N,unconnected-(H3-Pad1)*%
X180175000Y-53406891D03*
X180768109Y-51975000D03*
X180768109Y-54838782D03*
X182200000Y-51381891D03*
D21*
X182200000Y-53406891D03*
D20*
X182200000Y-55431891D03*
X183631891Y-51975000D03*
X183631891Y-54838782D03*
X184225000Y-53406891D03*
%TD*%
D12*
%TO.P,D2,1,K*%
%TO.N,/5V*%
X145325000Y-111995000D03*
D13*
%TO.P,D2,2,A*%
%TO.N,Net-(D2-A)*%
X145325000Y-104375000D03*
%TD*%
D23*
%TO.P,J1,1,Pin_1*%
%TO.N,/TXD*%
X180750000Y-73710000D03*
D24*
%TO.P,J1,2,Pin_2*%
%TO.N,/RXD*%
X180750000Y-76250000D03*
%TO.P,J1,3,Pin_3*%
%TO.N,GND*%
X180750000Y-78790000D03*
%TO.P,J1,4,Pin_4*%
%TO.N,/3V3*%
X180750000Y-81330000D03*
%TD*%
D25*
%TO.P,Q1,1,E*%
%TO.N,GND*%
X144435000Y-96265000D03*
D26*
%TO.P,Q1,2,B*%
%TO.N,Net-(Q1-B)*%
X144435000Y-94995000D03*
%TO.P,Q1,3,C*%
%TO.N,Net-(D2-A)*%
X144435000Y-93725000D03*
%TD*%
D12*
%TO.P,U2,1*%
%TO.N,Net-(R1-Pad1)*%
X149775000Y-105530000D03*
D13*
%TO.P,U2,2*%
%TO.N,GND*%
X152315000Y-105530000D03*
%TO.P,U2,3*%
%TO.N,Net-(R3-Pad2)*%
X152315000Y-97910000D03*
%TO.P,U2,4*%
%TO.N,GND*%
X149775000Y-97910000D03*
%TD*%
D16*
%TO.P,SW2,1,1*%
%TO.N,/EW*%
X176650000Y-89040000D03*
X183150000Y-89040000D03*
%TO.P,SW2,2,2*%
%TO.N,GND*%
X176650000Y-93540000D03*
X183150000Y-93540000D03*
%TD*%
D27*
%TO.P,Q2,1,E*%
%TO.N,GND*%
X142480000Y-77010000D03*
D28*
%TO.P,Q2,2,B*%
%TO.N,Net-(Q2-B)*%
X143750000Y-77010000D03*
%TO.P,Q2,3,C*%
%TO.N,Net-(D3-A)*%
X145020000Y-77010000D03*
%TD*%
D29*
%TO.N,/5V*%
X151150000Y-82550000D03*
X146625000Y-83450000D03*
%TO.N,GND*%
X163150000Y-51100000D03*
X158600000Y-51050000D03*
%TO.N,/3V3*%
X179400000Y-84125000D03*
X178350000Y-105000000D03*
%TO.N,/RXD*%
X176450000Y-76500000D03*
X161700000Y-109800000D03*
%TO.N,/TXD*%
X163700000Y-110300000D03*
X174675000Y-74200000D03*
%TO.N,/IN1*%
X168625000Y-103450000D03*
X144612500Y-100787500D03*
%TO.N,/IN2*%
X144950000Y-98300000D03*
X169100000Y-101525000D03*
%TO.N,/R1*%
X156800000Y-109850000D03*
X152575000Y-108675000D03*
%TO.N,/BOOT*%
X160800000Y-94625000D03*
X174425000Y-63400000D03*
%TD*%
D30*
%TO.N,/5V*%
X146625000Y-83450000D02*
X150250000Y-83450000D01*
X150250000Y-83450000D02*
X151150000Y-82550000D01*
X135875000Y-113650000D02*
X131800000Y-109575000D01*
X136525000Y-89650000D02*
X136525000Y-89475000D01*
X143670000Y-113650000D02*
X145325000Y-111995000D01*
X135875000Y-113650000D02*
X143670000Y-113650000D01*
X131800000Y-94375000D02*
X136525000Y-89650000D01*
X131800000Y-109575000D02*
X131800000Y-94375000D01*
%TO.N,/3V3*%
X178350000Y-104300000D02*
X179400000Y-103250000D01*
X179400000Y-103250000D02*
X179400000Y-84125000D01*
X178350000Y-105000000D02*
X178350000Y-104300000D01*
%TO.N,Net-(D3-A)*%
X136525000Y-77475000D02*
X138600000Y-75400000D01*
X145020000Y-77345272D02*
X145020000Y-77010000D01*
X143745272Y-75400000D02*
X144726000Y-76380728D01*
X144726000Y-76380728D02*
X144726000Y-77051272D01*
X138600000Y-75400000D02*
X143745272Y-75400000D01*
X144726000Y-77051272D02*
X145020000Y-77345272D01*
%TO.N,/RXD*%
X173150000Y-110675000D02*
X171300000Y-112525000D01*
X161700000Y-111425000D02*
X161700000Y-109800000D01*
X176450000Y-76500000D02*
X173150000Y-79800000D01*
X173150000Y-79800000D02*
X173150000Y-110675000D01*
X162800000Y-112525000D02*
X161700000Y-111425000D01*
X171300000Y-112525000D02*
X170975000Y-112525000D01*
X170975000Y-112525000D02*
X162800000Y-112525000D01*
%TO.N,/TXD*%
X171575000Y-108175000D02*
X171575000Y-77300000D01*
X171575000Y-108175000D02*
X171575000Y-109000000D01*
X170275000Y-110300000D02*
X163700000Y-110300000D01*
X171575000Y-77300000D02*
X174675000Y-74200000D01*
X170775000Y-109800000D02*
X170275000Y-110300000D01*
X171575000Y-109000000D02*
X170775000Y-109800000D01*
D31*
%TO.N,/L1*%
X119270000Y-64695000D02*
X120925000Y-66350000D01*
X123215000Y-111365000D02*
X123215000Y-117450000D01*
X116675000Y-96450000D02*
X116675000Y-104825000D01*
X120925000Y-66350000D02*
X120925000Y-92200000D01*
X116050000Y-64695000D02*
X119270000Y-64695000D01*
X116675000Y-104825000D02*
X123215000Y-111365000D01*
X120925000Y-92200000D02*
X116675000Y-96450000D01*
%TO.N,/P*%
X130200000Y-61425000D02*
X130200000Y-78076288D01*
X128000000Y-83050000D02*
X131586856Y-79463144D01*
X130200000Y-78076288D02*
X135598712Y-83475000D01*
X124850000Y-99650000D02*
X128000000Y-96500000D01*
X124787500Y-59725000D02*
X128500000Y-59725000D01*
X121460000Y-54535000D02*
X124787500Y-57862500D01*
X135598712Y-83475000D02*
X138450000Y-83475000D01*
X120675000Y-99650000D02*
X124850000Y-99650000D01*
X116050000Y-54535000D02*
X121460000Y-54535000D01*
X128000000Y-96500000D02*
X128000000Y-83050000D01*
X128500000Y-59725000D02*
X130200000Y-61425000D01*
X124787500Y-57862500D02*
X124787500Y-59725000D01*
D30*
%TO.N,/IN1*%
X168625000Y-103450000D02*
X168700000Y-103450000D01*
X147275000Y-103450000D02*
X168625000Y-103450000D01*
X144612500Y-100787500D02*
X147275000Y-103450000D01*
%TO.N,/IN2*%
X148175000Y-101525000D02*
X169100000Y-101525000D01*
X144950000Y-98300000D02*
X148175000Y-101525000D01*
%TO.N,/R1*%
X155625000Y-108675000D02*
X156800000Y-109850000D01*
X152575000Y-108675000D02*
X155625000Y-108675000D01*
%TO.N,/BOOT*%
X174425000Y-66250000D02*
X170175000Y-70500000D01*
X169650000Y-92450000D02*
X167475000Y-94625000D01*
X170175000Y-91900000D02*
X169650000Y-92425000D01*
X167475000Y-94625000D02*
X160800000Y-94625000D01*
X170175000Y-70500000D02*
X170175000Y-91900000D01*
X160800000Y-94625000D02*
X160750000Y-94625000D01*
X174425000Y-63400000D02*
X174425000Y-66250000D01*
X169650000Y-92425000D02*
X169650000Y-92450000D01*
%TD*%
%TA.AperFunction,Conductor*%
%TO.N,GND*%
G36*
X180164531Y-50727075D02*
G01*
X180210286Y-50779879D01*
X180220230Y-50849037D01*
X180191205Y-50912593D01*
X180174804Y-50928337D01*
X180064003Y-51016696D01*
X179809811Y-51270888D01*
X179585684Y-51551936D01*
X179394432Y-51856311D01*
X179238465Y-52180179D01*
X179119741Y-52519471D01*
X179119737Y-52519483D01*
X179039748Y-52869939D01*
X179039746Y-52869955D01*
X178999500Y-53227150D01*
X178999500Y-53586631D01*
X179039746Y-53943826D01*
X179039748Y-53943842D01*
X179119737Y-54294298D01*
X179119741Y-54294310D01*
X179238465Y-54633602D01*
X179394432Y-54957470D01*
X179407297Y-54977944D01*
X179585685Y-55261847D01*
X179809812Y-55542894D01*
X180063997Y-55797079D01*
X180345044Y-56021206D01*
X180649418Y-56212457D01*
X180973292Y-56368427D01*
X181228119Y-56457594D01*
X181312580Y-56487149D01*
X181312592Y-56487153D01*
X181663052Y-56567143D01*
X182020260Y-56607390D01*
X182020261Y-56607391D01*
X182020264Y-56607391D01*
X182379739Y-56607391D01*
X182379739Y-56607390D01*
X182736948Y-56567143D01*
X183087408Y-56487153D01*
X183426708Y-56368427D01*
X183750582Y-56212457D01*
X184054956Y-56021206D01*
X184336003Y-55797079D01*
X184590188Y-55542894D01*
X184814315Y-55261847D01*
X184963617Y-55024233D01*
X185015951Y-54977944D01*
X185085004Y-54967295D01*
X185148852Y-54995671D01*
X185187225Y-55054060D01*
X185192610Y-55090207D01*
X185192610Y-109016683D01*
X185172925Y-109083722D01*
X185120121Y-109129477D01*
X185050963Y-109139421D01*
X184987407Y-109110396D01*
X184963616Y-109082655D01*
X184945719Y-109054172D01*
X184814315Y-108845044D01*
X184590188Y-108563997D01*
X184336003Y-108309812D01*
X184318466Y-108295827D01*
X184264626Y-108252891D01*
X184054956Y-108085685D01*
X183767813Y-107905261D01*
X183750579Y-107894432D01*
X183426711Y-107738465D01*
X183087419Y-107619741D01*
X183087407Y-107619737D01*
X182736951Y-107539748D01*
X182736935Y-107539746D01*
X182379740Y-107499500D01*
X182379736Y-107499500D01*
X182020264Y-107499500D01*
X182020259Y-107499500D01*
X181663064Y-107539746D01*
X181663048Y-107539748D01*
X181312592Y-107619737D01*
X181312580Y-107619741D01*
X180973288Y-107738465D01*
X180649420Y-107894432D01*
X180345045Y-108085684D01*
X180063997Y-108309811D01*
X179809811Y-108563997D01*
X179585684Y-108845045D01*
X179394432Y-109149420D01*
X179238465Y-109473288D01*
X179119741Y-109812580D01*
X179119737Y-109812592D01*
X179039748Y-110163048D01*
X179039746Y-110163064D01*
X178999500Y-110520259D01*
X178999500Y-110879740D01*
X179039746Y-111236935D01*
X179039748Y-111236951D01*
X179119737Y-111587407D01*
X179119741Y-111587419D01*
X179238465Y-111926711D01*
X179394432Y-112250579D01*
X179406918Y-112270450D01*
X179585685Y-112554956D01*
X179809812Y-112836003D01*
X180063997Y-113090188D01*
X180345044Y-113314315D01*
X180649418Y-113505566D01*
X180973292Y-113661536D01*
X181228119Y-113750703D01*
X181312580Y-113780258D01*
X181312592Y-113780262D01*
X181663052Y-113860252D01*
X182020260Y-113900499D01*
X182020261Y-113900500D01*
X182020264Y-113900500D01*
X182379739Y-113900500D01*
X182379739Y-113900499D01*
X182736948Y-113860252D01*
X183087408Y-113780262D01*
X183426708Y-113661536D01*
X183750582Y-113505566D01*
X184054956Y-113314315D01*
X184336003Y-113090188D01*
X184590188Y-112836003D01*
X184814315Y-112554956D01*
X184963617Y-112317342D01*
X185015951Y-112271053D01*
X185085004Y-112260404D01*
X185148852Y-112288780D01*
X185187225Y-112347169D01*
X185192610Y-112383316D01*
X185192610Y-115961000D01*
X185172925Y-116028039D01*
X185120121Y-116073794D01*
X185068610Y-116085000D01*
X177207073Y-116085000D01*
X177140034Y-116065315D01*
X177094279Y-116012511D01*
X177087300Y-115993101D01*
X177077923Y-115958104D01*
X177020998Y-115859506D01*
X176940494Y-115779002D01*
X176841896Y-115722077D01*
X176841897Y-115722077D01*
X176814403Y-115714710D01*
X176731925Y-115692610D01*
X158431925Y-115692610D01*
X158318075Y-115692610D01*
X158235596Y-115714710D01*
X158208103Y-115722077D01*
X158109507Y-115779001D01*
X158109504Y-115779003D01*
X158029003Y-115859504D01*
X158029001Y-115859507D01*
X157972077Y-115958103D01*
X157972077Y-115958104D01*
X157962700Y-115993095D01*
X157926337Y-116052754D01*
X157863490Y-116083283D01*
X157842927Y-116085000D01*
X143525000Y-116085000D01*
X143525000Y-121588610D01*
X143505315Y-121655649D01*
X143452511Y-121701404D01*
X143401000Y-121712610D01*
X132724000Y-121712610D01*
X132656961Y-121692925D01*
X132611206Y-121640121D01*
X132600000Y-121588610D01*
X132600000Y-111735729D01*
X132619685Y-111668690D01*
X132672489Y-111622935D01*
X132741647Y-111612991D01*
X132805203Y-111642016D01*
X132811681Y-111648048D01*
X134338181Y-113174548D01*
X134371666Y-113235871D01*
X134374500Y-113262229D01*
X134374500Y-114208028D01*
X134374501Y-114208034D01*
X134385113Y-114327415D01*
X134441089Y-114523045D01*
X134441090Y-114523048D01*
X134441091Y-114523049D01*
X134535302Y-114703407D01*
X134535304Y-114703409D01*
X134663890Y-114861109D01*
X134757803Y-114937684D01*
X134821593Y-114989698D01*
X135001951Y-115083909D01*
X135197582Y-115139886D01*
X135316963Y-115150500D01*
X136433036Y-115150499D01*
X136552418Y-115139886D01*
X136748049Y-115083909D01*
X136928407Y-114989698D01*
X137086109Y-114861109D01*
X137214698Y-114703407D01*
X137308909Y-114523049D01*
X137308911Y-114523043D01*
X137318256Y-114490387D01*
X137355624Y-114431349D01*
X137418978Y-114401887D01*
X137437471Y-114400500D01*
X143743920Y-114400500D01*
X143841462Y-114381096D01*
X143888913Y-114371658D01*
X144025495Y-114315084D01*
X144074729Y-114282186D01*
X144148416Y-114232952D01*
X145049548Y-113331817D01*
X145110871Y-113298333D01*
X145137229Y-113295499D01*
X145925002Y-113295499D01*
X145925008Y-113295499D01*
X146027797Y-113284999D01*
X146194334Y-113229814D01*
X146343656Y-113137712D01*
X146467712Y-113013656D01*
X146559814Y-112864334D01*
X146614999Y-112697797D01*
X146625500Y-112595009D01*
X146625500Y-112302150D01*
X148181391Y-112302150D01*
X148181391Y-112661631D01*
X148221637Y-113018826D01*
X148221639Y-113018842D01*
X148301628Y-113369298D01*
X148301632Y-113369310D01*
X148420356Y-113708602D01*
X148576323Y-114032470D01*
X148576325Y-114032473D01*
X148767576Y-114336847D01*
X148991703Y-114617894D01*
X149245888Y-114872079D01*
X149526935Y-115096206D01*
X149831309Y-115287457D01*
X150155183Y-115443427D01*
X150410010Y-115532594D01*
X150494471Y-115562149D01*
X150494483Y-115562153D01*
X150844943Y-115642143D01*
X151202151Y-115682390D01*
X151202152Y-115682391D01*
X151202155Y-115682391D01*
X151561630Y-115682391D01*
X151561630Y-115682390D01*
X151918839Y-115642143D01*
X152269299Y-115562153D01*
X152608599Y-115443427D01*
X152932473Y-115287457D01*
X153236847Y-115096206D01*
X153517894Y-114872079D01*
X153772079Y-114617894D01*
X153996206Y-114336847D01*
X154187457Y-114032473D01*
X154343427Y-113708599D01*
X154462153Y-113369299D01*
X154542143Y-113018839D01*
X154582391Y-112661627D01*
X154582391Y-112302155D01*
X154542143Y-111944943D01*
X154462153Y-111594483D01*
X154459677Y-111587408D01*
X154356381Y-111292204D01*
X154343427Y-111255183D01*
X154187457Y-110931309D01*
X153996206Y-110626935D01*
X153772079Y-110345888D01*
X153517894Y-110091703D01*
X153503142Y-110079939D01*
X153444896Y-110033489D01*
X153236847Y-109867576D01*
X153003824Y-109721158D01*
X152932470Y-109676323D01*
X152901108Y-109661220D01*
X152849249Y-109614397D01*
X152830936Y-109546970D01*
X152851984Y-109480346D01*
X152905711Y-109435678D01*
X152954910Y-109425500D01*
X155262770Y-109425500D01*
X155329809Y-109445185D01*
X155350451Y-109461819D01*
X156053927Y-110165295D01*
X156080807Y-110205523D01*
X156090604Y-110229175D01*
X156090609Y-110229185D01*
X156178210Y-110360288D01*
X156178213Y-110360292D01*
X156289707Y-110471786D01*
X156289711Y-110471789D01*
X156420814Y-110559390D01*
X156420827Y-110559397D01*
X156566498Y-110619735D01*
X156566503Y-110619737D01*
X156721153Y-110650499D01*
X156721156Y-110650500D01*
X156721158Y-110650500D01*
X156878844Y-110650500D01*
X156878845Y-110650499D01*
X157033497Y-110619737D01*
X157179179Y-110559394D01*
X157310289Y-110471789D01*
X157421789Y-110360289D01*
X157509394Y-110229179D01*
X157512719Y-110221153D01*
X157535855Y-110165295D01*
X157569737Y-110083497D01*
X157600500Y-109928842D01*
X157600500Y-109771158D01*
X157600500Y-109771155D01*
X157600499Y-109771153D01*
X157582012Y-109678213D01*
X157569737Y-109616503D01*
X157568865Y-109614397D01*
X157509397Y-109470827D01*
X157509390Y-109470814D01*
X157421789Y-109339711D01*
X157421786Y-109339707D01*
X157310292Y-109228213D01*
X157310288Y-109228210D01*
X157179185Y-109140609D01*
X157179175Y-109140604D01*
X157155523Y-109130807D01*
X157115295Y-109103927D01*
X156103421Y-108092052D01*
X156103414Y-108092046D01*
X156029729Y-108042812D01*
X156029729Y-108042813D01*
X155980491Y-108009913D01*
X155843917Y-107953343D01*
X155843907Y-107953340D01*
X155698920Y-107924500D01*
X155698918Y-107924500D01*
X152879604Y-107924500D01*
X152832155Y-107915062D01*
X152808497Y-107905263D01*
X152808493Y-107905262D01*
X152808488Y-107905260D01*
X152653845Y-107874500D01*
X152653842Y-107874500D01*
X152496158Y-107874500D01*
X152496155Y-107874500D01*
X152341510Y-107905261D01*
X152341498Y-107905264D01*
X152195827Y-107965602D01*
X152195814Y-107965609D01*
X152064711Y-108053210D01*
X152064707Y-108053213D01*
X151953213Y-108164707D01*
X151953210Y-108164711D01*
X151865609Y-108295814D01*
X151865602Y-108295827D01*
X151805264Y-108441498D01*
X151805261Y-108441510D01*
X151774500Y-108596153D01*
X151774500Y-108753846D01*
X151805261Y-108908489D01*
X151805264Y-108908501D01*
X151865602Y-109054172D01*
X151865609Y-109054185D01*
X151906192Y-109114921D01*
X151927070Y-109181599D01*
X151908586Y-109248979D01*
X151856607Y-109295669D01*
X151789207Y-109307032D01*
X151561633Y-109281391D01*
X151561627Y-109281391D01*
X151202155Y-109281391D01*
X151202150Y-109281391D01*
X150844955Y-109321637D01*
X150844939Y-109321639D01*
X150494483Y-109401628D01*
X150494471Y-109401632D01*
X150155179Y-109520356D01*
X149831311Y-109676323D01*
X149526936Y-109867575D01*
X149245888Y-110091702D01*
X148991702Y-110345888D01*
X148767575Y-110626936D01*
X148576323Y-110931311D01*
X148420356Y-111255179D01*
X148301632Y-111594471D01*
X148301628Y-111594483D01*
X148221639Y-111944939D01*
X148221637Y-111944955D01*
X148181391Y-112302150D01*
X146625500Y-112302150D01*
X146625499Y-111944955D01*
X146625499Y-111394998D01*
X146625498Y-111394981D01*
X146614999Y-111292203D01*
X146614998Y-111292200D01*
X146569009Y-111153416D01*
X146559814Y-111125666D01*
X146467712Y-110976344D01*
X146343656Y-110852288D01*
X146194334Y-110760186D01*
X146027797Y-110705001D01*
X146027795Y-110705000D01*
X145925010Y-110694500D01*
X144724998Y-110694500D01*
X144724981Y-110694501D01*
X144622203Y-110705000D01*
X144622200Y-110705001D01*
X144455668Y-110760185D01*
X144455663Y-110760187D01*
X144306342Y-110852289D01*
X144182289Y-110976342D01*
X144090187Y-111125663D01*
X144090185Y-111125668D01*
X144080990Y-111153418D01*
X144035001Y-111292203D01*
X144035001Y-111292204D01*
X144035000Y-111292204D01*
X144024500Y-111394983D01*
X144024500Y-112182769D01*
X144004815Y-112249808D01*
X143988181Y-112270450D01*
X143395451Y-112863181D01*
X143334128Y-112896666D01*
X143307770Y-112899500D01*
X137437471Y-112899500D01*
X137370432Y-112879815D01*
X137324677Y-112827011D01*
X137318256Y-112809613D01*
X137308911Y-112776956D01*
X137308909Y-112776953D01*
X137308909Y-112776951D01*
X137214698Y-112596593D01*
X137162684Y-112532803D01*
X137086109Y-112438890D01*
X136928409Y-112310304D01*
X136928410Y-112310304D01*
X136928407Y-112310302D01*
X136748049Y-112216091D01*
X136748048Y-112216090D01*
X136748045Y-112216089D01*
X136630829Y-112182550D01*
X136552418Y-112160114D01*
X136552415Y-112160113D01*
X136552413Y-112160113D01*
X136479631Y-112153642D01*
X136433037Y-112149500D01*
X136433033Y-112149500D01*
X135487230Y-112149500D01*
X135420191Y-112129815D01*
X135399549Y-112113181D01*
X132636319Y-109349951D01*
X132602834Y-109288628D01*
X132600000Y-109262270D01*
X132600000Y-103331902D01*
X134374500Y-103331902D01*
X134374500Y-103568097D01*
X134411446Y-103801368D01*
X134484433Y-104025996D01*
X134558653Y-104171659D01*
X134591657Y-104236433D01*
X134730483Y-104427510D01*
X134897490Y-104594517D01*
X135088567Y-104733343D01*
X135153653Y-104766506D01*
X135299003Y-104840566D01*
X135299005Y-104840566D01*
X135299008Y-104840568D01*
X135402575Y-104874219D01*
X135523631Y-104913553D01*
X135756903Y-104950500D01*
X135756908Y-104950500D01*
X135993097Y-104950500D01*
X136226368Y-104913553D01*
X136450992Y-104840568D01*
X136661433Y-104733343D01*
X136852510Y-104594517D01*
X137019517Y-104427510D01*
X137158343Y-104236433D01*
X137265568Y-104025992D01*
X137338553Y-103801368D01*
X137350107Y-103728419D01*
X137375500Y-103568097D01*
X137375500Y-103331902D01*
X137338553Y-103098631D01*
X137286728Y-102939132D01*
X137265568Y-102874008D01*
X137265566Y-102874005D01*
X137265566Y-102874003D01*
X137197594Y-102740602D01*
X137158343Y-102663567D01*
X137019517Y-102472490D01*
X136852510Y-102305483D01*
X136661433Y-102166657D01*
X136616466Y-102143745D01*
X136450996Y-102059433D01*
X136226368Y-101986446D01*
X135993097Y-101949500D01*
X135993092Y-101949500D01*
X135756908Y-101949500D01*
X135756903Y-101949500D01*
X135523631Y-101986446D01*
X135299003Y-102059433D01*
X135088566Y-102166657D01*
X135020534Y-102216086D01*
X134897490Y-102305483D01*
X134897488Y-102305485D01*
X134897487Y-102305485D01*
X134730485Y-102472487D01*
X134730485Y-102472488D01*
X134730483Y-102472490D01*
X134670862Y-102554550D01*
X134591657Y-102663566D01*
X134484433Y-102874003D01*
X134411446Y-103098631D01*
X134374500Y-103331902D01*
X132600000Y-103331902D01*
X132600000Y-100708653D01*
X143812000Y-100708653D01*
X143812000Y-100866346D01*
X143842761Y-101020989D01*
X143842764Y-101021001D01*
X143903102Y-101166672D01*
X143903109Y-101166685D01*
X143990710Y-101297788D01*
X143990713Y-101297792D01*
X144102210Y-101409289D01*
X144157389Y-101446158D01*
X144233321Y-101496894D01*
X144256975Y-101506691D01*
X144297203Y-101533571D01*
X145645583Y-102881951D01*
X145679068Y-102943274D01*
X145674084Y-103012966D01*
X145632212Y-103068899D01*
X145566748Y-103093316D01*
X145538504Y-103092105D01*
X145520023Y-103089177D01*
X145427352Y-103074500D01*
X145222648Y-103074500D01*
X145198329Y-103078351D01*
X145020465Y-103106522D01*
X144825776Y-103169781D01*
X144643386Y-103262715D01*
X144477786Y-103383028D01*
X144333028Y-103527786D01*
X144212715Y-103693386D01*
X144119781Y-103875776D01*
X144056522Y-104070465D01*
X144024500Y-104272648D01*
X144024500Y-104477351D01*
X144056522Y-104679534D01*
X144119781Y-104874223D01*
X144212715Y-105056613D01*
X144333028Y-105222213D01*
X144477786Y-105366971D01*
X144632749Y-105479556D01*
X144643390Y-105487287D01*
X144759607Y-105546503D01*
X144825776Y-105580218D01*
X144825778Y-105580218D01*
X144825781Y-105580220D01*
X144930137Y-105614127D01*
X145020465Y-105643477D01*
X145121557Y-105659488D01*
X145222648Y-105675500D01*
X145222649Y-105675500D01*
X145427351Y-105675500D01*
X145427352Y-105675500D01*
X145629534Y-105643477D01*
X145824219Y-105580220D01*
X146006610Y-105487287D01*
X146099590Y-105419732D01*
X146172213Y-105366971D01*
X146172215Y-105366968D01*
X146172219Y-105366966D01*
X146316966Y-105222219D01*
X146316968Y-105222215D01*
X146316971Y-105222213D01*
X146369732Y-105149590D01*
X146437287Y-105056610D01*
X146530220Y-104874219D01*
X146593477Y-104679534D01*
X146625500Y-104477352D01*
X146625500Y-104272648D01*
X146607140Y-104156731D01*
X146609189Y-104140874D01*
X146606212Y-104125158D01*
X146613575Y-104106933D01*
X146616094Y-104087441D01*
X146626394Y-104075204D01*
X146632386Y-104060376D01*
X146648431Y-104049026D01*
X146661090Y-104033989D01*
X146676370Y-104029264D01*
X146689428Y-104020028D01*
X146709063Y-104019155D01*
X146727841Y-104013349D01*
X146744063Y-104017599D01*
X146759229Y-104016925D01*
X146785233Y-104028385D01*
X146791953Y-104030146D01*
X146796317Y-104032684D01*
X146796584Y-104032951D01*
X146919505Y-104115084D01*
X146976080Y-104138518D01*
X147056088Y-104171659D01*
X147172241Y-104194763D01*
X147191468Y-104198587D01*
X147201081Y-104200500D01*
X147201082Y-104200500D01*
X147201083Y-104200500D01*
X147348918Y-104200500D01*
X148643770Y-104200500D01*
X148710809Y-104220185D01*
X148756564Y-104272989D01*
X148766508Y-104342147D01*
X148737483Y-104405703D01*
X148731451Y-104412181D01*
X148632289Y-104511342D01*
X148540187Y-104660663D01*
X148540185Y-104660668D01*
X148516103Y-104733343D01*
X148485001Y-104827203D01*
X148485001Y-104827204D01*
X148485000Y-104827204D01*
X148474500Y-104929983D01*
X148474500Y-106130001D01*
X148474501Y-106130018D01*
X148485000Y-106232796D01*
X148485001Y-106232799D01*
X148540185Y-106399331D01*
X148540186Y-106399334D01*
X148632288Y-106548656D01*
X148756344Y-106672712D01*
X148905666Y-106764814D01*
X149072203Y-106819999D01*
X149174991Y-106830500D01*
X150375008Y-106830499D01*
X150477797Y-106819999D01*
X150644334Y-106764814D01*
X150793656Y-106672712D01*
X150917712Y-106548656D01*
X151009814Y-106399334D01*
X151064999Y-106232797D01*
X151075500Y-106130009D01*
X151075499Y-104929992D01*
X151064999Y-104827203D01*
X151009814Y-104660666D01*
X150917712Y-104511344D01*
X150818549Y-104412181D01*
X150785064Y-104350858D01*
X150790048Y-104281166D01*
X150831920Y-104225233D01*
X150897384Y-104200816D01*
X150906230Y-104200500D01*
X168320396Y-104200500D01*
X168367844Y-104209937D01*
X168391503Y-104219737D01*
X168391508Y-104219738D01*
X168391511Y-104219739D01*
X168546153Y-104250499D01*
X168546156Y-104250500D01*
X168546158Y-104250500D01*
X168703844Y-104250500D01*
X168703845Y-104250499D01*
X168858497Y-104219737D01*
X169004179Y-104159394D01*
X169135289Y-104071789D01*
X169156857Y-104050220D01*
X169175656Y-104034794D01*
X169178416Y-104032951D01*
X169282951Y-103928416D01*
X169365084Y-103805495D01*
X169366794Y-103801368D01*
X169397011Y-103728416D01*
X169421658Y-103668913D01*
X169450500Y-103523918D01*
X169450500Y-103376082D01*
X169450500Y-103376079D01*
X169421659Y-103231092D01*
X169421658Y-103231091D01*
X169421658Y-103231087D01*
X169398875Y-103176083D01*
X169365087Y-103094511D01*
X169365080Y-103094498D01*
X169282951Y-102971584D01*
X169282948Y-102971580D01*
X169178423Y-102867055D01*
X169178411Y-102867045D01*
X169175635Y-102865190D01*
X169156855Y-102849776D01*
X169135292Y-102828213D01*
X169135288Y-102828210D01*
X169004185Y-102740609D01*
X169004172Y-102740602D01*
X168858501Y-102680264D01*
X168858489Y-102680261D01*
X168703845Y-102649500D01*
X168703842Y-102649500D01*
X168546158Y-102649500D01*
X168546155Y-102649500D01*
X168391511Y-102680260D01*
X168391506Y-102680262D01*
X168391504Y-102680262D01*
X168391503Y-102680263D01*
X168367844Y-102690062D01*
X168320396Y-102699500D01*
X147637229Y-102699500D01*
X147570190Y-102679815D01*
X147549548Y-102663181D01*
X145358571Y-100472203D01*
X145331691Y-100431975D01*
X145321894Y-100408321D01*
X145321889Y-100408314D01*
X145234289Y-100277210D01*
X145122792Y-100165713D01*
X145122788Y-100165710D01*
X144991685Y-100078109D01*
X144991672Y-100078102D01*
X144846001Y-100017764D01*
X144845989Y-100017761D01*
X144691345Y-99987000D01*
X144691342Y-99987000D01*
X144533658Y-99987000D01*
X144533655Y-99987000D01*
X144379010Y-100017761D01*
X144378998Y-100017764D01*
X144233327Y-100078102D01*
X144233314Y-100078109D01*
X144102211Y-100165710D01*
X144102207Y-100165713D01*
X143990713Y-100277207D01*
X143990710Y-100277211D01*
X143903109Y-100408314D01*
X143903102Y-100408327D01*
X143842764Y-100553998D01*
X143842761Y-100554010D01*
X143812000Y-100708653D01*
X132600000Y-100708653D01*
X132600000Y-98221153D01*
X144149500Y-98221153D01*
X144149500Y-98378846D01*
X144180261Y-98533489D01*
X144180264Y-98533501D01*
X144240602Y-98679172D01*
X144240609Y-98679185D01*
X144328210Y-98810288D01*
X144328213Y-98810292D01*
X144439710Y-98921789D01*
X144570815Y-99009390D01*
X144570821Y-99009394D01*
X144594475Y-99019191D01*
X144634703Y-99046071D01*
X147696578Y-102107947D01*
X147696584Y-102107952D01*
X147754709Y-102146789D01*
X147819505Y-102190084D01*
X147876080Y-102213518D01*
X147956088Y-102246659D01*
X148072241Y-102269763D01*
X148091468Y-102273587D01*
X148101081Y-102275500D01*
X148101082Y-102275500D01*
X148101083Y-102275500D01*
X148248918Y-102275500D01*
X168795396Y-102275500D01*
X168842844Y-102284937D01*
X168866503Y-102294737D01*
X168866508Y-102294738D01*
X168866511Y-102294739D01*
X169021153Y-102325499D01*
X169021156Y-102325500D01*
X169021158Y-102325500D01*
X169178844Y-102325500D01*
X169178845Y-102325499D01*
X169333497Y-102294737D01*
X169479179Y-102234394D01*
X169610289Y-102146789D01*
X169721789Y-102035289D01*
X169809394Y-101904179D01*
X169869737Y-101758497D01*
X169900500Y-101603842D01*
X169900500Y-101446158D01*
X169900500Y-101446155D01*
X169900499Y-101446153D01*
X169869738Y-101291510D01*
X169869737Y-101291503D01*
X169869735Y-101291498D01*
X169809397Y-101145827D01*
X169809390Y-101145814D01*
X169721789Y-101014711D01*
X169721786Y-101014707D01*
X169610292Y-100903213D01*
X169610288Y-100903210D01*
X169479185Y-100815609D01*
X169479172Y-100815602D01*
X169333501Y-100755264D01*
X169333489Y-100755261D01*
X169178845Y-100724500D01*
X169178842Y-100724500D01*
X169021158Y-100724500D01*
X169021155Y-100724500D01*
X168866511Y-100755260D01*
X168866506Y-100755262D01*
X168866504Y-100755262D01*
X168866503Y-100755263D01*
X168842844Y-100765062D01*
X168795396Y-100774500D01*
X148537230Y-100774500D01*
X148470191Y-100754815D01*
X148449549Y-100738181D01*
X145696071Y-97984703D01*
X145676211Y-97958754D01*
X145672242Y-97951840D01*
X145659394Y-97920821D01*
X145583774Y-97807648D01*
X151014500Y-97807648D01*
X151014500Y-98012351D01*
X151046522Y-98214534D01*
X151109781Y-98409223D01*
X151202715Y-98591613D01*
X151323028Y-98757213D01*
X151467786Y-98901971D01*
X151615639Y-99009390D01*
X151633390Y-99022287D01*
X151749607Y-99081503D01*
X151815776Y-99115218D01*
X151815778Y-99115218D01*
X151815781Y-99115220D01*
X151920137Y-99149127D01*
X152010465Y-99178477D01*
X152111557Y-99194488D01*
X152212648Y-99210500D01*
X152212649Y-99210500D01*
X152417351Y-99210500D01*
X152417352Y-99210500D01*
X152619534Y-99178477D01*
X152814219Y-99115220D01*
X152996610Y-99022287D01*
X153134935Y-98921789D01*
X153162213Y-98901971D01*
X153162215Y-98901968D01*
X153162219Y-98901966D01*
X153306966Y-98757219D01*
X153306968Y-98757215D01*
X153306971Y-98757213D01*
X153363670Y-98679172D01*
X153427287Y-98591610D01*
X153520220Y-98409219D01*
X153583477Y-98214534D01*
X153615500Y-98012352D01*
X153615500Y-97807648D01*
X153583477Y-97605466D01*
X153578647Y-97590602D01*
X153554127Y-97515137D01*
X153520220Y-97410781D01*
X153520218Y-97410778D01*
X153520218Y-97410776D01*
X153486503Y-97344607D01*
X153427287Y-97228390D01*
X153419556Y-97217749D01*
X153306971Y-97062786D01*
X153162213Y-96918028D01*
X152996613Y-96797715D01*
X152996612Y-96797714D01*
X152996610Y-96797713D01*
X152939653Y-96768691D01*
X152814223Y-96704781D01*
X152619534Y-96641522D01*
X152444995Y-96613878D01*
X152417352Y-96609500D01*
X152212648Y-96609500D01*
X152188329Y-96613351D01*
X152010465Y-96641522D01*
X151815776Y-96704781D01*
X151633386Y-96797715D01*
X151467786Y-96918028D01*
X151323028Y-97062786D01*
X151202715Y-97228386D01*
X151109781Y-97410776D01*
X151046522Y-97605465D01*
X151014500Y-97807648D01*
X145583774Y-97807648D01*
X145571789Y-97789711D01*
X145571787Y-97789708D01*
X145460292Y-97678213D01*
X145460288Y-97678210D01*
X145329185Y-97590609D01*
X145329172Y-97590602D01*
X145183501Y-97530264D01*
X145183489Y-97530261D01*
X145028845Y-97499500D01*
X145028842Y-97499500D01*
X144871158Y-97499500D01*
X144871155Y-97499500D01*
X144716510Y-97530261D01*
X144716498Y-97530264D01*
X144570827Y-97590602D01*
X144570814Y-97590609D01*
X144439711Y-97678210D01*
X144439707Y-97678213D01*
X144328213Y-97789707D01*
X144328210Y-97789711D01*
X144240609Y-97920814D01*
X144240602Y-97920827D01*
X144180264Y-98066498D01*
X144180261Y-98066510D01*
X144149500Y-98221153D01*
X132600000Y-98221153D01*
X132600000Y-94687729D01*
X132619685Y-94620690D01*
X132636315Y-94600052D01*
X133612375Y-93623992D01*
X143184500Y-93623992D01*
X143184500Y-93826007D01*
X143223907Y-94024119D01*
X143223909Y-94024127D01*
X143301213Y-94210755D01*
X143354904Y-94291109D01*
X143375782Y-94357787D01*
X143357297Y-94425167D01*
X143354904Y-94428891D01*
X143301213Y-94509244D01*
X143223909Y-94695872D01*
X143223907Y-94695880D01*
X143184500Y-94893992D01*
X143184500Y-95096007D01*
X143223907Y-95294119D01*
X143223909Y-95294127D01*
X143301212Y-95480752D01*
X143301217Y-95480762D01*
X143413441Y-95648718D01*
X143556281Y-95791558D01*
X143724237Y-95903782D01*
X143724241Y-95903784D01*
X143724244Y-95903786D01*
X143910873Y-95981091D01*
X144108992Y-96020499D01*
X144108996Y-96020500D01*
X144108997Y-96020500D01*
X144761004Y-96020500D01*
X144761005Y-96020499D01*
X144959127Y-95981091D01*
X145145756Y-95903786D01*
X145313718Y-95791558D01*
X145456558Y-95648718D01*
X145568786Y-95480756D01*
X145646091Y-95294127D01*
X145685500Y-95096003D01*
X145685500Y-94893997D01*
X145646091Y-94695873D01*
X145568786Y-94509244D01*
X145515094Y-94428889D01*
X145494217Y-94362214D01*
X145512701Y-94294834D01*
X145515078Y-94291134D01*
X145568786Y-94210756D01*
X145646091Y-94024127D01*
X145685500Y-93826003D01*
X145685500Y-93623997D01*
X145646091Y-93425873D01*
X145606372Y-93329983D01*
X149074500Y-93329983D01*
X149074500Y-94530001D01*
X149074501Y-94530018D01*
X149085000Y-94632796D01*
X149085001Y-94632799D01*
X149140185Y-94799331D01*
X149140186Y-94799334D01*
X149232288Y-94948656D01*
X149356344Y-95072712D01*
X149505666Y-95164814D01*
X149672203Y-95219999D01*
X149774991Y-95230500D01*
X150975008Y-95230499D01*
X151077797Y-95219999D01*
X151244334Y-95164814D01*
X151393656Y-95072712D01*
X151517712Y-94948656D01*
X151609814Y-94799334D01*
X151664999Y-94632797D01*
X151673851Y-94546153D01*
X159999500Y-94546153D01*
X159999500Y-94703846D01*
X160030261Y-94858489D01*
X160030264Y-94858501D01*
X160090602Y-95004172D01*
X160090609Y-95004185D01*
X160178210Y-95135288D01*
X160178213Y-95135292D01*
X160289707Y-95246786D01*
X160289711Y-95246789D01*
X160420814Y-95334390D01*
X160420827Y-95334397D01*
X160520060Y-95375500D01*
X160566503Y-95394737D01*
X160721153Y-95425499D01*
X160721156Y-95425500D01*
X160721158Y-95425500D01*
X160878844Y-95425500D01*
X160878845Y-95425499D01*
X160955152Y-95410320D01*
X161033488Y-95394739D01*
X161033489Y-95394738D01*
X161033497Y-95394737D01*
X161057155Y-95384937D01*
X161104604Y-95375500D01*
X167548920Y-95375500D01*
X167646462Y-95356096D01*
X167693913Y-95346658D01*
X167830495Y-95290084D01*
X167889735Y-95250501D01*
X167953416Y-95207952D01*
X170232951Y-92928416D01*
X170276505Y-92863229D01*
X170291916Y-92844449D01*
X170612820Y-92523546D01*
X170674142Y-92490063D01*
X170743834Y-92495047D01*
X170799767Y-92536919D01*
X170824184Y-92602383D01*
X170824500Y-92611229D01*
X170824500Y-108637770D01*
X170804815Y-108704809D01*
X170788181Y-108725451D01*
X170000451Y-109513181D01*
X169939128Y-109546666D01*
X169912770Y-109549500D01*
X164004604Y-109549500D01*
X163957155Y-109540062D01*
X163933497Y-109530263D01*
X163933493Y-109530262D01*
X163933488Y-109530260D01*
X163778845Y-109499500D01*
X163778842Y-109499500D01*
X163621158Y-109499500D01*
X163621155Y-109499500D01*
X163466510Y-109530261D01*
X163466498Y-109530264D01*
X163320827Y-109590602D01*
X163320814Y-109590609D01*
X163189711Y-109678210D01*
X163189707Y-109678213D01*
X163078213Y-109789707D01*
X163078210Y-109789711D01*
X162990609Y-109920814D01*
X162990602Y-109920827D01*
X162930264Y-110066498D01*
X162930261Y-110066510D01*
X162899500Y-110221153D01*
X162899500Y-110378846D01*
X162930261Y-110533489D01*
X162930264Y-110533501D01*
X162990602Y-110679172D01*
X162990609Y-110679185D01*
X163078210Y-110810288D01*
X163078213Y-110810292D01*
X163189707Y-110921786D01*
X163189711Y-110921789D01*
X163320814Y-111009390D01*
X163320827Y-111009397D01*
X163420060Y-111050500D01*
X163466503Y-111069737D01*
X163621153Y-111100499D01*
X163621156Y-111100500D01*
X163621158Y-111100500D01*
X163778844Y-111100500D01*
X163778845Y-111100499D01*
X163855152Y-111085320D01*
X163933488Y-111069739D01*
X163933489Y-111069738D01*
X163933497Y-111069737D01*
X163957155Y-111059937D01*
X164004604Y-111050500D01*
X170348920Y-111050500D01*
X170449518Y-111030489D01*
X170493913Y-111021658D01*
X170630495Y-110965084D01*
X170699595Y-110918913D01*
X170753416Y-110882952D01*
X171357952Y-110278416D01*
X172157952Y-109478416D01*
X172172398Y-109456794D01*
X172226009Y-109411991D01*
X172295334Y-109403282D01*
X172358362Y-109433437D01*
X172395081Y-109492879D01*
X172399500Y-109525686D01*
X172399500Y-110312770D01*
X172379815Y-110379809D01*
X172363181Y-110400451D01*
X171025451Y-111738181D01*
X170964128Y-111771666D01*
X170937770Y-111774500D01*
X163162230Y-111774500D01*
X163095191Y-111754815D01*
X163074549Y-111738181D01*
X162486819Y-111150451D01*
X162453334Y-111089128D01*
X162450500Y-111062770D01*
X162450500Y-110104604D01*
X162459939Y-110057151D01*
X162461486Y-110053416D01*
X162469737Y-110033497D01*
X162500500Y-109878842D01*
X162500500Y-109721158D01*
X162500500Y-109721155D01*
X162500499Y-109721153D01*
X162491582Y-109676323D01*
X162469737Y-109566503D01*
X162458785Y-109540062D01*
X162409397Y-109420827D01*
X162409390Y-109420814D01*
X162321789Y-109289711D01*
X162321786Y-109289707D01*
X162210292Y-109178213D01*
X162210288Y-109178210D01*
X162079185Y-109090609D01*
X162079172Y-109090602D01*
X161933501Y-109030264D01*
X161933489Y-109030261D01*
X161778845Y-108999500D01*
X161778842Y-108999500D01*
X161621158Y-108999500D01*
X161621155Y-108999500D01*
X161466510Y-109030261D01*
X161466498Y-109030264D01*
X161320827Y-109090602D01*
X161320814Y-109090609D01*
X161189711Y-109178210D01*
X161189707Y-109178213D01*
X161078213Y-109289707D01*
X161078210Y-109289711D01*
X160990609Y-109420814D01*
X160990602Y-109420827D01*
X160930264Y-109566498D01*
X160930261Y-109566510D01*
X160899500Y-109721153D01*
X160899500Y-109878846D01*
X160930261Y-110033489D01*
X160930263Y-110033497D01*
X160940061Y-110057151D01*
X160949500Y-110104604D01*
X160949500Y-111498918D01*
X160949500Y-111498920D01*
X160949499Y-111498920D01*
X160978340Y-111643907D01*
X160978343Y-111643917D01*
X161034913Y-111780490D01*
X161034914Y-111780491D01*
X161034916Y-111780495D01*
X161048282Y-111800498D01*
X161048283Y-111800501D01*
X161117046Y-111903414D01*
X161117052Y-111903421D01*
X162321578Y-113107947D01*
X162321585Y-113107953D01*
X162386825Y-113151544D01*
X162386827Y-113151545D01*
X162386830Y-113151547D01*
X162444505Y-113190084D01*
X162444506Y-113190084D01*
X162444507Y-113190085D01*
X162540417Y-113229812D01*
X162581087Y-113246658D01*
X162581091Y-113246658D01*
X162581092Y-113246659D01*
X162726079Y-113275500D01*
X162726082Y-113275500D01*
X171373920Y-113275500D01*
X171471462Y-113256096D01*
X171518913Y-113246658D01*
X171655495Y-113190084D01*
X171713170Y-113151547D01*
X171713170Y-113151546D01*
X171713172Y-113151546D01*
X171745793Y-113129749D01*
X171778416Y-113107952D01*
X173732951Y-111153416D01*
X173788863Y-111069737D01*
X173815084Y-111030495D01*
X173871658Y-110893913D01*
X173888292Y-110810289D01*
X173900500Y-110748920D01*
X173900500Y-104921158D01*
X177549500Y-104921158D01*
X177549500Y-104929001D01*
X177549500Y-105078846D01*
X177580261Y-105233489D01*
X177580264Y-105233501D01*
X177640602Y-105379172D01*
X177640609Y-105379185D01*
X177728210Y-105510288D01*
X177728213Y-105510292D01*
X177839707Y-105621786D01*
X177839711Y-105621789D01*
X177970814Y-105709390D01*
X177970827Y-105709397D01*
X178116498Y-105769735D01*
X178116503Y-105769737D01*
X178271153Y-105800499D01*
X178271156Y-105800500D01*
X178271158Y-105800500D01*
X178428844Y-105800500D01*
X178428845Y-105800499D01*
X178583497Y-105769737D01*
X178729179Y-105709394D01*
X178860289Y-105621789D01*
X178971789Y-105510289D01*
X179059394Y-105379179D01*
X179119737Y-105233497D01*
X179150500Y-105078842D01*
X179150500Y-104921158D01*
X179150500Y-104921155D01*
X179150499Y-104921153D01*
X179119739Y-104766511D01*
X179119738Y-104766508D01*
X179119737Y-104766503D01*
X179109937Y-104742844D01*
X179108311Y-104734670D01*
X179105523Y-104730331D01*
X179100500Y-104695396D01*
X179100500Y-104662229D01*
X179120185Y-104595190D01*
X179136819Y-104574548D01*
X179982948Y-103728419D01*
X179982951Y-103728416D01*
X180065084Y-103605495D01*
X180121658Y-103468913D01*
X180150500Y-103323918D01*
X180150500Y-103176083D01*
X180150500Y-88921902D01*
X181649500Y-88921902D01*
X181649500Y-89158097D01*
X181686446Y-89391368D01*
X181759433Y-89615996D01*
X181863641Y-89820514D01*
X181866657Y-89826433D01*
X182005483Y-90017510D01*
X182172490Y-90184517D01*
X182363567Y-90323343D01*
X182462991Y-90374002D01*
X182574003Y-90430566D01*
X182574005Y-90430566D01*
X182574008Y-90430568D01*
X182694412Y-90469689D01*
X182798631Y-90503553D01*
X183031903Y-90540500D01*
X183031908Y-90540500D01*
X183268097Y-90540500D01*
X183501368Y-90503553D01*
X183725992Y-90430568D01*
X183936433Y-90323343D01*
X184127510Y-90184517D01*
X184294517Y-90017510D01*
X184433343Y-89826433D01*
X184540568Y-89615992D01*
X184613553Y-89391368D01*
X184639708Y-89226232D01*
X184650500Y-89158097D01*
X184650500Y-88921902D01*
X184613553Y-88688631D01*
X184558761Y-88520000D01*
X184540568Y-88464008D01*
X184540566Y-88464005D01*
X184540566Y-88464003D01*
X184471229Y-88327922D01*
X184433343Y-88253567D01*
X184294517Y-88062490D01*
X184127510Y-87895483D01*
X183936433Y-87756657D01*
X183725996Y-87649433D01*
X183501368Y-87576446D01*
X183268097Y-87539500D01*
X183268092Y-87539500D01*
X183031908Y-87539500D01*
X183031903Y-87539500D01*
X182798631Y-87576446D01*
X182574003Y-87649433D01*
X182363566Y-87756657D01*
X182254550Y-87835862D01*
X182172490Y-87895483D01*
X182172488Y-87895485D01*
X182172487Y-87895485D01*
X182005485Y-88062487D01*
X182005485Y-88062488D01*
X182005483Y-88062490D01*
X181972709Y-88107600D01*
X181866657Y-88253566D01*
X181759433Y-88464003D01*
X181686446Y-88688631D01*
X181649500Y-88921902D01*
X180150500Y-88921902D01*
X180150500Y-84429604D01*
X180159939Y-84382151D01*
X180169737Y-84358497D01*
X180200500Y-84203842D01*
X180200500Y-84046158D01*
X180200500Y-84046155D01*
X180200499Y-84046153D01*
X180169738Y-83891510D01*
X180169737Y-83891503D01*
X180142559Y-83825888D01*
X180109397Y-83745827D01*
X180109390Y-83745814D01*
X180021789Y-83614711D01*
X180021786Y-83614707D01*
X179910292Y-83503213D01*
X179910288Y-83503210D01*
X179779185Y-83415609D01*
X179779172Y-83415602D01*
X179633501Y-83355264D01*
X179633489Y-83355261D01*
X179478845Y-83324500D01*
X179478842Y-83324500D01*
X179321158Y-83324500D01*
X179321155Y-83324500D01*
X179166510Y-83355261D01*
X179166498Y-83355264D01*
X179020827Y-83415602D01*
X179020814Y-83415609D01*
X178889711Y-83503210D01*
X178889707Y-83503213D01*
X178778213Y-83614707D01*
X178778210Y-83614711D01*
X178690609Y-83745814D01*
X178690602Y-83745827D01*
X178630264Y-83891498D01*
X178630261Y-83891510D01*
X178599500Y-84046153D01*
X178599500Y-84203846D01*
X178630261Y-84358489D01*
X178630263Y-84358497D01*
X178640061Y-84382151D01*
X178649500Y-84429604D01*
X178649500Y-102887770D01*
X178629815Y-102954809D01*
X178613181Y-102975451D01*
X177767047Y-103821584D01*
X177767045Y-103821586D01*
X177730838Y-103875778D01*
X177730836Y-103875781D01*
X177684919Y-103944499D01*
X177684912Y-103944511D01*
X177628343Y-104081082D01*
X177628340Y-104081092D01*
X177599500Y-104226079D01*
X177599500Y-104695396D01*
X177598049Y-104702687D01*
X177596408Y-104722916D01*
X177594079Y-104733147D01*
X177580263Y-104766503D01*
X177549500Y-104921158D01*
X173900500Y-104921158D01*
X173900500Y-88921902D01*
X175149500Y-88921902D01*
X175149500Y-89158097D01*
X175186446Y-89391368D01*
X175259433Y-89615996D01*
X175363641Y-89820514D01*
X175366657Y-89826433D01*
X175505483Y-90017510D01*
X175672490Y-90184517D01*
X175863567Y-90323343D01*
X175962991Y-90374002D01*
X176074003Y-90430566D01*
X176074005Y-90430566D01*
X176074008Y-90430568D01*
X176194412Y-90469689D01*
X176298631Y-90503553D01*
X176531903Y-90540500D01*
X176531908Y-90540500D01*
X176768097Y-90540500D01*
X177001368Y-90503553D01*
X177225992Y-90430568D01*
X177436433Y-90323343D01*
X177627510Y-90184517D01*
X177794517Y-90017510D01*
X177933343Y-89826433D01*
X178040568Y-89615992D01*
X178113553Y-89391368D01*
X178139708Y-89226232D01*
X178150500Y-89158097D01*
X178150500Y-88921902D01*
X178113553Y-88688631D01*
X178058761Y-88520000D01*
X178040568Y-88464008D01*
X178040566Y-88464005D01*
X178040566Y-88464003D01*
X177971229Y-88327922D01*
X177933343Y-88253567D01*
X177794517Y-88062490D01*
X177627510Y-87895483D01*
X177436433Y-87756657D01*
X177225996Y-87649433D01*
X177001368Y-87576446D01*
X176768097Y-87539500D01*
X176768092Y-87539500D01*
X176531908Y-87539500D01*
X176531903Y-87539500D01*
X176298631Y-87576446D01*
X176074003Y-87649433D01*
X175863566Y-87756657D01*
X175754550Y-87835862D01*
X175672490Y-87895483D01*
X175672488Y-87895485D01*
X175672487Y-87895485D01*
X175505485Y-88062487D01*
X175505485Y-88062488D01*
X175505483Y-88062490D01*
X175472709Y-88107600D01*
X175366657Y-88253566D01*
X175259433Y-88464003D01*
X175186446Y-88688631D01*
X175149500Y-88921902D01*
X173900500Y-88921902D01*
X173900500Y-81223713D01*
X179399500Y-81223713D01*
X179399500Y-81436287D01*
X179432754Y-81646243D01*
X179495905Y-81840602D01*
X179498444Y-81848414D01*
X179594951Y-82037820D01*
X179719890Y-82209786D01*
X179870213Y-82360109D01*
X180042179Y-82485048D01*
X180042181Y-82485049D01*
X180042184Y-82485051D01*
X180231588Y-82581557D01*
X180433757Y-82647246D01*
X180643713Y-82680500D01*
X180643714Y-82680500D01*
X180856286Y-82680500D01*
X180856287Y-82680500D01*
X181066243Y-82647246D01*
X181268412Y-82581557D01*
X181457816Y-82485051D01*
X181479789Y-82469086D01*
X181629786Y-82360109D01*
X181629788Y-82360106D01*
X181629792Y-82360104D01*
X181780104Y-82209792D01*
X181780106Y-82209788D01*
X181780109Y-82209786D01*
X181905048Y-82037820D01*
X181905047Y-82037820D01*
X181905051Y-82037816D01*
X182001557Y-81848412D01*
X182067246Y-81646243D01*
X182100500Y-81436287D01*
X182100500Y-81223713D01*
X182067246Y-81013757D01*
X182001557Y-80811588D01*
X181905051Y-80622184D01*
X181905049Y-80622181D01*
X181905048Y-80622179D01*
X181780109Y-80450213D01*
X181629786Y-80299890D01*
X181457820Y-80174951D01*
X181268414Y-80078444D01*
X181268413Y-80078443D01*
X181268412Y-80078443D01*
X181066243Y-80012754D01*
X181066241Y-80012753D01*
X181066240Y-80012753D01*
X180904957Y-79987208D01*
X180856287Y-79979500D01*
X180643713Y-79979500D01*
X180595042Y-79987208D01*
X180433760Y-80012753D01*
X180231585Y-80078444D01*
X180042179Y-80174951D01*
X179870213Y-80299890D01*
X179719890Y-80450213D01*
X179594951Y-80622179D01*
X179498444Y-80811585D01*
X179432753Y-81013760D01*
X179407678Y-81172077D01*
X179399500Y-81223713D01*
X173900500Y-81223713D01*
X173900500Y-80162229D01*
X173920185Y-80095190D01*
X173936814Y-80074553D01*
X176765297Y-77246069D01*
X176805524Y-77219191D01*
X176829179Y-77209394D01*
X176960289Y-77121789D01*
X177071789Y-77010289D01*
X177159394Y-76879179D01*
X177219737Y-76733497D01*
X177250500Y-76578842D01*
X177250500Y-76421158D01*
X177250500Y-76421155D01*
X177250499Y-76421153D01*
X177226250Y-76299247D01*
X177219737Y-76266503D01*
X177179841Y-76170185D01*
X177159397Y-76120827D01*
X177159390Y-76120814D01*
X177071789Y-75989711D01*
X177071786Y-75989707D01*
X176960292Y-75878213D01*
X176960288Y-75878210D01*
X176829185Y-75790609D01*
X176829172Y-75790602D01*
X176683501Y-75730264D01*
X176683489Y-75730261D01*
X176528845Y-75699500D01*
X176528842Y-75699500D01*
X176371158Y-75699500D01*
X176371155Y-75699500D01*
X176216510Y-75730261D01*
X176216498Y-75730264D01*
X176070827Y-75790602D01*
X176070814Y-75790609D01*
X175939711Y-75878210D01*
X175939707Y-75878213D01*
X175828213Y-75989707D01*
X175828207Y-75989715D01*
X175740607Y-76120818D01*
X175740606Y-76120819D01*
X175730805Y-76144480D01*
X175703927Y-76184703D01*
X172567047Y-79321584D01*
X172567043Y-79321589D01*
X172552603Y-79343202D01*
X172498992Y-79388008D01*
X172429667Y-79396717D01*
X172366639Y-79366563D01*
X172329919Y-79307121D01*
X172325500Y-79274313D01*
X172325500Y-77662229D01*
X172345185Y-77595190D01*
X172361814Y-77574553D01*
X174990297Y-74946069D01*
X175030524Y-74919191D01*
X175054179Y-74909394D01*
X175185289Y-74821789D01*
X175296789Y-74710289D01*
X175384394Y-74579179D01*
X175444737Y-74433497D01*
X175475500Y-74278842D01*
X175475500Y-74121158D01*
X175475500Y-74121155D01*
X175475499Y-74121153D01*
X175444738Y-73966510D01*
X175444737Y-73966503D01*
X175410855Y-73884703D01*
X175384397Y-73820827D01*
X175384390Y-73820814D01*
X175296789Y-73689711D01*
X175296786Y-73689707D01*
X175185292Y-73578213D01*
X175185288Y-73578210D01*
X175054185Y-73490609D01*
X175054172Y-73490602D01*
X174908501Y-73430264D01*
X174908489Y-73430261D01*
X174753845Y-73399500D01*
X174753842Y-73399500D01*
X174596158Y-73399500D01*
X174596155Y-73399500D01*
X174441510Y-73430261D01*
X174441498Y-73430264D01*
X174295827Y-73490602D01*
X174295814Y-73490609D01*
X174164711Y-73578210D01*
X174164707Y-73578213D01*
X174053213Y-73689707D01*
X174053207Y-73689715D01*
X173965607Y-73820818D01*
X173965606Y-73820819D01*
X173955805Y-73844480D01*
X173928927Y-73884703D01*
X171137181Y-76676450D01*
X171075858Y-76709935D01*
X171006166Y-76704951D01*
X170950233Y-76663079D01*
X170925816Y-76597615D01*
X170925500Y-76588769D01*
X170925500Y-72812135D01*
X179399500Y-72812135D01*
X179399500Y-74607870D01*
X179399501Y-74607876D01*
X179405908Y-74667483D01*
X179456202Y-74802328D01*
X179456206Y-74802335D01*
X179542452Y-74917544D01*
X179542455Y-74917547D01*
X179657664Y-75003793D01*
X179657671Y-75003797D01*
X179789082Y-75052810D01*
X179845016Y-75094681D01*
X179869433Y-75160145D01*
X179854582Y-75228418D01*
X179833431Y-75256673D01*
X179719889Y-75370215D01*
X179594951Y-75542179D01*
X179498444Y-75731585D01*
X179432753Y-75933760D01*
X179399500Y-76143713D01*
X179399500Y-76356286D01*
X179424443Y-76513773D01*
X179432754Y-76566243D01*
X179488582Y-76738064D01*
X179498444Y-76768414D01*
X179594951Y-76957820D01*
X179719890Y-77129786D01*
X179870213Y-77280109D01*
X180042179Y-77405048D01*
X180042181Y-77405049D01*
X180042184Y-77405051D01*
X180231588Y-77501557D01*
X180433757Y-77567246D01*
X180643713Y-77600500D01*
X180643714Y-77600500D01*
X180856286Y-77600500D01*
X180856287Y-77600500D01*
X181066243Y-77567246D01*
X181268412Y-77501557D01*
X181457816Y-77405051D01*
X181552852Y-77336004D01*
X181629786Y-77280109D01*
X181629788Y-77280106D01*
X181629792Y-77280104D01*
X181780104Y-77129792D01*
X181780106Y-77129788D01*
X181780109Y-77129786D01*
X181905048Y-76957820D01*
X181905047Y-76957820D01*
X181905051Y-76957816D01*
X182001557Y-76768412D01*
X182067246Y-76566243D01*
X182100500Y-76356287D01*
X182100500Y-76143713D01*
X182067246Y-75933757D01*
X182001557Y-75731588D01*
X181905051Y-75542184D01*
X181905049Y-75542181D01*
X181905048Y-75542179D01*
X181780109Y-75370213D01*
X181666569Y-75256673D01*
X181633084Y-75195350D01*
X181638068Y-75125658D01*
X181679940Y-75069725D01*
X181710915Y-75052810D01*
X181842331Y-75003796D01*
X181957546Y-74917546D01*
X182043796Y-74802331D01*
X182094091Y-74667483D01*
X182100500Y-74607873D01*
X182100499Y-72812128D01*
X182094091Y-72752517D01*
X182043796Y-72617669D01*
X182043795Y-72617668D01*
X182043793Y-72617664D01*
X181957547Y-72502455D01*
X181957544Y-72502452D01*
X181842335Y-72416206D01*
X181842328Y-72416202D01*
X181707482Y-72365908D01*
X181707483Y-72365908D01*
X181647883Y-72359501D01*
X181647881Y-72359500D01*
X181647873Y-72359500D01*
X181647864Y-72359500D01*
X179852129Y-72359500D01*
X179852123Y-72359501D01*
X179792516Y-72365908D01*
X179657671Y-72416202D01*
X179657664Y-72416206D01*
X179542455Y-72502452D01*
X179542452Y-72502455D01*
X179456206Y-72617664D01*
X179456202Y-72617671D01*
X179405908Y-72752517D01*
X179399501Y-72812116D01*
X179399501Y-72812123D01*
X179399500Y-72812135D01*
X170925500Y-72812135D01*
X170925500Y-70862229D01*
X170945185Y-70795190D01*
X170961819Y-70774548D01*
X172869188Y-68867179D01*
X175007952Y-66728415D01*
X175035205Y-66687627D01*
X175090084Y-66605495D01*
X175113518Y-66548920D01*
X175146659Y-66468912D01*
X175175500Y-66323917D01*
X175175500Y-66176082D01*
X175175500Y-63704604D01*
X175184939Y-63657151D01*
X175194737Y-63633497D01*
X175225500Y-63478842D01*
X175225500Y-63321158D01*
X175225500Y-63321155D01*
X175225499Y-63321153D01*
X175194738Y-63166510D01*
X175194737Y-63166503D01*
X175194735Y-63166498D01*
X175134397Y-63020827D01*
X175134390Y-63020814D01*
X175046789Y-62889711D01*
X175046786Y-62889707D01*
X174935292Y-62778213D01*
X174935288Y-62778210D01*
X174804185Y-62690609D01*
X174804172Y-62690602D01*
X174658501Y-62630264D01*
X174658489Y-62630261D01*
X174503845Y-62599500D01*
X174503842Y-62599500D01*
X174346158Y-62599500D01*
X174346155Y-62599500D01*
X174191510Y-62630261D01*
X174191498Y-62630264D01*
X174045827Y-62690602D01*
X174045814Y-62690609D01*
X173914711Y-62778210D01*
X173914707Y-62778213D01*
X173803213Y-62889707D01*
X173803210Y-62889711D01*
X173715609Y-63020814D01*
X173715602Y-63020827D01*
X173655264Y-63166498D01*
X173655261Y-63166510D01*
X173624500Y-63321153D01*
X173624500Y-63478846D01*
X173655261Y-63633489D01*
X173655263Y-63633497D01*
X173665061Y-63657151D01*
X173674500Y-63704604D01*
X173674500Y-65887769D01*
X173654815Y-65954808D01*
X173638181Y-65975450D01*
X169592050Y-70021580D01*
X169592044Y-70021588D01*
X169542812Y-70095268D01*
X169542813Y-70095269D01*
X169509921Y-70144496D01*
X169509914Y-70144508D01*
X169453342Y-70281086D01*
X169453340Y-70281092D01*
X169424500Y-70426079D01*
X169424500Y-91537769D01*
X169404815Y-91604808D01*
X169388181Y-91625450D01*
X169067050Y-91946580D01*
X169067049Y-91946581D01*
X169023494Y-92011768D01*
X169008072Y-92030559D01*
X167200451Y-93838181D01*
X167139128Y-93871666D01*
X167112770Y-93874500D01*
X161104604Y-93874500D01*
X161057155Y-93865062D01*
X161033497Y-93855263D01*
X161033493Y-93855262D01*
X161033488Y-93855260D01*
X160878845Y-93824500D01*
X160878842Y-93824500D01*
X160721158Y-93824500D01*
X160721155Y-93824500D01*
X160566510Y-93855261D01*
X160566498Y-93855264D01*
X160420827Y-93915602D01*
X160420814Y-93915609D01*
X160289711Y-94003210D01*
X160289707Y-94003213D01*
X160178213Y-94114707D01*
X160178210Y-94114711D01*
X160090609Y-94245814D01*
X160090602Y-94245827D01*
X160030264Y-94391498D01*
X160030261Y-94391510D01*
X159999500Y-94546153D01*
X151673851Y-94546153D01*
X151675500Y-94530009D01*
X151675499Y-93329992D01*
X151664999Y-93227203D01*
X151609814Y-93060666D01*
X151517712Y-92911344D01*
X151393656Y-92787288D01*
X151244334Y-92695186D01*
X151077797Y-92640001D01*
X151077795Y-92640000D01*
X150975010Y-92629500D01*
X149774998Y-92629500D01*
X149774981Y-92629501D01*
X149672203Y-92640000D01*
X149672200Y-92640001D01*
X149505668Y-92695185D01*
X149505663Y-92695187D01*
X149356342Y-92787289D01*
X149232289Y-92911342D01*
X149140187Y-93060663D01*
X149140185Y-93060668D01*
X149136668Y-93071282D01*
X149085001Y-93227203D01*
X149085001Y-93227204D01*
X149085000Y-93227204D01*
X149074500Y-93329983D01*
X145606372Y-93329983D01*
X145568786Y-93239244D01*
X145568784Y-93239241D01*
X145568782Y-93239237D01*
X145456558Y-93071281D01*
X145313718Y-92928441D01*
X145145762Y-92816217D01*
X145145752Y-92816212D01*
X144959127Y-92738909D01*
X144959119Y-92738907D01*
X144761007Y-92699500D01*
X144761003Y-92699500D01*
X144108997Y-92699500D01*
X144108992Y-92699500D01*
X143910880Y-92738907D01*
X143910872Y-92738909D01*
X143724247Y-92816212D01*
X143724237Y-92816217D01*
X143556281Y-92928441D01*
X143413441Y-93071281D01*
X143301217Y-93239237D01*
X143301212Y-93239247D01*
X143223909Y-93425872D01*
X143223907Y-93425880D01*
X143184500Y-93623992D01*
X133612375Y-93623992D01*
X136258012Y-90978354D01*
X136319333Y-90944871D01*
X136365085Y-90943564D01*
X136408876Y-90950500D01*
X136408879Y-90950500D01*
X136641129Y-90950500D01*
X136747317Y-90933681D01*
X136870514Y-90914169D01*
X137091396Y-90842400D01*
X137298331Y-90736961D01*
X137486224Y-90600449D01*
X137650449Y-90436224D01*
X137786961Y-90248331D01*
X137892400Y-90041396D01*
X137964169Y-89820514D01*
X137996561Y-89615996D01*
X138000500Y-89591129D01*
X138000500Y-89358870D01*
X137979492Y-89226232D01*
X137976918Y-89209983D01*
X142624500Y-89209983D01*
X142624500Y-90410001D01*
X142624501Y-90410018D01*
X142635000Y-90512796D01*
X142635001Y-90512799D01*
X142664045Y-90600446D01*
X142690186Y-90679334D01*
X142782288Y-90828656D01*
X142906344Y-90952712D01*
X143055666Y-91044814D01*
X143222203Y-91099999D01*
X143324991Y-91110500D01*
X144525008Y-91110499D01*
X144627797Y-91099999D01*
X144794334Y-91044814D01*
X144943656Y-90952712D01*
X145067712Y-90828656D01*
X145159814Y-90679334D01*
X145214999Y-90512797D01*
X145225500Y-90410009D01*
X145225499Y-89209992D01*
X145214999Y-89107203D01*
X145159814Y-88940666D01*
X145067712Y-88791344D01*
X144943656Y-88667288D01*
X144794334Y-88575186D01*
X144627797Y-88520001D01*
X144627795Y-88520000D01*
X144525010Y-88509500D01*
X143324998Y-88509500D01*
X143324981Y-88509501D01*
X143222203Y-88520000D01*
X143222200Y-88520001D01*
X143055668Y-88575185D01*
X143055663Y-88575187D01*
X142906342Y-88667289D01*
X142782289Y-88791342D01*
X142690187Y-88940663D01*
X142690186Y-88940666D01*
X142635001Y-89107203D01*
X142635001Y-89107204D01*
X142635000Y-89107204D01*
X142624500Y-89209983D01*
X137976918Y-89209983D01*
X137968700Y-89158097D01*
X137964169Y-89129486D01*
X137892400Y-88908604D01*
X137892398Y-88908601D01*
X137892398Y-88908599D01*
X137786960Y-88701668D01*
X137777488Y-88688631D01*
X137679872Y-88554273D01*
X137656393Y-88488469D01*
X137672218Y-88420415D01*
X137722324Y-88371720D01*
X137780191Y-88357390D01*
X142081922Y-88357390D01*
X142081925Y-88357390D01*
X142191896Y-88327923D01*
X142290494Y-88270998D01*
X142370998Y-88190494D01*
X142427923Y-88091896D01*
X142457390Y-87981925D01*
X142457390Y-86207648D01*
X151614500Y-86207648D01*
X151614500Y-86412351D01*
X151646522Y-86614534D01*
X151709781Y-86809223D01*
X151802715Y-86991613D01*
X151923028Y-87157213D01*
X152067786Y-87301971D01*
X152222749Y-87414556D01*
X152233390Y-87422287D01*
X152349607Y-87481503D01*
X152415776Y-87515218D01*
X152415778Y-87515218D01*
X152415781Y-87515220D01*
X152490507Y-87539500D01*
X152610465Y-87578477D01*
X152711557Y-87594488D01*
X152812648Y-87610500D01*
X152812649Y-87610500D01*
X153017351Y-87610500D01*
X153017352Y-87610500D01*
X153219534Y-87578477D01*
X153414219Y-87515220D01*
X153596610Y-87422287D01*
X153689590Y-87354732D01*
X153762213Y-87301971D01*
X153762215Y-87301968D01*
X153762219Y-87301966D01*
X153906966Y-87157219D01*
X153906968Y-87157215D01*
X153906971Y-87157213D01*
X153959732Y-87084590D01*
X154027287Y-86991610D01*
X154120220Y-86809219D01*
X154183477Y-86614534D01*
X154215500Y-86412352D01*
X154215500Y-86207648D01*
X154183477Y-86005466D01*
X154120220Y-85810781D01*
X154120218Y-85810778D01*
X154120218Y-85810776D01*
X154054801Y-85682390D01*
X154027287Y-85628390D01*
X154003753Y-85595998D01*
X153906971Y-85462786D01*
X153762213Y-85318028D01*
X153596613Y-85197715D01*
X153596612Y-85197714D01*
X153596610Y-85197713D01*
X153539653Y-85168691D01*
X153414223Y-85104781D01*
X153219534Y-85041522D01*
X153044995Y-85013878D01*
X153017352Y-85009500D01*
X152812648Y-85009500D01*
X152788329Y-85013351D01*
X152610465Y-85041522D01*
X152415776Y-85104781D01*
X152233386Y-85197715D01*
X152067786Y-85318028D01*
X151923028Y-85462786D01*
X151802715Y-85628386D01*
X151709781Y-85810776D01*
X151646522Y-86005465D01*
X151614500Y-86207648D01*
X142457390Y-86207648D01*
X142457390Y-82664570D01*
X142477075Y-82597531D01*
X142529879Y-82551776D01*
X142599037Y-82541832D01*
X142662593Y-82570857D01*
X142699320Y-82626251D01*
X142716870Y-82680264D01*
X142719781Y-82689221D01*
X142812715Y-82871613D01*
X142933028Y-83037213D01*
X143077786Y-83181971D01*
X143210830Y-83278631D01*
X143243390Y-83302287D01*
X143347357Y-83355261D01*
X143425776Y-83395218D01*
X143425778Y-83395218D01*
X143425781Y-83395220D01*
X143488523Y-83415606D01*
X143620465Y-83458477D01*
X143721557Y-83474488D01*
X143822648Y-83490500D01*
X143822649Y-83490500D01*
X144027351Y-83490500D01*
X144027352Y-83490500D01*
X144229534Y-83458477D01*
X144424219Y-83395220D01*
X144471453Y-83371153D01*
X145824500Y-83371153D01*
X145824500Y-83528846D01*
X145855261Y-83683489D01*
X145855264Y-83683501D01*
X145915602Y-83829172D01*
X145915609Y-83829185D01*
X146003210Y-83960288D01*
X146003213Y-83960292D01*
X146114707Y-84071786D01*
X146114711Y-84071789D01*
X146245814Y-84159390D01*
X146245827Y-84159397D01*
X146367846Y-84209938D01*
X146391503Y-84219737D01*
X146546153Y-84250499D01*
X146546156Y-84250500D01*
X146546158Y-84250500D01*
X146703844Y-84250500D01*
X146703845Y-84250499D01*
X146780152Y-84235320D01*
X146858488Y-84219739D01*
X146858489Y-84219738D01*
X146858497Y-84219737D01*
X146882155Y-84209937D01*
X146929604Y-84200500D01*
X150323920Y-84200500D01*
X150421462Y-84181096D01*
X150468913Y-84171658D01*
X150605495Y-84115084D01*
X150670291Y-84071789D01*
X150670294Y-84071786D01*
X150670296Y-84071786D01*
X150708659Y-84046153D01*
X150728416Y-84032952D01*
X151465297Y-83296069D01*
X151505522Y-83269192D01*
X151529179Y-83259394D01*
X151660289Y-83171789D01*
X151771789Y-83060289D01*
X151859394Y-82929179D01*
X151919737Y-82783497D01*
X151950500Y-82628842D01*
X151950500Y-82471158D01*
X151950500Y-82471155D01*
X151950499Y-82471153D01*
X151919738Y-82316510D01*
X151919737Y-82316503D01*
X151919735Y-82316498D01*
X151859397Y-82170827D01*
X151859390Y-82170814D01*
X151771789Y-82039711D01*
X151771786Y-82039707D01*
X151660292Y-81928213D01*
X151660288Y-81928210D01*
X151529185Y-81840609D01*
X151529172Y-81840602D01*
X151383501Y-81780264D01*
X151383489Y-81780261D01*
X151228845Y-81749500D01*
X151228842Y-81749500D01*
X151071158Y-81749500D01*
X151071155Y-81749500D01*
X150916510Y-81780261D01*
X150916498Y-81780264D01*
X150770827Y-81840602D01*
X150770814Y-81840609D01*
X150639711Y-81928210D01*
X150639707Y-81928213D01*
X150528213Y-82039707D01*
X150528207Y-82039715D01*
X150440607Y-82170818D01*
X150440606Y-82170819D01*
X150430805Y-82194480D01*
X150403927Y-82234703D01*
X149975451Y-82663181D01*
X149914128Y-82696666D01*
X149887770Y-82699500D01*
X146929604Y-82699500D01*
X146882155Y-82690062D01*
X146858497Y-82680263D01*
X146858493Y-82680262D01*
X146858488Y-82680260D01*
X146703845Y-82649500D01*
X146703842Y-82649500D01*
X146546158Y-82649500D01*
X146546155Y-82649500D01*
X146391510Y-82680261D01*
X146391498Y-82680264D01*
X146245827Y-82740602D01*
X146245814Y-82740609D01*
X146114711Y-82828210D01*
X146114707Y-82828213D01*
X146003213Y-82939707D01*
X146003210Y-82939711D01*
X145915609Y-83070814D01*
X145915602Y-83070827D01*
X145855264Y-83216498D01*
X145855261Y-83216510D01*
X145824500Y-83371153D01*
X144471453Y-83371153D01*
X144606610Y-83302287D01*
X144639170Y-83278631D01*
X144658281Y-83264747D01*
X144658281Y-83264746D01*
X144665648Y-83259394D01*
X144772219Y-83181966D01*
X144916966Y-83037219D01*
X144916968Y-83037215D01*
X144916971Y-83037213D01*
X144987812Y-82939707D01*
X145037287Y-82871610D01*
X145127872Y-82693827D01*
X145130218Y-82689223D01*
X145130219Y-82689221D01*
X145130220Y-82689219D01*
X145193477Y-82494534D01*
X145225500Y-82292352D01*
X145225500Y-82087648D01*
X145193477Y-81885466D01*
X145181437Y-81848412D01*
X145149299Y-81749500D01*
X145130220Y-81690781D01*
X145130218Y-81690778D01*
X145130218Y-81690776D01*
X145096503Y-81624607D01*
X145037287Y-81508390D01*
X144964426Y-81408104D01*
X144916971Y-81342786D01*
X144772213Y-81198028D01*
X144606613Y-81077715D01*
X144606612Y-81077714D01*
X144606610Y-81077713D01*
X144549653Y-81048691D01*
X144424223Y-80984781D01*
X144229534Y-80921522D01*
X144054995Y-80893878D01*
X144027352Y-80889500D01*
X143822648Y-80889500D01*
X143798329Y-80893351D01*
X143620465Y-80921522D01*
X143425776Y-80984781D01*
X143243386Y-81077715D01*
X143077786Y-81198028D01*
X142933028Y-81342786D01*
X142812715Y-81508386D01*
X142719781Y-81690776D01*
X142699321Y-81753748D01*
X142659883Y-81811423D01*
X142595524Y-81838621D01*
X142526678Y-81826706D01*
X142475202Y-81779462D01*
X142457390Y-81715429D01*
X142457390Y-79118077D01*
X142457390Y-79118075D01*
X142427923Y-79008104D01*
X142370998Y-78909506D01*
X142290494Y-78829002D01*
X142191896Y-78772077D01*
X142191897Y-78772077D01*
X142164403Y-78764710D01*
X142081925Y-78742610D01*
X142081922Y-78742610D01*
X137643425Y-78742610D01*
X137576386Y-78722925D01*
X137530631Y-78670121D01*
X137520687Y-78600963D01*
X137549712Y-78537407D01*
X137555744Y-78530929D01*
X137584965Y-78501708D01*
X137650449Y-78436224D01*
X137786961Y-78248331D01*
X137892400Y-78041396D01*
X137964169Y-77820514D01*
X137984443Y-77692502D01*
X138000500Y-77591129D01*
X138000500Y-77358870D01*
X137982634Y-77246072D01*
X137969637Y-77164012D01*
X137978591Y-77094722D01*
X138004426Y-77056939D01*
X138874548Y-76186819D01*
X138935871Y-76153334D01*
X138962229Y-76150500D01*
X142717246Y-76150500D01*
X142784285Y-76170185D01*
X142830040Y-76222989D01*
X142839984Y-76292147D01*
X142831807Y-76321953D01*
X142763909Y-76485872D01*
X142763907Y-76485880D01*
X142724500Y-76683992D01*
X142724500Y-77336007D01*
X142763907Y-77534119D01*
X142763909Y-77534127D01*
X142841212Y-77720752D01*
X142841217Y-77720762D01*
X142953441Y-77888718D01*
X143096281Y-78031558D01*
X143264237Y-78143782D01*
X143264241Y-78143784D01*
X143264244Y-78143786D01*
X143450873Y-78221091D01*
X143587819Y-78248331D01*
X143648992Y-78260499D01*
X143648996Y-78260500D01*
X143648997Y-78260500D01*
X143851004Y-78260500D01*
X143851005Y-78260499D01*
X144049127Y-78221091D01*
X144235756Y-78143786D01*
X144316110Y-78090094D01*
X144382786Y-78069217D01*
X144450166Y-78087701D01*
X144453865Y-78090078D01*
X144534244Y-78143786D01*
X144720873Y-78221091D01*
X144857819Y-78248331D01*
X144918992Y-78260499D01*
X144918996Y-78260500D01*
X144918997Y-78260500D01*
X145121004Y-78260500D01*
X145121005Y-78260499D01*
X145319127Y-78221091D01*
X145505756Y-78143786D01*
X145673718Y-78031558D01*
X145816558Y-77888718D01*
X145928786Y-77720756D01*
X146006091Y-77534127D01*
X146045500Y-77336003D01*
X146045500Y-77095259D01*
X151274500Y-77095259D01*
X151274500Y-77454740D01*
X151314746Y-77811935D01*
X151314748Y-77811951D01*
X151394737Y-78162407D01*
X151394741Y-78162419D01*
X151513465Y-78501711D01*
X151669432Y-78825579D01*
X151686144Y-78852176D01*
X151860685Y-79129956D01*
X152084812Y-79411003D01*
X152338997Y-79665188D01*
X152620044Y-79889315D01*
X152924418Y-80080566D01*
X153248292Y-80236536D01*
X153429348Y-80299890D01*
X153587580Y-80355258D01*
X153587592Y-80355262D01*
X153938052Y-80435252D01*
X154295260Y-80475499D01*
X154295261Y-80475500D01*
X154295264Y-80475500D01*
X154654739Y-80475500D01*
X154654739Y-80475499D01*
X155011948Y-80435252D01*
X155362408Y-80355262D01*
X155701708Y-80236536D01*
X156025582Y-80080566D01*
X156329956Y-79889315D01*
X156611003Y-79665188D01*
X156865188Y-79411003D01*
X157089315Y-79129956D01*
X157280566Y-78825582D01*
X157436536Y-78501708D01*
X157555262Y-78162408D01*
X157635252Y-77811948D01*
X157675500Y-77454736D01*
X157675500Y-77095264D01*
X157635252Y-76738052D01*
X157555262Y-76387592D01*
X157436536Y-76048292D01*
X157312439Y-75790602D01*
X157280567Y-75724420D01*
X157264909Y-75699500D01*
X157089315Y-75420044D01*
X156865188Y-75138997D01*
X156611003Y-74884812D01*
X156329956Y-74660685D01*
X156025582Y-74469434D01*
X156025579Y-74469432D01*
X155701711Y-74313465D01*
X155362419Y-74194741D01*
X155362407Y-74194737D01*
X155011951Y-74114748D01*
X155011935Y-74114746D01*
X154654740Y-74074500D01*
X154654736Y-74074500D01*
X154295264Y-74074500D01*
X154295259Y-74074500D01*
X153938064Y-74114746D01*
X153938048Y-74114748D01*
X153587592Y-74194737D01*
X153587580Y-74194741D01*
X153248288Y-74313465D01*
X152924420Y-74469432D01*
X152620045Y-74660684D01*
X152338997Y-74884811D01*
X152084811Y-75138997D01*
X151860684Y-75420045D01*
X151669432Y-75724420D01*
X151513465Y-76048288D01*
X151394741Y-76387580D01*
X151394737Y-76387592D01*
X151314748Y-76738048D01*
X151314746Y-76738064D01*
X151274500Y-77095259D01*
X146045500Y-77095259D01*
X146045500Y-76683997D01*
X146006091Y-76485873D01*
X145928786Y-76299244D01*
X145928784Y-76299241D01*
X145928782Y-76299237D01*
X145816558Y-76131281D01*
X145673718Y-75988441D01*
X145505762Y-75876217D01*
X145505752Y-75876212D01*
X145319127Y-75798909D01*
X145319119Y-75798907D01*
X145214239Y-75778045D01*
X145152328Y-75745660D01*
X145150749Y-75744109D01*
X144223693Y-74817052D01*
X144223686Y-74817046D01*
X144150001Y-74767812D01*
X144150001Y-74767813D01*
X144100763Y-74734913D01*
X143964189Y-74678343D01*
X143964179Y-74678340D01*
X143819192Y-74649500D01*
X143819190Y-74649500D01*
X138526082Y-74649500D01*
X138526080Y-74649500D01*
X138381092Y-74678340D01*
X138381082Y-74678343D01*
X138244507Y-74734914D01*
X138143615Y-74802328D01*
X138143611Y-74802331D01*
X138138140Y-74805986D01*
X138121581Y-74817050D01*
X136943062Y-75995569D01*
X136881739Y-76029054D01*
X136835984Y-76030361D01*
X136641131Y-75999500D01*
X136641124Y-75999500D01*
X136408876Y-75999500D01*
X136408871Y-75999500D01*
X136179485Y-76035831D01*
X135958599Y-76107601D01*
X135751668Y-76213039D01*
X135563773Y-76349553D01*
X135399553Y-76513773D01*
X135263039Y-76701668D01*
X135157601Y-76908599D01*
X135085831Y-77129485D01*
X135049500Y-77358870D01*
X135049500Y-77591129D01*
X135085831Y-77820514D01*
X135157601Y-78041400D01*
X135249159Y-78221090D01*
X135263039Y-78248331D01*
X135399551Y-78436224D01*
X135563776Y-78600449D01*
X135704695Y-78702833D01*
X135751670Y-78736962D01*
X135771970Y-78747305D01*
X135822766Y-78795279D01*
X135839562Y-78863100D01*
X135823064Y-78919788D01*
X135772079Y-79008099D01*
X135772077Y-79008102D01*
X135760610Y-79050900D01*
X135742610Y-79118075D01*
X135742610Y-79118077D01*
X135742610Y-80843955D01*
X135722925Y-80910994D01*
X135670121Y-80956749D01*
X135600963Y-80966693D01*
X135537407Y-80937668D01*
X135530929Y-80931636D01*
X132636319Y-78037026D01*
X132602834Y-77975703D01*
X132600000Y-77949345D01*
X132600000Y-69468713D01*
X152517000Y-69468713D01*
X152517000Y-69981287D01*
X152550254Y-70191243D01*
X152579446Y-70281087D01*
X152615944Y-70393414D01*
X152712451Y-70582820D01*
X152837390Y-70754786D01*
X152987713Y-70905109D01*
X153159679Y-71030048D01*
X153159681Y-71030049D01*
X153159684Y-71030051D01*
X153349088Y-71126557D01*
X153551257Y-71192246D01*
X153761213Y-71225500D01*
X153761214Y-71225500D01*
X153973786Y-71225500D01*
X153973787Y-71225500D01*
X154183743Y-71192246D01*
X154385912Y-71126557D01*
X154575316Y-71030051D01*
X154597289Y-71014086D01*
X154747286Y-70905109D01*
X154747288Y-70905106D01*
X154747292Y-70905104D01*
X154897604Y-70754792D01*
X154897606Y-70754788D01*
X154897609Y-70754786D01*
X155022548Y-70582820D01*
X155022547Y-70582820D01*
X155022551Y-70582816D01*
X155119057Y-70393412D01*
X155184746Y-70191243D01*
X155218000Y-69981287D01*
X155218000Y-69468713D01*
X155184746Y-69258757D01*
X155119057Y-69056588D01*
X155022551Y-68867184D01*
X155022549Y-68867181D01*
X155022548Y-68867179D01*
X154897609Y-68695213D01*
X154747286Y-68544890D01*
X154575320Y-68419951D01*
X154385914Y-68323444D01*
X154385913Y-68323443D01*
X154385912Y-68323443D01*
X154183743Y-68257754D01*
X154183741Y-68257753D01*
X154183740Y-68257753D01*
X154022457Y-68232208D01*
X153973787Y-68224500D01*
X153761213Y-68224500D01*
X153712542Y-68232208D01*
X153551260Y-68257753D01*
X153349085Y-68323444D01*
X153159679Y-68419951D01*
X152987713Y-68544890D01*
X152837390Y-68695213D01*
X152712451Y-68867179D01*
X152615944Y-69056585D01*
X152550253Y-69258760D01*
X152517000Y-69468713D01*
X132600000Y-69468713D01*
X132600000Y-60146902D01*
X175424500Y-60146902D01*
X175424500Y-60383097D01*
X175461446Y-60616368D01*
X175534433Y-60840996D01*
X175641657Y-61051433D01*
X175780483Y-61242510D01*
X175947490Y-61409517D01*
X176138567Y-61548343D01*
X176237991Y-61599002D01*
X176349003Y-61655566D01*
X176349005Y-61655566D01*
X176349008Y-61655568D01*
X176469412Y-61694689D01*
X176573631Y-61728553D01*
X176806903Y-61765500D01*
X176806908Y-61765500D01*
X177043097Y-61765500D01*
X177276368Y-61728553D01*
X177500992Y-61655568D01*
X177711433Y-61548343D01*
X177902510Y-61409517D01*
X178069517Y-61242510D01*
X178208343Y-61051433D01*
X178315568Y-60840992D01*
X178388553Y-60616368D01*
X178425500Y-60383097D01*
X178425500Y-60146902D01*
X181924500Y-60146902D01*
X181924500Y-60383097D01*
X181961446Y-60616368D01*
X182034433Y-60840996D01*
X182141657Y-61051433D01*
X182280483Y-61242510D01*
X182447490Y-61409517D01*
X182638567Y-61548343D01*
X182737991Y-61599002D01*
X182849003Y-61655566D01*
X182849005Y-61655566D01*
X182849008Y-61655568D01*
X182969412Y-61694689D01*
X183073631Y-61728553D01*
X183306903Y-61765500D01*
X183306908Y-61765500D01*
X183543097Y-61765500D01*
X183776368Y-61728553D01*
X184000992Y-61655568D01*
X184211433Y-61548343D01*
X184402510Y-61409517D01*
X184569517Y-61242510D01*
X184708343Y-61051433D01*
X184815568Y-60840992D01*
X184888553Y-60616368D01*
X184925500Y-60383097D01*
X184925500Y-60146902D01*
X184888553Y-59913631D01*
X184815566Y-59689003D01*
X184708342Y-59478566D01*
X184569517Y-59287490D01*
X184402510Y-59120483D01*
X184211433Y-58981657D01*
X184000996Y-58874433D01*
X183776368Y-58801446D01*
X183543097Y-58764500D01*
X183543092Y-58764500D01*
X183306908Y-58764500D01*
X183306903Y-58764500D01*
X183073631Y-58801446D01*
X182849003Y-58874433D01*
X182638566Y-58981657D01*
X182529550Y-59060862D01*
X182447490Y-59120483D01*
X182447488Y-59120485D01*
X182447487Y-59120485D01*
X182280485Y-59287487D01*
X182280485Y-59287488D01*
X182280483Y-59287490D01*
X182220862Y-59369550D01*
X182141657Y-59478566D01*
X182034433Y-59689003D01*
X181961446Y-59913631D01*
X181924500Y-60146902D01*
X178425500Y-60146902D01*
X178388553Y-59913631D01*
X178315566Y-59689003D01*
X178208342Y-59478566D01*
X178069517Y-59287490D01*
X177902510Y-59120483D01*
X177711433Y-58981657D01*
X177500996Y-58874433D01*
X177276368Y-58801446D01*
X177043097Y-58764500D01*
X177043092Y-58764500D01*
X176806908Y-58764500D01*
X176806903Y-58764500D01*
X176573631Y-58801446D01*
X176349003Y-58874433D01*
X176138566Y-58981657D01*
X176029550Y-59060862D01*
X175947490Y-59120483D01*
X175947488Y-59120485D01*
X175947487Y-59120485D01*
X175780485Y-59287487D01*
X175780485Y-59287488D01*
X175780483Y-59287490D01*
X175720862Y-59369550D01*
X175641657Y-59478566D01*
X175534433Y-59689003D01*
X175461446Y-59913631D01*
X175424500Y-60146902D01*
X132600000Y-60146902D01*
X132600000Y-50831390D01*
X132619685Y-50764351D01*
X132672489Y-50718596D01*
X132724000Y-50707390D01*
X180097492Y-50707390D01*
X180164531Y-50727075D01*
G37*
%TD.AperFunction*%
%TD*%
M02*
